<svg width="426" height="97" viewBox="0 0 426 97" fill="none" xmlns="http://www.w3.org/2000/svg">
<path d="M114.967 42.5652C115.286 40.6525 114.542 38.5867 112.971 37.046C111.798 35.8949 110.205 35.0327 108.108 34.4155C104.523 33.3651 101.123 33.5708 97.9453 34.1091C98.2167 32.1351 97.6564 30.2356 96.3128 28.7168C94.9734 27.2068 92.9995 26.1213 90.2727 25.3948C88.7014 24.979 87.222 24.7645 85.782 24.747L86.1234 24.5501C86.8237 24.1474 87.0644 23.2501 86.6574 22.5498C86.3947 22.099 85.9089 21.8189 85.388 21.8189C85.1342 21.8189 84.8803 21.8889 84.6571 22.0159L77.9955 25.8631C77.8992 25.92 77.8117 25.9857 77.7329 26.0601C76.7743 24.7383 75.6626 23.5172 74.4109 22.4273C70.4104 18.9302 65.2764 17 59.9549 17C54.6895 17 49.5951 18.8908 45.6119 22.3266C41.6726 25.7275 39.0597 30.4151 38.2543 35.5268C38.0749 36.6516 37.9873 37.8071 37.9873 38.9626C37.9873 39.3172 37.9961 39.6761 38.0136 40.0306C37.6722 40.1794 37.3308 40.337 36.9894 40.4902C36.1534 40.3501 35.3043 40.2845 34.4683 40.302C32.4112 40.3458 30.341 40.8841 28.4764 41.8558C27.8242 42.1972 27.3165 42.5561 26.9139 42.845C26.2355 43.3308 25.986 43.484 25.6402 43.4578C25.4213 43.4403 25.1412 43.3483 24.813 43.1952C21.0882 41.4313 17.9632 40.5472 13.9061 41.5757C10.5665 42.4204 7.76969 44.8058 6.9425 47.5107C6.54421 48.815 6.42166 50.7233 7.80036 52.7935C6.52666 53.7564 5.60321 55.1877 5.28807 56.759C4.91167 58.6542 5.32309 60.6631 6.44356 62.4226C7.48962 64.0639 9.03905 65.342 10.7986 66.0554C7.14825 73.4785 5.21375 81.6935 5.21375 90.2119C5.21375 90.8159 5.70395 91.3061 6.30798 91.3061H41.3714C41.9754 91.3061 42.4656 90.8159 42.4656 90.2119C42.4656 90.0412 42.47 89.8705 42.4744 89.6998C42.4875 89.3146 42.5094 88.9339 42.5444 88.5487C42.6188 87.7434 42.7501 86.9468 42.934 86.1677C43.4154 84.1368 44.2645 82.2022 45.4288 80.4647C46.0591 85.3273 49.3329 89.9271 53.9593 92.168C54.572 92.4657 55.211 92.7195 55.8501 92.9208C57.3207 93.3892 58.8789 93.6255 60.4764 93.6255C64.7001 93.6255 68.8624 91.993 71.966 89.1786C73.3666 93.2622 77.1613 96.4486 81.4984 96.9344C81.8792 96.9781 82.2731 97 82.6583 97C86.7288 97 90.7117 94.6059 92.7071 91.1263C95.0049 93.2316 98.13 94.4483 101.36 94.4483C102.608 94.4483 103.82 94.2645 104.975 93.9012C109.72 92.4 113.291 87.8874 113.664 82.9243C113.843 80.5039 113.011 77.8778 111.313 76.3415C113.734 74.849 115.261 71.7896 114.867 68.8265C114.408 65.3382 111.567 62.1605 107.803 60.9131C107.216 60.7205 106.604 60.5673 105.978 60.4579C107.991 59.0749 110.665 56.6763 111.335 53.4025C111.711 51.5555 111.182 49.3802 109.864 47.9708C111.913 47.0779 114.491 45.4366 114.968 42.5653L114.967 42.5652ZM96.7289 38.4116V39.5102L92.6804 38.9543L96.7289 38.4116ZM40.1748 38.9631C40.1748 37.9214 40.258 36.8797 40.4155 35.8686C41.9343 26.2045 50.1497 19.1884 59.9548 19.1884C69.7412 19.1884 78.1578 26.4803 79.5332 36.1487C79.6645 37.0722 79.7345 38.022 79.7345 38.9631C79.7345 39.0287 79.7301 39.09 79.7301 39.1556C73.4362 36.7134 66.7961 35.4747 59.9556 35.4747C53.0839 35.4747 46.4044 36.7352 40.1811 39.1425C40.1811 39.0768 40.1767 39.0199 40.1767 38.963L40.1748 38.9631ZM8.29353 61.2456C7.71578 60.3396 7.09863 58.904 7.44004 57.1882C7.70703 55.8489 8.64371 54.6584 9.87792 54.0851C10.1931 53.9407 10.4206 53.6518 10.4907 53.3148C10.5607 52.9734 10.4644 52.6232 10.2324 52.365C9.00693 50.9994 8.60421 49.5813 9.03755 48.1544C9.63718 46.1848 11.8606 44.3553 14.443 43.7031C17.8789 42.8321 20.505 43.585 23.8755 45.1825C24.4489 45.4539 24.9654 45.6071 25.4512 45.6465C26.6329 45.7428 27.4208 45.1782 28.1824 44.6354C28.5675 44.3597 28.9658 44.0752 29.4823 43.8039C30.5196 43.2655 31.627 42.8891 32.7562 42.6834C28.5938 45.0732 24.7246 48.0275 21.2414 51.5115C17.4598 55.2931 14.2997 59.5387 11.8089 64.1075C10.4083 63.5735 9.12149 62.5406 8.29421 61.2451L8.29353 61.2456ZM59.9531 37.6586C74.6546 37.6586 88.7829 43.8825 98.7197 54.7328C100.308 56.466 101.783 58.3175 103.127 60.2476C101.858 60.2695 100.532 60.4358 99.1661 60.7509C99.1836 58.9389 98.1375 57.127 96.7062 56.0765C94.833 54.6978 92.4738 54.352 90.408 54.1332C89.3794 54.0238 88.0269 53.9013 86.6745 53.9013C85.6591 53.9013 84.7269 53.9713 83.8515 54.1113C81.9125 52.8246 79.8554 51.6865 77.7414 50.7324C72.1346 48.2025 66.151 46.9201 59.9491 46.9201C36.4416 46.9201 17.2487 65.7497 16.6661 89.1219L7.41339 89.1175C7.99552 60.6416 31.3412 37.6588 59.9534 37.6588L59.9531 37.6586ZM59.9531 49.1043C65.8399 49.1043 71.5257 50.321 76.8433 52.724C78.2701 53.3674 79.6663 54.0984 81.0145 54.9081C79.0974 55.7178 77.548 57.0134 76.6026 58.5934C74.4711 57.2278 71.893 56.4837 69.2057 56.4837C66.0499 56.4837 63.043 57.508 60.7408 59.3637C60.557 59.5126 60.3819 59.6657 60.2069 59.8233C60.1237 59.8058 60.0405 59.7927 59.953 59.7927C58.2679 59.7927 56.574 59.9327 54.924 60.2085C47.9035 61.3771 41.4783 65.0143 36.8265 70.4506C32.3621 75.6722 29.8017 82.2641 29.5566 89.1177H18.8597C19.4419 66.9537 37.6539 49.1046 59.9541 49.1046L59.9531 49.1043ZM40.3008 89.1174H31.7441C32.2518 75.738 41.9899 64.5771 55.2834 62.3707C56.2682 62.2088 57.2661 62.0994 58.2684 62.0425C57.5813 63.0404 57.0254 64.1478 56.6096 65.3383C51.029 66.2749 46.3021 71.212 45.4487 76.9109C43.1727 79.3882 41.5664 82.417 40.7961 85.6734C40.5335 86.7939 40.3672 87.9493 40.3015 89.118L40.3008 89.1174ZM112.694 69.1235C113.022 71.5964 111.42 74.2532 109.184 74.9315C108.938 75.0059 108.68 75.0585 108.413 75.0847C107.862 75.1372 107.437 75.5881 107.42 76.144C107.402 76.6954 107.805 77.1768 108.352 77.2556C110.51 77.5795 111.652 80.372 111.477 82.7704C111.175 86.8015 108.164 90.605 104.312 91.8261C103.376 92.1237 102.382 92.2726 101.358 92.2726C98.1933 92.2726 95.1601 90.8764 93.2431 88.5347C92.9936 88.2327 92.6041 88.0839 92.2145 88.1496C91.8293 88.2152 91.5054 88.4822 91.3698 88.8455C90.083 92.3076 86.4152 94.8243 82.6554 94.8243C82.3491 94.8243 82.0383 94.8067 81.7363 94.7717C77.7358 94.3253 74.1819 90.8501 73.6479 86.8628C73.591 86.4338 73.2889 86.0837 72.8731 85.9611C72.7725 85.9305 72.6674 85.9174 72.5624 85.9174C72.2473 85.9174 71.9409 86.0531 71.7308 86.2982C68.9646 89.5239 64.7541 91.4497 60.4691 91.4497C59.0947 91.4497 57.7642 91.2484 56.5036 90.8457C55.9609 90.675 55.4269 90.4606 54.9061 90.2067C50.3017 87.9745 47.2597 83.0505 47.5092 78.2232C47.7893 72.8134 52.2975 67.9634 57.5543 67.4125C57.9963 67.3643 58.364 67.058 58.4909 66.6334C59.143 64.4012 60.4299 62.4272 62.1106 61.0704C64.0276 59.5254 66.5443 58.6763 69.2011 58.6763C71.8754 58.6763 74.4096 59.5385 76.331 61.1011C76.6067 61.3243 76.9744 61.4031 77.3158 61.3068C77.6572 61.2105 77.9329 60.9566 78.0511 60.6196C78.712 58.7638 80.594 57.2057 82.9576 56.5447C84.0474 56.2427 85.2642 56.0939 86.6736 56.0939C87.9122 56.0939 89.1378 56.2077 90.175 56.3171C92.0352 56.5141 93.9698 56.7898 95.4054 57.8446C96.6003 58.7243 97.4057 60.5101 96.701 61.7619C96.4821 62.1514 96.5215 62.6416 96.806 62.9874C97.0905 63.3375 97.5588 63.4776 97.9834 63.3419C101.384 62.2696 104.522 62.147 107.105 63.0005C110.094 63.9853 112.339 66.4452 112.694 69.1237L112.694 69.1235ZM112.808 42.2059C112.497 44.0705 110.619 45.5367 107.065 46.6834C106.601 46.8322 106.295 47.2699 106.308 47.7557C106.321 48.2415 106.654 48.6617 107.126 48.7843C108.755 49.2089 109.521 51.3316 109.184 52.9729C108.658 55.5378 106.404 57.5161 104.702 58.6803C103.362 56.7852 101.9 54.9644 100.334 53.253C95.2564 47.7075 89.2166 43.335 82.3883 40.2621C82.2219 40.1877 82.0556 40.1176 81.8937 40.0476C81.9112 39.6843 81.9243 39.321 81.9243 38.9577C81.9243 37.9117 81.8499 36.8612 81.7011 35.8326C81.3422 33.3028 80.5368 30.8781 79.3551 28.6502C80.4318 28.0681 81.4254 27.6129 81.6223 27.5385C84.2002 26.7376 86.7695 26.7244 89.7107 27.5035C92.0041 28.1119 93.628 28.9829 94.674 30.1602C95.8777 31.5214 96.1491 33.2722 95.4356 35.0973C95.2912 35.4694 95.3612 35.8939 95.6151 36.2003C95.6545 36.2484 95.6982 36.2878 95.7464 36.3272L84.4016 37.8416C83.8588 37.916 83.4518 38.3756 83.4518 38.9227C83.4518 39.4698 83.8544 39.9337 84.3972 40.0081L97.6729 41.8377C97.7211 41.8464 97.7736 41.8464 97.8217 41.8464C98.0844 41.8464 98.3382 41.7502 98.5396 41.5751C98.7759 41.3694 98.916 41.0674 98.916 40.7522V37.1457C98.916 36.8306 98.7803 36.5286 98.5439 36.3228C98.5089 36.2922 98.4695 36.2616 98.4301 36.2353C101.31 35.7582 104.361 35.5875 107.495 36.5023C109.241 37.0144 110.532 37.6972 111.442 38.59C112.48 39.6317 113.005 41.0104 112.808 42.2053L112.808 42.2059Z" fill="black"/>
<path d="M58.9016 14.5188C58.976 15.0615 59.44 15.4642 59.9871 15.4642C60.5342 15.4642 60.9981 15.0572 61.0682 14.5144L62.8451 1.23865C62.8889 0.927894 62.7926 0.608381 62.5825 0.372036C62.3724 0.13569 62.0748 0 61.7597 0H58.1531C57.838 0 57.536 0.135681 57.3303 0.376405C57.1202 0.612751 57.0283 0.932264 57.0721 1.24302L58.9016 14.5188ZM60.5079 2.18891L59.9652 6.23746L59.4093 2.18891H60.5079Z" fill="black"/>
<path d="M31.2438 14.3306L41.9238 22.4234C42.1208 22.5722 42.3528 22.6466 42.5847 22.6466H42.5891C43.1931 22.6466 43.6834 22.1564 43.6834 21.5524C43.6834 21.2723 43.5783 21.014 43.4032 20.8214L35.3236 10.2469C35.131 9.99746 34.8421 9.8399 34.527 9.81801C34.2119 9.79613 33.9055 9.9143 33.6823 10.1375L31.135 12.6848C30.9117 12.908 30.7936 13.2188 30.8154 13.5339C30.8373 13.8491 30.9949 14.1423 31.2444 14.3305L31.2438 14.3306ZM34.3427 12.571L36.8244 15.8143L33.568 13.3457L34.3427 12.571Z" fill="black"/>
<path d="M76.5932 22.3655C76.8033 22.5756 77.0834 22.685 77.3635 22.685C77.5955 22.685 77.8318 22.6106 78.0288 22.4618L88.6733 14.3296C88.9228 14.137 89.0804 13.8481 89.1023 13.533C89.1241 13.2179 89.006 12.9115 88.7827 12.6882L86.2354 10.1409C86.0122 9.91772 85.7015 9.79955 85.3863 9.82143C85.0712 9.8433 84.7823 10.0009 84.5897 10.2504L76.4969 20.9304C76.1643 21.3681 76.2037 21.9808 76.5932 22.366L76.5932 22.3655ZM85.5745 12.5697L86.3536 13.3488L83.1104 15.8305L85.5745 12.5697Z" fill="black"/>
<path d="M21.3703 41.5894C21.5716 41.7645 21.8255 41.8608 22.0881 41.8608C22.1363 41.8608 22.1888 41.8564 22.2369 41.852L35.5127 40.0225C36.0554 39.9481 36.4581 39.4841 36.4581 38.937C36.4581 38.3899 36.0511 37.926 35.5083 37.856L22.2325 36.079C21.9174 36.0396 21.6023 36.1315 21.3659 36.3416C21.1296 36.5517 20.9939 36.8493 20.9939 37.1644V40.771C20.9939 41.0817 21.134 41.3793 21.3703 41.5894ZM23.1823 38.4119L27.2309 38.9546L23.1823 39.5104V38.4119Z" fill="black"/>
<path d="M71.3539 19.2189C71.5771 19.3459 71.831 19.4159 72.0848 19.4159C72.6057 19.4159 73.0915 19.1358 73.3541 18.685L77.2014 12.0234C77.6041 11.3231 77.3633 10.4259 76.663 10.0231C76.4398 9.8962 76.186 9.82617 75.9321 9.82617C75.4113 9.82617 74.9254 10.1063 74.6628 10.5571L70.8155 17.2187C70.4129 17.919 70.6536 18.8162 71.3539 19.2189Z" fill="black"/>
<path d="M52.2618 15.9098C52.4325 16.5488 53.0146 16.9953 53.6756 16.9953C53.8025 16.9953 53.9294 16.9778 54.0564 16.9471C54.4328 16.8465 54.7479 16.6057 54.9449 16.2643C55.1418 15.9273 55.1944 15.529 55.0893 15.1526L53.0978 7.72071C52.9272 7.08169 52.345 6.63525 51.6841 6.63525C51.5572 6.63525 51.4302 6.65276 51.3033 6.6834C50.9269 6.78406 50.6118 7.02479 50.4148 7.36619C50.2178 7.70321 50.1653 8.1015 50.2704 8.47789L52.2618 15.9098Z" fill="black"/>
<path d="M46.5588 18.685C46.8214 19.1358 47.3072 19.4159 47.8281 19.4159C48.0863 19.4159 48.3358 19.3459 48.559 19.2189C49.2593 18.8163 49.5 17.919 49.093 17.2187L45.2458 10.5571C44.9831 10.1063 44.4973 9.82617 43.9764 9.82617C43.7226 9.82617 43.4687 9.8962 43.2455 10.0231C42.5452 10.4258 42.3045 11.3231 42.7115 12.0234L46.5588 18.685Z" fill="black"/>
<path d="M39.6779 25.5647L33.0163 21.7175C32.7931 21.5905 32.5392 21.5205 32.2854 21.5205C31.7645 21.5205 31.2787 21.8006 31.0161 22.2514C30.6134 22.9517 30.8541 23.849 31.5501 24.2517L38.2117 28.0989C38.4349 28.2259 38.6887 28.2959 38.9426 28.2959C39.4634 28.2959 39.9492 28.0158 40.2119 27.565C40.4089 27.2279 40.4614 26.8296 40.3563 26.4533C40.2601 26.0768 40.0193 25.7617 39.6779 25.5647Z" fill="black"/>
<path d="M28.7142 32.1046L36.1462 34.096C36.2687 34.131 36.3957 34.1442 36.5226 34.1442C37.1835 34.1442 37.7656 33.6977 37.9363 33.0587C38.037 32.6823 37.9845 32.2884 37.7919 31.947C37.5949 31.61 37.2798 31.3649 36.9034 31.2642L29.4715 29.2728C29.3489 29.2377 29.222 29.2246 29.0907 29.2246C28.4298 29.2246 27.8477 29.671 27.6769 30.3101C27.5763 30.6865 27.6288 31.0804 27.8214 31.4218C28.0227 31.7632 28.3378 32.0039 28.7142 32.1046Z" fill="black"/>
<path d="M91.1985 32.1046C91.5749 32.0039 91.89 31.7632 92.087 31.4218C92.284 31.0847 92.3365 30.6865 92.2314 30.3101C92.0607 29.671 91.4786 29.2246 90.8177 29.2246C90.6907 29.2246 90.5638 29.2421 90.4369 29.2728L83.005 31.2642C82.2259 31.4743 81.762 32.2796 81.9721 33.0587C82.1428 33.6978 82.7249 34.1442 83.3858 34.1442C83.5128 34.1442 83.6397 34.1267 83.7666 34.0961L91.1985 32.1046Z" fill="black"/>
<path d="M65.856 16.9428C65.9786 16.9778 66.1055 16.9909 66.2368 16.9909C66.8977 16.9909 67.4798 16.5445 67.6505 15.9055L69.642 8.47354C69.8521 7.69445 69.3881 6.88909 68.6047 6.679C68.4822 6.64399 68.3552 6.63086 68.2239 6.63086C67.563 6.63086 66.981 7.07729 66.8102 7.71632L64.8187 15.1482C64.613 15.9317 65.077 16.7327 65.856 16.9428Z" fill="black"/>
<path d="M153.447 19.7969H147.604C147.437 18.8385 147.13 17.9896 146.682 17.25C146.234 16.5 145.676 15.8646 145.01 15.3437C144.343 14.8229 143.583 14.4323 142.729 14.1719C141.885 13.901 140.973 13.7656 139.994 13.7656C138.255 13.7656 136.713 14.2031 135.369 15.0781C134.025 15.9427 132.973 17.2135 132.213 18.8906C131.452 20.5573 131.072 22.5937 131.072 25C131.072 27.4479 131.452 29.5104 132.213 31.1875C132.984 32.8542 134.036 34.1146 135.369 34.9687C136.713 35.8125 138.249 36.2344 139.979 36.2344C140.937 36.2344 141.833 36.1094 142.666 35.8594C143.51 35.599 144.265 35.2187 144.932 34.7187C145.609 34.2187 146.176 33.6042 146.635 32.875C147.104 32.1458 147.426 31.3125 147.604 30.375L153.447 30.4062C153.229 31.9271 152.755 33.3542 152.025 34.6875C151.307 36.0208 150.364 37.1979 149.197 38.2188C148.031 39.2292 146.666 40.0208 145.104 40.5937C143.541 41.1562 141.807 41.4375 139.9 41.4375C137.088 41.4375 134.577 40.7865 132.369 39.4844C130.161 38.1823 128.421 36.3021 127.15 33.8437C125.88 31.3854 125.244 28.4375 125.244 25C125.244 21.5521 125.885 18.6042 127.166 16.1562C128.447 13.6979 130.192 11.8177 132.4 10.5156C134.609 9.21354 137.109 8.5625 139.9 8.5625C141.682 8.5625 143.338 8.8125 144.869 9.3125C146.4 9.8125 147.765 10.5469 148.963 11.5156C150.161 12.474 151.145 13.651 151.916 15.0469C152.697 16.4323 153.208 18.0156 153.447 19.7969ZM187.35 25C187.35 28.4479 186.704 31.401 185.412 33.8594C184.131 36.3073 182.381 38.1823 180.162 39.4844C177.954 40.7865 175.449 41.4375 172.646 41.4375C169.844 41.4375 167.334 40.7865 165.115 39.4844C162.907 38.1719 161.157 36.2917 159.865 33.8437C158.584 31.3854 157.943 28.4375 157.943 25C157.943 21.5521 158.584 18.6042 159.865 16.1562C161.157 13.6979 162.907 11.8177 165.115 10.5156C167.334 9.21354 169.844 8.5625 172.646 8.5625C175.449 8.5625 177.954 9.21354 180.162 10.5156C182.381 11.8177 184.131 13.6979 185.412 16.1562C186.704 18.6042 187.35 21.5521 187.35 25ZM181.521 25C181.521 22.5729 181.141 20.526 180.381 18.8594C179.631 17.1823 178.589 15.9167 177.256 15.0625C175.923 14.1979 174.386 13.7656 172.646 13.7656C170.907 13.7656 169.37 14.1979 168.037 15.0625C166.704 15.9167 165.657 17.1823 164.896 18.8594C164.146 20.526 163.771 22.5729 163.771 25C163.771 27.4271 164.146 29.4792 164.896 31.1562C165.657 32.8229 166.704 34.0885 168.037 34.9531C169.37 35.8073 170.907 36.2344 172.646 36.2344C174.386 36.2344 175.923 35.8073 177.256 34.9531C178.589 34.0885 179.631 32.8229 180.381 31.1562C181.141 29.4792 181.521 27.4271 181.521 25ZM219.127 9V41H213.971L198.893 19.2031H198.627V41H192.83V9H198.018L213.08 30.8125H213.361V9H219.127ZM225.443 41V9H246.256V13.8594H231.24V22.5469H245.178V27.4062H231.24V36.1406H246.381V41H225.443ZM269.561 17.7969C269.415 16.4323 268.8 15.3698 267.717 14.6094C266.644 13.849 265.248 13.4687 263.529 13.4687C262.321 13.4687 261.285 13.651 260.42 14.0156C259.555 14.3802 258.894 14.875 258.436 15.5C257.977 16.125 257.743 16.8385 257.732 17.6406C257.732 18.3073 257.883 18.8854 258.186 19.375C258.498 19.8646 258.92 20.2812 259.451 20.625C259.982 20.9583 260.571 21.2396 261.217 21.4687C261.863 21.6979 262.514 21.8906 263.17 22.0469L266.17 22.7969C267.378 23.0781 268.54 23.4583 269.654 23.9375C270.779 24.4167 271.785 25.0208 272.67 25.75C273.566 26.4792 274.274 27.3594 274.795 28.3906C275.316 29.4219 275.576 30.6302 275.576 32.0156C275.576 33.8906 275.097 35.5417 274.139 36.9687C273.18 38.3854 271.795 39.4948 269.982 40.2969C268.18 41.0885 265.998 41.4844 263.436 41.4844C260.946 41.4844 258.785 41.099 256.951 40.3281C255.128 39.5573 253.701 38.4323 252.67 36.9531C251.649 35.474 251.097 33.6719 251.014 31.5469H256.717C256.8 32.6615 257.144 33.5885 257.748 34.3281C258.352 35.0677 259.139 35.6198 260.107 35.9844C261.087 36.349 262.18 36.5312 263.389 36.5312C264.649 36.5312 265.753 36.3437 266.701 35.9687C267.66 35.5833 268.41 35.0521 268.951 34.375C269.493 33.6875 269.769 32.8854 269.779 31.9687C269.769 31.1354 269.524 30.4479 269.045 29.9062C268.566 29.3542 267.894 28.8958 267.029 28.5312C266.175 28.1562 265.175 27.8229 264.029 27.5312L260.389 26.5937C257.753 25.9167 255.67 24.8906 254.139 23.5156C252.618 22.1302 251.857 20.2917 251.857 18C251.857 16.1146 252.368 14.4635 253.389 13.0469C254.42 11.6302 255.821 10.5312 257.592 9.75C259.363 8.95833 261.368 8.5625 263.607 8.5625C265.878 8.5625 267.868 8.95833 269.576 9.75C271.295 10.5312 272.644 11.6198 273.623 13.0156C274.602 14.401 275.107 15.9948 275.139 17.7969H269.561ZM292.468 41.2983C291.076 41.2983 289.879 41.0464 288.878 40.5426C287.877 40.0388 287.105 39.3594 286.562 38.5043C286.025 37.6425 285.756 36.6714 285.756 35.5909C285.756 34.7756 285.922 34.053 286.253 33.4233C286.591 32.7936 287.055 32.2102 287.645 31.6733C288.242 31.1364 288.931 30.6027 289.714 30.0724L293.323 27.6165C293.853 27.2718 294.254 26.9072 294.526 26.5227C294.805 26.1383 294.944 25.6875 294.944 25.1705C294.944 24.733 294.758 24.3187 294.387 23.9276C294.022 23.5365 293.519 23.3409 292.876 23.3409C292.445 23.3409 292.064 23.4437 291.732 23.6491C291.407 23.848 291.152 24.1098 290.966 24.4347C290.787 24.7595 290.698 25.1042 290.698 25.4688C290.698 25.9129 290.821 26.3636 291.066 26.821C291.318 27.2784 291.643 27.7524 292.04 28.2429C292.445 28.7334 292.876 29.2538 293.333 29.804L302.888 41H298.991L291.056 31.9119C290.466 31.2225 289.896 30.5431 289.346 29.8736C288.802 29.2041 288.355 28.508 288.003 27.7855C287.659 27.0563 287.486 26.2675 287.486 25.419C287.486 24.4579 287.708 23.5994 288.153 22.8438C288.597 22.0814 289.216 21.4815 290.012 21.044C290.814 20.6065 291.752 20.3878 292.826 20.3878C293.9 20.3878 294.821 20.5999 295.59 21.0241C296.359 21.4484 296.952 22.0118 297.37 22.7145C297.787 23.4171 297.996 24.1828 297.996 25.0114C297.996 25.9725 297.758 26.8343 297.28 27.5966C296.803 28.3523 296.14 29.0384 295.292 29.6548L291.175 32.6676C290.499 33.1581 290.015 33.6553 289.724 34.1591C289.432 34.6562 289.286 35.0805 289.286 35.4318C289.286 35.9687 289.422 36.456 289.694 36.8935C289.965 37.331 290.347 37.6823 290.837 37.9474C291.334 38.206 291.914 38.3352 292.577 38.3352C293.306 38.3352 294.026 38.1728 294.735 37.848C295.444 37.5166 296.09 37.0459 296.674 36.4361C297.257 35.8262 297.721 35.0971 298.066 34.2486C298.411 33.3935 298.583 32.4455 298.583 31.4048H301.675C301.675 32.6908 301.533 33.8111 301.248 34.7656C300.963 35.7135 300.595 36.5156 300.144 37.1719C299.693 37.8215 299.216 38.3419 298.712 38.733C298.553 38.8456 298.401 38.9583 298.255 39.071C298.109 39.1837 297.956 39.2964 297.797 39.4091C297.081 40.0587 296.243 40.536 295.282 40.8409C294.327 41.1458 293.389 41.2983 292.468 41.2983ZM144.451 65.7969C144.305 64.4323 143.691 63.3698 142.607 62.6094C141.535 61.849 140.139 61.4687 138.42 61.4687C137.212 61.4687 136.175 61.651 135.311 62.0156C134.446 62.3802 133.785 62.875 133.326 63.5C132.868 64.125 132.633 64.8385 132.623 65.6406C132.623 66.3073 132.774 66.8854 133.076 67.375C133.389 67.8646 133.811 68.2812 134.342 68.625C134.873 68.9583 135.462 69.2396 136.107 69.4687C136.753 69.6979 137.404 69.8906 138.061 70.0469L141.061 70.7969C142.269 71.0781 143.43 71.4583 144.545 71.9375C145.67 72.4167 146.675 73.0208 147.561 73.75C148.456 74.4792 149.165 75.3594 149.686 76.3906C150.206 77.4219 150.467 78.6302 150.467 80.0156C150.467 81.8906 149.988 83.5417 149.029 84.9687C148.071 86.3854 146.686 87.4948 144.873 88.2969C143.071 89.0885 140.889 89.4844 138.326 89.4844C135.837 89.4844 133.675 89.099 131.842 88.3281C130.019 87.5573 128.592 86.4323 127.561 84.9531C126.54 83.474 125.988 81.6719 125.904 79.5469H131.607C131.691 80.6615 132.035 81.5885 132.639 82.3281C133.243 83.0677 134.029 83.6198 134.998 83.9844C135.977 84.349 137.071 84.5312 138.279 84.5312C139.54 84.5312 140.644 84.3437 141.592 83.9687C142.55 83.5833 143.3 83.0521 143.842 82.375C144.383 81.6875 144.66 80.8854 144.67 79.9687C144.66 79.1354 144.415 78.4479 143.936 77.9062C143.456 77.3542 142.785 76.8958 141.92 76.5312C141.066 76.1562 140.066 75.8229 138.92 75.5312L135.279 74.5937C132.644 73.9167 130.561 72.8906 129.029 71.5156C127.508 70.1302 126.748 68.2917 126.748 66C126.748 64.1146 127.258 62.4635 128.279 61.0469C129.311 59.6302 130.712 58.5312 132.482 57.75C134.253 56.9583 136.258 56.5625 138.498 56.5625C140.769 56.5625 142.758 56.9583 144.467 57.75C146.186 58.5312 147.535 59.6198 148.514 61.0156C149.493 62.401 149.998 63.9948 150.029 65.7969H144.451ZM154.229 61.8594V57H179.76V61.8594H169.869V89H164.119V61.8594H154.229ZM211.857 73C211.857 76.4479 211.212 79.401 209.92 81.8594C208.639 84.3073 206.889 86.1823 204.67 87.4844C202.462 88.7865 199.956 89.4375 197.154 89.4375C194.352 89.4375 191.842 88.7865 189.623 87.4844C187.415 86.1719 185.665 84.2917 184.373 81.8437C183.092 79.3854 182.451 76.4375 182.451 73C182.451 69.5521 183.092 66.6042 184.373 64.1562C185.665 61.6979 187.415 59.8177 189.623 58.5156C191.842 57.2135 194.352 56.5625 197.154 56.5625C199.956 56.5625 202.462 57.2135 204.67 58.5156C206.889 59.8177 208.639 61.6979 209.92 64.1562C211.212 66.6042 211.857 69.5521 211.857 73ZM206.029 73C206.029 70.5729 205.649 68.526 204.889 66.8594C204.139 65.1823 203.097 63.9167 201.764 63.0625C200.43 62.1979 198.894 61.7656 197.154 61.7656C195.415 61.7656 193.878 62.1979 192.545 63.0625C191.212 63.9167 190.165 65.1823 189.404 66.8594C188.654 68.526 188.279 70.5729 188.279 73C188.279 75.4271 188.654 77.4792 189.404 79.1562C190.165 80.8229 191.212 82.0885 192.545 82.9531C193.878 83.8073 195.415 84.2344 197.154 84.2344C198.894 84.2344 200.43 83.8073 201.764 82.9531C203.097 82.0885 204.139 80.8229 204.889 79.1562C205.649 77.4792 206.029 75.4271 206.029 73ZM243.635 57V89H238.479L223.4 67.2031H223.135V89H217.338V57H222.525L237.588 78.8125H237.869V57H243.635ZM249.951 89V57H270.764V61.8594H255.748V70.5469H269.686V75.4062H255.748V84.1406H270.889V89H249.951ZM294.068 65.7969C293.923 64.4323 293.308 63.3698 292.225 62.6094C291.152 61.849 289.756 61.4687 288.037 61.4687C286.829 61.4687 285.792 61.651 284.928 62.0156C284.063 62.3802 283.402 62.875 282.943 63.5C282.485 64.125 282.251 64.8385 282.24 65.6406C282.24 66.3073 282.391 66.8854 282.693 67.375C283.006 67.8646 283.428 68.2812 283.959 68.625C284.49 68.9583 285.079 69.2396 285.725 69.4687C286.37 69.6979 287.021 69.8906 287.678 70.0469L290.678 70.7969C291.886 71.0781 293.048 71.4583 294.162 71.9375C295.287 72.4167 296.292 73.0208 297.178 73.75C298.074 74.4792 298.782 75.3594 299.303 76.3906C299.824 77.4219 300.084 78.6302 300.084 80.0156C300.084 81.8906 299.605 83.5417 298.646 84.9687C297.688 86.3854 296.303 87.4948 294.49 88.2969C292.688 89.0885 290.506 89.4844 287.943 89.4844C285.454 89.4844 283.292 89.099 281.459 88.3281C279.636 87.5573 278.209 86.4323 277.178 84.9531C276.157 83.474 275.605 81.6719 275.521 79.5469H281.225C281.308 80.6615 281.652 81.5885 282.256 82.3281C282.86 83.0677 283.646 83.6198 284.615 83.9844C285.594 84.349 286.688 84.5312 287.896 84.5312C289.157 84.5312 290.261 84.3437 291.209 83.9687C292.167 83.5833 292.917 83.0521 293.459 82.375C294.001 81.6875 294.277 80.8854 294.287 79.9687C294.277 79.1354 294.032 78.4479 293.553 77.9062C293.074 77.3542 292.402 76.8958 291.537 76.5312C290.683 76.1562 289.683 75.8229 288.537 75.5312L284.896 74.5937C282.261 73.9167 280.178 72.8906 278.646 71.5156C277.126 70.1302 276.365 68.2917 276.365 66C276.365 64.1146 276.876 62.4635 277.896 61.0469C278.928 59.6302 280.329 58.5312 282.1 57.75C283.87 56.9583 285.876 56.5625 288.115 56.5625C290.386 56.5625 292.376 56.9583 294.084 57.75C295.803 58.5312 297.152 59.6198 298.131 61.0156C299.11 62.401 299.615 63.9948 299.646 65.7969H294.068Z" fill="black"/>
</svg>
