<svg width="105" height="34" viewBox="0 0 105 34" fill="none" xmlns="http://www.w3.org/2000/svg">
<path d="M38.7273 14.9197C38.84 14.2493 38.5776 13.5252 38.0234 12.9852C37.6098 12.5817 37.0479 12.2795 36.3086 12.0631C35.0444 11.6949 33.8451 11.767 32.7246 11.9557C32.8203 11.2638 32.6227 10.598 32.1488 10.0657C31.6765 9.53638 30.9804 9.1559 30.0187 8.90124C29.4646 8.7555 28.9429 8.68032 28.435 8.67419L28.5554 8.60515C28.8024 8.46401 28.8873 8.1495 28.7437 7.90404C28.6511 7.74602 28.4798 7.64783 28.2961 7.64783C28.2066 7.64783 28.1171 7.67238 28.0383 7.71687L25.689 9.06539C25.6551 9.08533 25.6242 9.10835 25.5964 9.13443C25.2584 8.67112 24.8663 8.24309 24.4249 7.86109C23.0141 6.6353 21.2035 5.95873 19.3268 5.95873C17.4699 5.95873 15.6733 6.62149 14.2686 7.8258C12.8794 9.01785 11.9579 10.6609 11.6739 12.4527C11.6106 12.8469 11.5797 13.252 11.5797 13.657C11.5797 13.7812 11.5828 13.907 11.589 14.0313C11.4686 14.0835 11.3482 14.1387 11.2278 14.1924C10.933 14.1433 10.6335 14.1203 10.3387 14.1264C9.61324 14.1418 8.88313 14.3305 8.22558 14.6711C7.99559 14.7907 7.81653 14.9166 7.67454 15.0178C7.43529 15.1881 7.34731 15.2418 7.22536 15.2326C7.14818 15.2265 7.04939 15.1942 6.93362 15.1405C5.62005 14.5223 4.51798 14.2124 3.08719 14.5729C1.90945 14.869 0.923123 15.7051 0.631405 16.6532C0.490943 17.1104 0.447723 17.7793 0.93394 18.5049C0.484755 18.8424 0.159087 19.3441 0.047952 19.8949C-0.0847914 20.5592 0.0603004 21.2633 0.455449 21.8801C0.824352 22.4554 1.37078 22.9034 1.99129 23.1534C0.703964 25.7553 0.0217405 28.6348 0.0217405 31.6207C0.0217405 31.8324 0.194618 32.0042 0.407636 32.0042H12.7731C12.9862 32.0042 13.159 31.8324 13.159 31.6207C13.159 31.5608 13.1606 31.501 13.1621 31.4412C13.1668 31.3061 13.1745 31.1727 13.1868 31.0377C13.2131 30.7554 13.2594 30.4762 13.3242 30.2031C13.494 29.4912 13.7934 28.8131 14.204 28.2041C14.4263 29.9085 15.5809 31.5208 17.2124 32.3063C17.4285 32.4106 17.6538 32.4996 17.8792 32.5702C18.3978 32.7343 18.9474 32.8172 19.5107 32.8172C21.0002 32.8172 22.4682 32.245 23.5627 31.2585C24.0566 32.6898 25.3949 33.8067 26.9244 33.977C27.0587 33.9923 27.1976 34 27.3334 34C28.7689 34 30.1735 33.1608 30.8772 31.9412C31.6876 32.6791 32.7897 33.1056 33.9288 33.1056C34.3687 33.1056 34.7963 33.0412 35.2038 32.9138C36.877 32.3876 38.1365 30.8059 38.2678 29.0662C38.3311 28.2178 38.0378 27.2973 37.4389 26.7589C38.2925 26.2357 38.8311 25.1633 38.6922 24.1247C38.5301 22.902 37.5284 21.7882 36.2009 21.351C35.9941 21.2835 35.778 21.2298 35.5573 21.1914C36.2673 20.7066 37.2104 19.8659 37.4466 18.7184C37.5793 18.071 37.3926 17.3085 36.928 16.8145C37.6503 16.5015 38.5595 15.9262 38.7277 14.9198L38.7273 14.9197ZM32.2956 13.4638V13.8489L30.8678 13.6541L32.2956 13.4638ZM12.3511 13.6571C12.3511 13.292 12.3805 12.9269 12.436 12.5725C12.9717 9.18505 15.8689 6.72581 19.3268 6.72581C22.7781 6.72581 25.7463 9.28173 26.2313 12.6707C26.2776 12.9944 26.3023 13.3273 26.3023 13.6571C26.3023 13.6801 26.3008 13.7016 26.3008 13.7246C24.0812 12.8686 21.7395 12.4344 19.3271 12.4344C16.9037 12.4344 14.5481 12.8762 12.3534 13.72C12.3534 13.697 12.3518 13.6771 12.3518 13.6571L12.3511 13.6571ZM1.10786 21.4675C0.904112 21.1499 0.686467 20.6467 0.806869 20.0453C0.901026 19.5759 1.23136 19.1586 1.66661 18.9576C1.77775 18.907 1.85801 18.8058 1.88271 18.6876C1.90741 18.568 1.87345 18.4452 1.79164 18.3547C1.35945 17.8761 1.21742 17.379 1.37025 16.8788C1.58172 16.1885 2.36582 15.5472 3.27654 15.3186C4.48823 15.0133 5.41436 15.2772 6.60303 15.8372C6.80524 15.9323 6.98738 15.986 7.15871 15.9998C7.57546 16.0335 7.85331 15.8356 8.12188 15.6454C8.25772 15.5487 8.39818 15.449 8.58032 15.3539C8.94613 15.1652 9.33667 15.0333 9.73488 14.9612C8.26697 15.7988 6.90245 16.8344 5.67407 18.0556C4.34045 19.3811 3.226 20.8692 2.34758 22.4707C1.85365 22.2835 1.39961 21.9216 1.10786 21.4675ZM19.3262 13.1999C24.5108 13.1999 29.4933 15.3815 32.9976 19.1847C33.558 19.7922 34.0781 20.4412 34.552 21.1177C34.1044 21.1254 33.6367 21.1837 33.1551 21.2941C33.1612 20.659 32.7923 20.0239 32.2876 19.6557C31.627 19.1724 30.795 19.0512 30.0664 18.9745C29.7037 18.9362 29.2267 18.8932 28.7498 18.8932C28.3917 18.8932 28.0629 18.9177 27.7542 18.9668C27.0704 18.5158 26.345 18.1169 25.5994 17.7825C23.6221 16.8957 21.5119 16.4462 19.3248 16.4462C11.0346 16.4462 4.26602 23.0463 4.06054 31.2386L0.797471 31.2371C1.00276 21.2558 9.23573 13.1999 19.3262 13.1999ZM19.3262 17.2118C21.4022 17.2118 23.4074 17.6383 25.2827 18.4806C25.7859 18.7061 26.2783 18.9623 26.7537 19.2461C26.0776 19.5299 25.5312 19.984 25.1978 20.5379C24.4461 20.0592 23.5369 19.7984 22.5892 19.7984C21.4763 19.7984 20.4159 20.1574 19.604 20.8079C19.5392 20.8601 19.4774 20.9137 19.4157 20.969C19.3863 20.9628 19.357 20.9582 19.3261 20.9582C18.7319 20.9582 18.1345 21.0073 17.5526 21.104C15.0768 21.5136 12.8108 22.7885 11.1703 24.694C9.59592 26.5242 8.69294 28.8348 8.6065 31.2371H4.83415C5.03945 23.4683 11.4621 17.2119 19.3265 17.2119L19.3262 17.2118ZM12.3956 31.237H9.37795C9.557 26.5473 12.9913 22.6353 17.6794 21.8619C18.0267 21.8051 18.3786 21.7668 18.7321 21.7468C18.4897 22.0966 18.2937 22.4848 18.147 22.9021C16.179 23.2304 14.512 24.9609 14.211 26.9584C13.4084 27.8268 12.8419 28.8884 12.5703 30.0298C12.4776 30.4226 12.4188 30.8274 12.3956 31.237ZM37.9258 24.2288C38.0416 25.0956 37.4766 26.0269 36.6879 26.2646C36.6014 26.2907 36.5104 26.3091 36.4162 26.3183C36.2217 26.3367 36.072 26.4948 36.0658 26.6896C36.0596 26.8829 36.2016 27.0517 36.3946 27.0793C37.1555 27.1928 37.5584 28.1716 37.4967 29.0123C37.3902 30.4253 36.3282 31.7584 34.9699 32.1865C34.6396 32.2908 34.2892 32.3429 33.928 32.3429C32.812 32.3429 31.7423 31.8536 31.0663 31.0328C30.9783 30.9269 30.8409 30.8748 30.7035 30.8978C30.5677 30.9208 30.4535 31.0144 30.4056 31.1417C29.9518 32.3552 28.6583 33.2374 27.3324 33.2374C27.2244 33.2374 27.1148 33.2312 27.0083 33.2189C25.5975 33.0625 24.3441 31.8443 24.1558 30.4467C24.1357 30.2964 24.0292 30.1737 23.8826 30.1307C23.8471 30.12 23.81 30.1154 23.773 30.1154C23.6619 30.1154 23.5538 30.1629 23.4797 30.2488C22.5042 31.3795 21.0193 32.0545 19.5082 32.0545C19.0235 32.0545 18.5542 31.984 18.1097 31.8428C17.9183 31.783 17.73 31.7078 17.5463 31.6188C15.9225 30.8364 14.8497 29.1105 14.9377 27.4184C15.0365 25.5222 16.6263 23.8222 18.4802 23.6291C18.6361 23.6122 18.7658 23.5048 18.8105 23.356C19.0405 22.5736 19.4943 21.8817 20.087 21.4061C20.7631 20.8645 21.6506 20.5669 22.5876 20.5669C23.5307 20.5669 24.4244 20.8691 25.102 21.4168C25.1993 21.4951 25.3289 21.5227 25.4493 21.4889C25.5697 21.4552 25.667 21.3662 25.7087 21.2481C25.9417 20.5976 26.6054 20.0515 27.439 19.8198C27.8233 19.7139 28.2524 19.6618 28.7495 19.6618C29.1863 19.6618 29.6185 19.7016 29.9843 19.74C30.6403 19.809 31.3226 19.9057 31.8288 20.2754C32.2502 20.5838 32.5342 21.2097 32.2857 21.6485C32.2086 21.785 32.2224 21.9568 32.3228 22.078C32.4231 22.2008 32.5883 22.2499 32.738 22.2023C33.9373 21.8264 35.044 21.7835 35.9547 22.0826C37.009 22.4278 37.8008 23.2899 37.9258 24.2288ZM37.9659 14.7938C37.8563 15.4474 37.1941 15.9613 35.9408 16.3632C35.7772 16.4154 35.6691 16.5688 35.6738 16.7391C35.6784 16.9094 35.7957 17.0567 35.9624 17.0996C36.5366 17.2484 36.8067 17.9925 36.6879 18.5678C36.5026 19.4668 35.7077 20.1603 35.1073 20.5683C34.6349 19.9041 34.1194 19.2658 33.5668 18.666C31.7763 16.7222 29.6463 15.1896 27.2382 14.1124C27.1795 14.0864 27.1209 14.0618 27.0638 14.0373C27.0699 13.9099 27.0746 13.7826 27.0746 13.6553C27.0746 13.2886 27.0483 12.9204 26.9959 12.5599C26.8693 11.6731 26.5853 10.8232 26.1685 10.0423C26.5482 9.83827 26.8986 9.67873 26.9681 9.65264C27.8772 9.37189 28.7833 9.36729 29.8205 9.64037C30.6293 9.85362 31.202 10.1589 31.5709 10.5716C31.9954 11.0487 32.0911 11.6624 31.8395 12.3021C31.7886 12.4325 31.8132 12.5813 31.9028 12.6887C31.9167 12.7056 31.9321 12.7194 31.9491 12.7332L27.9482 13.264C27.7568 13.2901 27.6132 13.4512 27.6132 13.643C27.6132 13.8347 27.7553 13.9974 27.9467 14.0234L32.6285 14.6647C32.6455 14.6678 32.664 14.6678 32.681 14.6678C32.7736 14.6678 32.8631 14.634 32.9341 14.5727C33.0175 14.5006 33.0669 14.3947 33.0669 14.2843V13.0201C33.0669 12.9097 33.019 12.8038 32.9357 12.7317C32.9233 12.721 32.9094 12.7102 32.8955 12.701C33.9112 12.5338 34.9871 12.474 36.0922 12.7946C36.7081 12.9741 37.1634 13.2134 37.4845 13.5264C37.8503 13.8915 38.0354 14.375 37.9659 14.7938Z" fill="black"/>
<path d="M18.9554 5.08907C18.9816 5.27931 19.1452 5.42045 19.3382 5.42045C19.5311 5.42045 19.6947 5.27777 19.7194 5.08753L20.3461 0.434166C20.3615 0.325241 20.3276 0.213247 20.2535 0.130404C20.1794 0.0475615 20.0744 0 19.9633 0H18.6914C18.5803 0 18.4738 0.0475582 18.4012 0.131936C18.3271 0.214779 18.2947 0.326773 18.3102 0.435697L18.9554 5.08907ZM19.5218 0.767246L19.3304 2.18633L19.1344 0.767246H19.5218Z" fill="black"/>
<path d="M9.20154 5.02312L12.968 7.85978C13.0374 7.91194 13.1192 7.93802 13.201 7.93802H13.2026C13.4156 7.93802 13.5885 7.76619 13.5885 7.55447C13.5885 7.45629 13.5514 7.36577 13.4897 7.29827L10.6403 3.59174C10.5724 3.5043 10.4705 3.44907 10.3594 3.44139C10.2482 3.43372 10.1402 3.47514 10.0615 3.55339L9.16314 4.44626C9.08442 4.5245 9.04274 4.63343 9.05046 4.74389C9.05817 4.85435 9.11355 4.95715 9.20154 5.02312ZM10.2944 4.40638L11.1696 5.54318L10.0212 4.67789L10.2944 4.40638Z" fill="black"/>
<path d="M25.1945 7.83948C25.2686 7.91312 25.3674 7.95148 25.4662 7.95148C25.548 7.95148 25.6313 7.9254 25.7008 7.87324L29.4547 5.02276C29.5427 4.95526 29.5982 4.85401 29.606 4.74355C29.6137 4.63309 29.572 4.5257 29.4933 4.44746L28.5949 3.55458C28.5162 3.47634 28.4066 3.43492 28.2955 3.44259C28.1844 3.45026 28.0825 3.50549 28.0146 3.59294L25.1605 7.33645C25.0432 7.48986 25.0571 7.70448 25.1945 7.83948ZM28.3619 4.40592L28.6366 4.679L27.4929 5.54886L28.3619 4.40592Z" fill="black"/>
<path d="M5.71954 14.5778C5.79055 14.6391 5.88007 14.6729 5.97269 14.6729C5.98966 14.6729 6.00819 14.6714 6.02517 14.6698L10.707 14.0285C10.8984 14.0025 11.0404 13.8398 11.0404 13.6481C11.0404 13.4563 10.8969 13.2937 10.7055 13.2691L6.02362 12.6463C5.91249 12.6325 5.80135 12.6647 5.718 12.7383C5.63465 12.812 5.5868 12.9163 5.5868 13.0268V14.2909C5.5868 14.3998 5.63619 14.5041 5.71954 14.5778ZM6.35856 13.464L7.78633 13.6542L6.35856 13.8491V13.464Z" fill="black"/>
<path d="M23.3468 6.73656C23.4255 6.78105 23.5151 6.8056 23.6046 6.8056C23.7883 6.8056 23.9596 6.70741 24.0522 6.5494L25.409 4.2144C25.551 3.96894 25.4661 3.65445 25.2191 3.51329C25.1404 3.4688 25.0509 3.44425 24.9614 3.44425C24.7777 3.44425 24.6064 3.54244 24.5137 3.70045L23.157 6.03545C23.0149 6.28091 23.0998 6.5954 23.3468 6.73656Z" fill="black"/>
<path d="M16.6138 5.57667C16.674 5.80066 16.8793 5.95714 17.1124 5.95714C17.1571 5.95714 17.2019 5.95101 17.2466 5.94027C17.3794 5.90498 17.4905 5.8206 17.56 5.70094C17.6294 5.58281 17.648 5.4432 17.6109 5.31127L16.9086 2.70626C16.8484 2.48227 16.6431 2.32579 16.41 2.32579C16.3653 2.32579 16.3205 2.33193 16.2757 2.34267C16.143 2.37795 16.0319 2.46233 15.9624 2.582C15.8929 2.70013 15.8744 2.83973 15.9115 2.97166L16.6138 5.57667Z" fill="black"/>
<path d="M14.6025 6.5494C14.6951 6.70742 14.8665 6.8056 15.0502 6.8056C15.1412 6.8056 15.2292 6.78105 15.3079 6.73656C15.5549 6.59542 15.6398 6.28092 15.4963 6.03545L14.1395 3.70045C14.0469 3.54244 13.8755 3.44425 13.6918 3.44425C13.6023 3.44425 13.5128 3.4688 13.4341 3.51329C13.1871 3.65443 13.1022 3.96894 13.2458 4.2144L14.6025 6.5494Z" fill="black"/>
<path d="M12.1759 8.96083L9.82664 7.61231C9.74792 7.56782 9.65839 7.54327 9.56887 7.54327C9.38519 7.54327 9.21386 7.64145 9.12123 7.79947C8.97922 8.04494 9.06412 8.35943 9.30954 8.50059L11.6588 9.84911C11.7376 9.8936 11.8271 9.91814 11.9166 9.91814C12.1003 9.91814 12.2716 9.81996 12.3642 9.66194C12.4337 9.54381 12.4522 9.4042 12.4152 9.27227C12.3812 9.14034 12.2963 9.02987 12.1759 8.96083Z" fill="black"/>
<path d="M8.30945 11.2532L10.9304 11.9512C10.9736 11.9635 11.0184 11.9681 11.0631 11.9681C11.2962 11.9681 11.5015 11.8116 11.5617 11.5876C11.5972 11.4557 11.5787 11.3176 11.5108 11.1979C11.4413 11.0798 11.3302 10.9939 11.1974 10.9586L8.57649 10.2606C8.53328 10.2483 8.48851 10.2437 8.44221 10.2437C8.20913 10.2437 8.00386 10.4002 7.94363 10.6242C7.90813 10.7561 7.92665 10.8942 7.99457 11.0138C8.06557 11.1335 8.1767 11.2179 8.30945 11.2532Z" fill="black"/>
<path d="M30.3452 11.2532C30.478 11.2179 30.5891 11.1335 30.6586 11.0138C30.728 10.8957 30.7465 10.7561 30.7095 10.6242C30.6493 10.4002 30.444 10.2437 30.2109 10.2437C30.1662 10.2437 30.1214 10.2498 30.0766 10.2606L27.4557 10.9586C27.1809 11.0323 27.0173 11.3145 27.0914 11.5876C27.1516 11.8116 27.3569 11.9681 27.59 11.9681C27.6348 11.9681 27.6795 11.962 27.7243 11.9512L30.3452 11.2532Z" fill="black"/>
<path d="M21.4079 5.93875C21.4511 5.95102 21.4959 5.95562 21.5422 5.95562C21.7753 5.95562 21.9805 5.79914 22.0408 5.57515L22.7431 2.97014C22.8172 2.69706 22.6536 2.41477 22.3773 2.34113C22.3341 2.32886 22.2893 2.32425 22.243 2.32425C22.0099 2.32425 21.8046 2.48074 21.7444 2.70472L21.0421 5.30973C20.9696 5.58435 21.1332 5.86511 21.4079 5.93875Z" fill="black"/>
<path d="M52.2979 6.93912H50.2371C50.1783 6.60321 50.0699 6.30563 49.912 6.0464C49.754 5.78351 49.5575 5.56079 49.3224 5.37823C49.0873 5.19567 48.8191 5.05875 48.5179 4.96747C48.2203 4.87253 47.8989 4.82507 47.5536 4.82507C46.9401 4.82507 46.3964 4.97842 45.9225 5.28512C45.4486 5.58817 45.0776 6.03362 44.8094 6.62146C44.5412 7.20565 44.4072 7.91947 44.4072 8.76289C44.4072 9.62093 44.5412 10.3439 44.8094 10.9317C45.0812 11.5159 45.4523 11.9577 45.9225 12.2571C46.3964 12.5528 46.9382 12.7007 47.548 12.7007C47.886 12.7007 48.2019 12.6569 48.4958 12.5693C48.7934 12.478 49.0597 12.3447 49.2948 12.1695C49.5336 11.9942 49.7338 11.7788 49.8954 11.5232C50.0608 11.2676 50.1746 10.9755 50.2371 10.6469L52.2979 10.6579C52.2208 11.1909 52.0537 11.6912 51.7965 12.1585C51.543 12.6259 51.2106 13.0385 50.7991 13.3963C50.3877 13.7504 49.9065 14.0279 49.3554 14.2287C48.8044 14.4259 48.1927 14.5245 47.5205 14.5245C46.5286 14.5245 45.6433 14.2963 44.8645 13.8399C44.0857 13.3835 43.4722 12.7245 43.0241 11.8628C42.5759 11.0011 42.3518 9.96779 42.3518 8.76289C42.3518 7.55434 42.5777 6.52105 43.0296 5.66302C43.4814 4.80134 44.0967 4.14229 44.8755 3.68589C45.6543 3.22949 46.536 3.00129 47.5205 3.00129C48.1487 3.00129 48.7328 3.08892 49.2728 3.26418C49.8128 3.43944 50.294 3.69685 50.7165 4.03641C51.1389 4.37232 51.4861 4.7849 51.7579 5.27417C52.0334 5.75978 52.2135 6.31476 52.2979 6.93912Z" fill="black"/>
<path d="M64.254 8.76289C64.254 9.97144 64.0262 11.0066 63.5707 11.8682C63.1189 12.7263 62.5017 13.3835 61.7192 13.8399C60.9404 14.2963 60.057 14.5245 59.0688 14.5245C58.0806 14.5245 57.1953 14.2963 56.4128 13.8399C55.634 13.3798 55.0168 12.7208 54.5613 11.8628C54.1095 11.0011 53.8835 9.96779 53.8835 8.76289C53.8835 7.55434 54.1095 6.52105 54.5613 5.66302C55.0168 4.80134 55.634 4.14229 56.4128 3.68589C57.1953 3.22949 58.0806 3.00129 59.0688 3.00129C60.057 3.00129 60.9404 3.22949 61.7192 3.68589C62.5017 4.14229 63.1189 4.80134 63.5707 5.66302C64.0262 6.52105 64.254 7.55434 64.254 8.76289ZM62.1986 8.76289C62.1986 7.91216 62.0645 7.1947 61.7964 6.61051C61.5319 6.02266 61.1645 5.57904 60.6943 5.27964C60.2241 4.97659 59.6822 4.82507 59.0688 4.82507C58.4553 4.82507 57.9134 4.97659 57.4432 5.27964C56.973 5.57904 56.6038 6.02266 56.3356 6.61051C56.0711 7.1947 55.9389 7.91216 55.9389 8.76289C55.9389 9.61362 56.0711 10.3329 56.3356 10.9208C56.6038 11.5049 56.973 11.9486 57.4432 12.2516C57.9134 12.551 58.4553 12.7007 59.0688 12.7007C59.6822 12.7007 60.2241 12.551 60.6943 12.2516C61.1645 11.9486 61.5319 11.5049 61.7964 10.9208C62.0645 10.3329 62.1986 9.61362 62.1986 8.76289Z" fill="black"/>
<path d="M75.4606 3.15464V14.3711H73.6422L68.3247 6.731H68.2311V14.3711H66.1867V3.15464H68.0162L73.3281 10.8003H73.4273V3.15464H75.4606Z" fill="black"/>
<path d="M77.6882 14.3711V3.15464H85.0279V4.85793H79.7325V7.90303H84.6477V9.60632H79.7325V12.6679H85.072V14.3711H77.6882Z" fill="black"/>
<path d="M93.2466 6.23809C93.1952 5.75978 92.9784 5.38735 92.5964 5.12082C92.218 4.85428 91.7257 4.72101 91.1196 4.72101C90.6935 4.72101 90.328 4.7849 90.023 4.9127C89.7181 5.04049 89.4849 5.21392 89.3232 5.43299C89.1616 5.65207 89.0789 5.90217 89.0753 6.18332C89.0753 6.41699 89.1285 6.61964 89.2351 6.79124C89.3453 6.96285 89.4941 7.1089 89.6814 7.22939C89.8688 7.34623 90.0763 7.44481 90.3041 7.52514C90.5318 7.60546 90.7614 7.67301 90.9929 7.72778L92.0508 7.99066C92.477 8.08925 92.8866 8.22252 93.2797 8.39047C93.6764 8.55843 94.0309 8.7702 94.3431 9.02578C94.6591 9.28136 94.9089 9.58989 95.0926 9.95136C95.2762 10.3128 95.3681 10.7364 95.3681 11.222C95.3681 11.8792 95.1991 12.4579 94.8611 12.9581C94.5232 13.4547 94.0346 13.8435 93.3954 14.1247C92.7598 14.4022 91.9902 14.5409 91.0865 14.5409C90.2086 14.5409 89.4463 14.4058 88.7998 14.1356C88.1569 13.8655 87.6536 13.4711 87.2899 12.9527C86.9299 12.4342 86.7352 11.8025 86.7058 11.0577H88.7171C88.7465 11.4484 88.8677 11.7733 89.0808 12.0325C89.2938 12.2918 89.5712 12.4853 89.9128 12.6131C90.2582 12.7409 90.6439 12.8048 91.07 12.8048C91.5145 12.8048 91.9039 12.7391 92.2382 12.6076C92.5762 12.4725 92.8407 12.2863 93.0317 12.049C93.2227 11.808 93.3201 11.5269 93.3237 11.2056C93.3201 10.9135 93.2337 10.6725 93.0647 10.4826C92.8958 10.2891 92.6588 10.1284 92.3539 10.0007C92.0527 9.86921 91.7 9.75237 91.2959 9.65014L90.012 9.32153C89.0826 9.0842 88.3479 8.72456 87.8079 8.2426C87.2716 7.75699 87.0034 7.11255 87.0034 6.30928C87.0034 5.64841 87.1834 5.0697 87.5434 4.57313C87.9071 4.07657 88.4012 3.69137 89.0257 3.41753C89.6502 3.14004 90.3573 3.00129 91.1472 3.00129C91.948 3.00129 92.6496 3.14004 93.2521 3.41753C93.8582 3.69137 94.334 4.07292 94.6793 4.56218C95.0246 5.04779 95.2028 5.60643 95.2138 6.23809H93.2466Z" fill="black"/>
<path d="M101.325 14.4757C100.834 14.4757 100.412 14.3874 100.059 14.2108C99.7062 14.0342 99.4339 13.7961 99.2422 13.4964C99.0529 13.1943 98.9582 12.8539 98.9582 12.4752C98.9582 12.1894 99.0166 11.9361 99.1335 11.7154C99.2527 11.4947 99.4164 11.2902 99.6244 11.102C99.8348 10.9138 100.078 10.7267 100.354 10.5409L101.627 9.68001C101.814 9.55919 101.955 9.4314 102.051 9.29663C102.149 9.16187 102.198 9.00387 102.198 8.82264C102.198 8.66929 102.133 8.52407 102.002 8.38699C101.873 8.2499 101.696 8.18136 101.469 8.18136C101.317 8.18136 101.183 8.21737 101.066 8.2894C100.951 8.3591 100.861 8.45088 100.796 8.56473C100.732 8.67858 100.701 8.79941 100.701 8.9272C100.701 9.08287 100.744 9.24087 100.831 9.40119C100.92 9.56151 101.034 9.72764 101.174 9.89958C101.317 10.0715 101.469 10.2539 101.63 10.4468L105 14.3711H103.625L100.827 11.1856C100.619 10.944 100.418 10.7058 100.224 10.4712C100.032 10.2365 99.8746 9.99252 99.7507 9.73926C99.6291 9.48367 99.5683 9.20718 99.5683 8.90977C99.5683 8.57287 99.6466 8.27197 99.8033 8.00709C99.9599 7.73989 100.178 7.52962 100.459 7.37627C100.742 7.22292 101.073 7.14624 101.451 7.14624C101.83 7.14624 102.155 7.22059 102.426 7.36929C102.697 7.518 102.907 7.7155 103.054 7.96179C103.201 8.20808 103.275 8.47644 103.275 8.76688C103.275 9.10378 103.191 9.40584 103.022 9.67304C102.854 9.93792 102.62 10.1784 102.321 10.3945L100.869 11.4505C100.631 11.6225 100.46 11.7967 100.357 11.9733C100.254 12.1476 100.203 12.2963 100.203 12.4194C100.203 12.6076 100.251 12.7784 100.347 12.9317C100.443 13.0851 100.577 13.2082 100.75 13.3012C100.925 13.3918 101.13 13.4371 101.364 13.4371C101.621 13.4371 101.874 13.3802 102.125 13.2663C102.375 13.1501 102.603 12.9852 102.808 12.7714C103.014 12.5577 103.178 12.3021 103.299 12.0047C103.421 11.7049 103.482 11.3727 103.482 11.0079H104.572C104.572 11.4586 104.522 11.8513 104.421 12.1859C104.321 12.5182 104.191 12.7993 104.032 13.0293C103.873 13.257 103.705 13.4394 103.527 13.5765C103.471 13.616 103.417 13.6555 103.366 13.695C103.315 13.7345 103.261 13.774 103.205 13.8135C102.952 14.0412 102.656 14.2085 102.317 14.3154C101.981 14.4223 101.65 14.4757 101.325 14.4757Z" fill="black"/>
<path d="M49.1254 23.0628C49.0739 22.5845 48.8572 22.2121 48.4752 21.9456C48.0968 21.679 47.6045 21.5458 46.9984 21.5458C46.5723 21.5458 46.2067 21.6097 45.9018 21.7375C45.5969 21.8652 45.3637 22.0387 45.202 22.2578C45.0404 22.4768 44.9577 22.7269 44.9541 23.0081C44.9541 23.2418 45.0073 23.4444 45.1139 23.616C45.2241 23.7876 45.3728 23.9337 45.5602 24.0541C45.7475 24.171 45.9551 24.2696 46.1829 24.3499C46.4106 24.4302 46.6402 24.4978 46.8716 24.5525L47.9296 24.8154C48.3558 24.914 48.7654 25.0473 49.1584 25.2152C49.5552 25.3832 49.9097 25.595 50.2219 25.8505C50.5379 26.1061 50.7877 26.4146 50.9713 26.7761C51.155 27.1376 51.2469 27.5611 51.2469 28.0467C51.2469 28.704 51.0779 29.2827 50.7399 29.7829C50.4019 30.2794 49.9134 30.6683 49.2742 30.9494C48.6386 31.2269 47.869 31.3657 46.9653 31.3657C46.0873 31.3657 45.3251 31.2306 44.6785 30.9604C44.0357 30.6902 43.5324 30.2959 43.1687 29.7774C42.8087 29.2589 42.614 28.6273 42.5846 27.8824H44.5959C44.6253 28.2731 44.7465 28.5981 44.9596 28.8573C45.1726 29.1165 45.45 29.3101 45.7916 29.4378C46.1369 29.5656 46.5227 29.6295 46.9488 29.6295C47.3933 29.6295 47.7827 29.5638 48.117 29.4324C48.4549 29.2973 48.7194 29.1111 48.9105 28.8737C49.1015 28.6328 49.1988 28.3516 49.2025 28.0303C49.1988 27.7382 49.1125 27.4972 48.9435 27.3074C48.7745 27.1139 48.5376 26.9532 48.2327 26.8254C47.9315 26.694 47.5788 26.5771 47.1747 26.4749L45.8908 26.1463C44.9614 25.909 44.2267 25.5493 43.6867 25.0674C43.1503 24.5817 42.8822 23.9373 42.8822 23.134C42.8822 22.4732 43.0622 21.8945 43.4222 21.3979C43.7859 20.9013 44.28 20.5161 44.9045 20.2423C45.529 19.9648 46.2361 19.826 47.0259 19.826C47.8268 19.826 48.5284 19.9648 49.1309 20.2423C49.737 20.5161 50.2127 20.8977 50.5581 21.3869C50.9034 21.8725 51.0815 22.4312 51.0926 23.0628H49.1254Z" fill="black"/>
<path d="M52.5735 21.6827V19.9794H61.5773V21.6827H58.0893V31.1959H56.0615V21.6827H52.5735Z" fill="black"/>
<path d="M72.8969 25.5876C72.8969 26.7962 72.6692 27.8313 72.2137 28.693C71.7618 29.551 71.1447 30.2083 70.3622 30.6647C69.5834 31.1211 68.6999 31.3493 67.7117 31.3493C66.7235 31.3493 65.8382 31.1211 65.0557 30.6647C64.2769 30.2046 63.6598 29.5456 63.2043 28.6875C62.7524 27.8258 62.5265 26.7925 62.5265 25.5876C62.5265 24.3791 62.7524 23.3458 63.2043 22.4878C63.6598 21.6261 64.2769 20.967 65.0557 20.5106C65.8382 20.0542 66.7235 19.826 67.7117 19.826C68.6999 19.826 69.5834 20.0542 70.3622 20.5106C71.1447 20.967 71.7618 21.6261 72.2137 22.4878C72.6692 23.3458 72.8969 24.3791 72.8969 25.5876ZM70.8416 25.5876C70.8416 24.7369 70.7075 24.0195 70.4393 23.4353C70.1748 22.8474 69.8075 22.4038 69.3373 22.1044C68.8671 21.8013 68.3252 21.6498 67.7117 21.6498C67.0982 21.6498 66.5564 21.8013 66.0862 22.1044C65.616 22.4038 65.2468 22.8474 64.9786 23.4353C64.7141 24.0195 64.5819 24.7369 64.5819 25.5876C64.5819 26.4384 64.7141 27.1577 64.9786 27.7455C65.2468 28.3297 65.616 28.7733 66.0862 29.0764C66.5564 29.3758 67.0982 29.5255 67.7117 29.5255C68.3252 29.5255 68.8671 29.3758 69.3373 29.0764C69.8075 28.7733 70.1748 28.3297 70.4393 27.7455C70.7075 27.1577 70.8416 26.4384 70.8416 25.5876Z" fill="black"/>
<path d="M84.1036 19.9794V31.1959H82.2852L76.9677 23.5558H76.874V31.1959H74.8297V19.9794H76.6591L81.9711 27.625H82.0703V19.9794H84.1036Z" fill="black"/>
<path d="M86.3311 31.1959V19.9794H93.6709V21.6827H88.3755V24.7278H93.2907V26.4311H88.3755V29.4926H93.715V31.1959H86.3311Z" fill="black"/>
<path d="M101.89 23.0628C101.838 22.5845 101.621 22.2121 101.239 21.9456C100.861 21.679 100.369 21.5458 99.7626 21.5458C99.3364 21.5458 98.9709 21.6097 98.666 21.7375C98.3611 21.8652 98.1278 22.0387 97.9662 22.2578C97.8046 22.4768 97.7219 22.7269 97.7182 23.0081C97.7182 23.2418 97.7715 23.4444 97.878 23.616C97.9882 23.7876 98.137 23.9337 98.3244 24.0541C98.5117 24.171 98.7193 24.2696 98.947 24.3499C99.1748 24.4302 99.4044 24.4978 99.6358 24.5525L100.694 24.8154C101.12 24.914 101.53 25.0473 101.923 25.2152C102.319 25.3832 102.674 25.595 102.986 25.8505C103.302 26.1061 103.552 26.4146 103.736 26.7761C103.919 27.1376 104.011 27.5611 104.011 28.0467C104.011 28.704 103.842 29.2827 103.504 29.7829C103.166 30.2794 102.678 30.6683 102.038 30.9494C101.403 31.2269 100.633 31.3657 99.7295 31.3657C98.8515 31.3657 98.0893 31.2306 97.4427 30.9604C96.7998 30.6902 96.2966 30.2959 95.9329 29.7774C95.5729 29.2589 95.3782 28.6273 95.3488 27.8824H97.3601C97.3894 28.2731 97.5107 28.5981 97.7237 28.8573C97.9368 29.1165 98.2142 29.3101 98.5558 29.4378C98.9011 29.5656 99.2868 29.6295 99.713 29.6295C100.157 29.6295 100.547 29.5638 100.881 29.4324C101.219 29.2973 101.484 29.1111 101.675 28.8737C101.866 28.6328 101.963 28.3516 101.967 28.0303C101.963 27.7382 101.877 27.4972 101.708 27.3074C101.539 27.1139 101.302 26.9532 100.997 26.8254C100.696 26.694 100.343 26.5771 99.9389 26.4749L98.655 26.1463C97.7256 25.909 96.9909 25.5493 96.4508 25.0674C95.9145 24.5817 95.6463 23.9373 95.6463 23.134C95.6463 22.4732 95.8263 21.8945 96.1864 21.3979C96.55 20.9013 97.0441 20.5161 97.6686 20.2423C98.2931 19.9648 99.0003 19.826 99.7901 19.826C100.591 19.826 101.293 19.9648 101.895 20.2423C102.501 20.5161 102.977 20.8977 103.322 21.3869C103.668 21.8725 103.846 22.4312 103.857 23.0628H101.89Z" fill="black"/>
</svg>
