<svg width="169" height="169" viewBox="0 0 169 169" fill="none" xmlns="http://www.w3.org/2000/svg">
<path d="M128.51 56.4066C127.958 54.6621 126.446 53.2449 124.464 52.6237C122.985 52.1596 121.276 52.1183 119.248 52.499C115.785 53.1539 113.015 54.7858 110.575 56.602C109.956 54.8265 108.67 53.4703 106.889 52.7704C105.116 52.0758 102.99 52.0107 100.387 52.5697C98.8877 52.8944 97.5525 53.3488 96.3344 53.9522L96.5366 53.6404C96.9525 53.0016 96.7698 52.1437 96.1272 51.7299C95.7134 51.4637 95.1847 51.4366 94.7466 51.6603C94.5333 51.7691 94.3497 51.9371 94.2167 52.1394L90.2682 58.2312C90.2117 58.3202 90.1666 58.4132 90.1322 58.5093C88.7595 57.8097 87.3008 57.2602 85.7814 56.8815C80.9188 55.6585 75.7752 56.2389 71.3019 58.5223C66.8764 60.7813 63.4054 64.5567 61.5318 69.1532C59.6803 73.7016 59.4951 78.7629 61.011 83.405C61.3426 84.4273 61.7649 85.436 62.2606 86.4072C62.4127 86.7051 62.574 87.0032 62.7407 87.2936C62.5179 87.5651 62.2982 87.8441 62.0774 88.1195C61.3148 88.3602 60.5731 88.6695 59.8776 89.043C58.1674 89.9626 56.6584 91.3029 55.5078 92.9198C55.1061 93.4863 54.8332 94.0061 54.6189 94.4217C54.2573 95.1211 54.1131 95.3567 53.8113 95.4831C53.6199 95.5625 53.3447 95.6053 53.0036 95.6175C49.1164 95.7332 46.1102 96.3308 43.1415 98.9359C40.6973 101.079 39.3697 104.283 39.8352 106.912C40.0599 108.179 40.776 109.836 42.8226 110.984C42.1654 112.34 42.003 113.939 42.4123 115.395C42.9089 117.149 44.1166 118.662 45.8134 119.66C47.3968 120.59 49.2474 121 51.0322 120.845C51.1487 128.65 53.0478 136.386 56.7024 143.545C56.9615 144.053 57.5836 144.254 58.0913 143.995L87.5615 128.952C88.0692 128.693 88.2708 128.071 88.0117 127.563C87.9384 127.419 87.8692 127.274 87.7993 127.129C87.6452 126.799 87.5 126.47 87.3645 126.131C87.0811 125.423 86.8499 124.697 86.6705 123.963C86.2036 122.049 86.0873 120.059 86.3208 118.099C88.9367 121.916 93.6623 124.378 98.512 124.276C99.1547 124.263 99.8005 124.202 100.424 124.097C101.861 123.86 103.272 123.39 104.615 122.705C108.166 120.893 110.964 117.734 112.365 114.038C115.294 116.869 119.85 117.919 123.704 116.466C124.043 116.34 124.384 116.189 124.707 116.024C128.129 114.277 130.449 110.556 130.634 106.775C133.468 107.559 136.617 107.241 139.332 105.855C140.381 105.32 141.321 104.645 142.136 103.844C145.48 100.546 146.546 95.2208 144.729 90.8899C143.841 88.7786 142.016 86.9283 139.929 86.3655C141.323 84.0726 141.294 80.8461 139.692 78.524C137.809 75.7894 134.058 74.3374 130.359 74.9038C129.783 74.9934 129.203 75.1278 128.63 75.3042C129.729 73.278 130.948 70.1147 130.106 67.0756C129.63 65.3617 128.251 63.7606 126.539 63.1413C127.878 61.5118 129.341 59.0261 128.51 56.4084L128.51 56.4066ZM111.398 60.7403L111.869 61.6637L108.228 62.9334L111.398 60.7403ZM64.1008 85.4677C63.6538 84.5919 63.2771 83.6809 62.9757 82.7634C60.1058 73.9892 64.0008 64.5674 72.2417 60.3608C80.4676 56.1618 90.6698 58.6798 95.9744 66.2158C96.4813 66.9359 96.9477 67.7042 97.3512 68.4946C97.3793 68.5497 97.4017 68.6032 97.4301 68.6587C91.0922 69.3062 84.9801 71.1137 79.2301 74.0488C73.4542 76.9971 68.3811 80.922 64.1832 85.6157C64.1551 85.5607 64.1266 85.5145 64.1022 85.4668L64.1008 85.4677ZM46.8654 117.875C45.9909 117.361 44.8565 116.419 44.4072 114.831C44.0571 113.591 44.3334 112.188 45.1246 111.177C45.3276 110.921 45.3949 110.58 45.3092 110.267C45.2217 109.95 44.9906 109.697 44.6846 109.579C43.0686 108.957 42.122 107.938 41.8738 106.553C41.5326 104.64 42.6164 102.148 44.5073 100.492C47.0212 98.286 49.5519 97.792 53.0699 97.6886C53.6683 97.6709 54.1681 97.5778 54.593 97.4026C55.6273 96.9765 56.0475 96.1637 56.4549 95.3808C56.6603 94.9839 56.8732 94.5739 57.1909 94.1239C57.8317 93.2262 58.6012 92.4351 59.4619 91.7773C56.9886 95.5717 55.0043 99.7147 53.5711 104.138C52.0152 108.939 51.1805 113.863 51.0475 118.772C49.6413 118.924 48.1166 118.608 46.8656 117.874L46.8654 117.875ZM80.1654 75.885C92.5222 69.5774 107.068 68.7466 120.074 73.6039C122.153 74.3792 124.187 75.3022 126.145 76.3481C125.087 76.9112 124.044 77.6197 123.032 78.4705C122.269 76.9398 120.612 75.866 118.959 75.597C116.792 75.2418 114.661 75.9632 112.831 76.6661C111.92 77.0154 110.73 77.4925 109.593 78.0727C108.74 78.5083 107.986 78.9673 107.311 79.4605C105.129 79.2108 102.912 79.1369 100.726 79.2421C94.9277 79.5215 89.3483 81.0108 84.1357 83.6717C64.3772 93.7575 56.3239 117.819 65.8614 137.713L58.0824 141.679C46.3542 117.494 56.1155 88.1611 80.1647 75.885L80.1654 75.885ZM85.0759 85.505C90.0237 82.9794 95.3247 81.5627 100.826 81.3006C102.301 81.2292 103.788 81.2447 105.269 81.3466C104.005 82.8497 103.258 84.6033 103.141 86.3371C100.764 86.1036 98.2779 86.5842 96.0187 87.7375C93.3661 89.0915 91.2785 91.242 90.1393 93.7902C90.0489 93.9941 89.967 94.1979 89.8878 94.4059C89.8103 94.427 89.7349 94.4514 89.6614 94.4889C88.2454 95.2117 86.8816 96.0564 85.613 96.996C80.2134 100.991 76.3734 106.804 74.7961 113.369C73.2843 119.673 73.9601 126.312 76.6947 132.178L67.7036 136.767C58.6834 117.888 66.3326 95.0714 85.0755 85.504L85.0759 85.505ZM85.7266 127.568L78.5346 131.24C73.2213 119.776 76.6173 106.217 86.8436 98.6592C87.6016 98.1004 88.3933 97.5803 89.2117 97.1024C89.0625 98.2359 89.0702 99.4051 89.2315 100.584C84.943 103.766 83.0881 109.944 84.8155 115.1C83.9651 118.158 83.9149 121.393 84.6645 124.461C84.9248 125.515 85.2803 126.558 85.7264 127.568L85.7266 127.568ZM137.995 79.7038C139.332 81.6416 139.126 84.5618 137.537 86.0915C137.363 86.2589 137.168 86.4141 136.955 86.551C136.514 86.8319 136.351 87.3927 136.575 87.8675C136.797 88.3384 137.342 88.5702 137.836 88.4021C139.788 87.7483 141.947 89.6057 142.828 91.6965C144.304 95.2141 143.405 99.703 140.692 102.382C140.032 103.034 139.261 103.586 138.4 104.025C135.74 105.383 132.592 105.51 129.976 104.365C129.637 104.218 129.246 104.26 128.946 104.482C128.65 104.702 128.493 105.066 128.534 105.43C128.938 108.892 126.935 112.581 123.775 114.194C123.518 114.325 123.249 114.444 122.98 114.544C119.426 115.885 114.948 114.489 112.788 111.367C112.556 111.03 112.152 110.866 111.75 110.941C111.652 110.959 111.558 110.992 111.47 111.038C111.205 111.173 111.005 111.418 110.934 111.714C109.993 115.612 107.28 119.038 103.678 120.876C102.523 121.466 101.319 121.867 100.086 122.07C99.5566 122.159 99.0159 122.208 98.4694 122.218C93.6417 122.317 88.9725 119.484 87.1106 115.32C85.0251 110.652 86.7333 104.642 90.9154 101.923C91.2662 101.693 91.4438 101.278 91.3683 100.867C90.9587 98.7109 91.1936 96.4998 92.024 94.6381C92.9724 92.5168 94.7232 90.7236 96.9566 89.5835C99.2042 88.4362 101.704 88.0737 103.99 88.5625C104.317 88.6316 104.66 88.54 104.906 88.3128C105.151 88.0857 105.274 87.7535 105.229 87.4199C104.989 85.5767 105.902 83.4593 107.605 81.8897C108.392 81.1684 109.351 80.5212 110.535 79.9167C111.576 79.3852 112.655 78.9548 113.574 78.6018C115.222 77.9691 116.966 77.3709 118.625 77.6414C120.007 77.8682 121.45 79.0234 121.395 80.3782C121.378 80.7997 121.622 81.1947 122.009 81.3633C122.398 81.5358 122.852 81.4521 123.151 81.156C125.549 78.7958 128.134 77.3463 130.671 76.9558C133.606 76.5007 136.548 77.6048 137.996 79.7041L137.995 79.7038ZM126.542 57.0305C127.08 58.7309 126.131 60.7692 123.636 63.2577C123.31 63.5818 123.241 64.0813 123.46 64.4835C123.68 64.8862 124.139 65.0965 124.589 64.9969C126.14 64.6553 127.695 66.1107 128.115 67.6348C128.775 70.0162 127.728 72.6457 126.797 74.3551C124.859 73.3369 122.848 72.4339 120.797 71.6676C114.151 69.1848 107.198 68.1009 100.139 68.4486C99.968 68.4576 99.7982 68.47 99.6318 68.4806C99.4906 68.168 99.346 67.857 99.19 67.5513C98.7412 66.6722 98.2281 65.8209 97.6617 65.0203C96.2746 63.0481 94.5575 61.3552 92.6083 59.9902C93.2635 59.039 93.9036 58.23 94.037 58.0827C95.8601 56.3035 98.0138 55.19 100.821 54.5831C103.009 54.1102 104.748 54.1456 106.132 54.6865C107.728 55.3141 108.707 56.6691 108.891 58.5091C108.929 58.8835 109.17 59.2103 109.515 59.359C109.568 59.3825 109.622 59.3967 109.68 59.4092L100.794 65.5496C100.37 65.8447 100.225 66.4059 100.46 66.8659C100.694 67.326 101.232 67.5432 101.72 67.3727L113.663 63.2149C113.707 63.2015 113.751 63.1789 113.791 63.1583C114.012 63.0457 114.184 62.8558 114.278 62.6221C114.388 62.3479 114.376 62.0337 114.241 61.7689L112.694 58.7376C112.559 58.4728 112.315 58.2768 112.028 58.2054C111.986 58.1945 111.94 58.1856 111.895 58.1806C114.112 56.5437 116.602 55.0919 119.629 54.5159C121.316 54.1971 122.695 54.2169 123.843 54.5771C125.162 55.0078 126.194 55.941 126.542 57.0298L126.542 57.0305Z" fill="black"/>
<path d="M69.3505 56.8895C69.6456 57.3139 70.2087 57.4529 70.6683 57.2183C71.1283 56.9835 71.3435 56.4423 71.1696 55.9561L66.9675 44.036C66.8711 43.7557 66.6529 43.5289 66.3753 43.4203C66.0972 43.3119 65.7888 43.3257 65.524 43.4609L62.4927 45.0082C62.2279 45.1434 62.0319 45.387 61.9625 45.6777C61.8872 45.9665 61.9474 46.2745 62.1171 46.5168L69.3505 56.8895ZM65.4103 45.8372L66.6912 49.4727L64.4869 46.3086L65.4103 45.8372Z" fill="black"/>
<path d="M46.0243 68.597L58.4724 70.8171C58.7018 70.8578 58.9288 70.8204 59.1235 70.721L59.1274 70.719C59.6352 70.4599 59.8368 69.8378 59.5776 69.3301C59.4573 69.0945 59.2584 68.9224 59.0284 68.836L47.7007 63.4146C47.4315 63.2875 47.1215 63.2789 46.8473 63.3956C46.573 63.5122 46.3662 63.743 46.2742 64.0268L45.2261 67.2606C45.1343 67.5437 45.1685 67.8558 45.3217 68.1114C45.4753 68.3668 45.7335 68.5456 46.024 68.5967L46.0243 68.597ZM47.8737 65.7888L51.3512 67.4501L47.5553 66.7724L47.8737 65.7888Z" fill="black"/>
<path d="M87.5872 55.8953C87.8541 55.9818 88.1362 55.9538 88.3718 55.8335C88.567 55.7339 88.7338 55.5702 88.8354 55.3606L94.2933 43.9585C94.4203 43.6893 94.429 43.3793 94.3123 43.105C94.1956 42.8308 93.9649 42.624 93.6811 42.532L90.4472 41.4839C90.1641 41.3921 89.852 41.4263 89.5964 41.5795C89.3411 41.7331 89.1657 41.9896 89.1112 42.2819L86.891 54.7299C86.7994 55.2406 87.0954 55.7387 87.5878 55.8954L87.5872 55.8953ZM90.9333 43.8089L91.9222 44.1294L90.2609 47.6069L90.9333 43.8089Z" fill="black"/>
<path d="M49.4198 95.7449C49.6642 95.8054 49.919 95.7779 50.1395 95.6653C50.1799 95.6447 50.2222 95.6182 50.2609 95.5942L60.6337 88.3608C61.0581 88.0656 61.1971 87.5025 60.9625 87.043C60.7277 86.583 60.1865 86.3677 59.7003 86.5416L47.7801 90.7438C47.4983 90.8459 47.273 91.0585 47.1644 91.3361C47.0559 91.6142 47.0698 91.9225 47.2049 92.1873L48.7523 95.2186C48.8857 95.48 49.131 95.6696 49.4198 95.7449ZM49.5798 92.2968L53.2154 91.0159L50.0512 93.2202L49.5798 92.2968Z" fill="black"/>
<path d="M81.8339 55.4971C82.0757 55.508 82.3195 55.4578 82.5327 55.349C82.9703 55.1256 83.2585 54.6815 83.2862 54.19L83.6618 46.9402C83.6997 46.1789 83.1128 45.5281 82.3508 45.4899C82.109 45.479 81.8652 45.5291 81.652 45.638C81.2144 45.8614 80.9262 46.3055 80.8985 46.797L80.5229 54.0468C80.485 54.8081 81.0719 55.4589 81.8339 55.4971Z" fill="black"/>
<path d="M64.3667 60.9071C64.7844 61.3707 65.4652 61.4963 66.0206 61.2128C66.1272 61.1583 66.2264 61.0893 66.3198 61.0091C66.593 60.7629 66.7547 60.4257 66.7736 60.054C66.7945 59.6862 66.6678 59.3287 66.4177 59.0575L61.5555 53.6653C61.1378 53.2016 60.457 53.076 59.9016 53.3596C59.795 53.414 59.6958 53.483 59.6024 53.5632C59.3292 53.8095 59.1675 54.1467 59.1486 54.5183C59.1277 54.8861 59.2543 55.2437 59.5045 55.5149L64.3667 60.9071Z" fill="black"/>
<path d="M60.7646 65.6865C61.1785 65.9527 61.7072 65.9798 62.1453 65.7562C62.3624 65.6453 62.5421 65.4793 62.6751 65.2771C63.091 64.6383 62.9083 63.7804 62.2657 63.3666L56.1738 59.4181C55.76 59.152 55.2313 59.1249 54.7932 59.3485C54.58 59.4573 54.3963 59.6253 54.2633 59.8276C53.8475 60.4663 54.0301 61.3242 54.6728 61.7381L60.7646 65.6865Z" fill="black"/>
<path d="M57.9333 74.4224L50.6834 74.0468C50.4416 74.0358 50.1978 74.086 49.9846 74.1948C49.547 74.4182 49.2588 74.8623 49.2311 75.3539C49.1932 76.1151 49.7801 76.766 50.5382 76.8061L57.7881 77.1817C58.0299 77.1927 58.2737 77.1425 58.4869 77.0336C58.9245 76.8102 59.2127 76.3662 59.2404 75.8746C59.2613 75.5068 59.1346 75.1493 58.8845 74.8781C58.6422 74.6029 58.3045 74.4415 57.9333 74.4224Z" fill="black"/>
<path d="M51.5229 84.6223L58.6238 83.1073C58.7419 83.0838 58.8543 83.0406 58.9609 82.9862C59.5163 82.7026 59.814 82.0776 59.6835 81.4674C59.6067 81.1077 59.3934 80.7993 59.0852 80.5946C58.7751 80.3958 58.4051 80.325 58.0455 80.4018L50.9446 81.9168C50.8265 81.9403 50.7141 81.9835 50.6041 82.0397C50.0487 82.3232 49.751 82.9482 49.8815 83.5585C49.9583 83.9181 50.1716 84.2265 50.4798 84.4313C50.7956 84.6315 51.1638 84.6988 51.5234 84.622L51.5229 84.6223Z" fill="black"/>
<path d="M104.042 57.8138C104.315 57.5676 104.476 57.2304 104.495 56.8587C104.516 56.4909 104.39 56.1333 104.139 55.8621C103.722 55.3985 103.041 55.2729 102.486 55.5565C102.379 55.6109 102.28 55.6799 102.186 55.7601L96.7941 60.6224C96.2295 61.1333 96.185 62.009 96.6962 62.5739C97.1138 63.0376 97.7946 63.1631 98.3501 62.8796C98.4567 62.8252 98.5559 62.7562 98.6493 62.676L104.042 57.8138Z" fill="black"/>
<path d="M76.2365 55.943C76.3546 55.9195 76.4669 55.8763 76.5769 55.8201C77.1324 55.5366 77.43 54.9116 77.2995 54.3013L75.7846 47.2005C75.6271 46.4555 74.8915 45.9774 74.1427 46.137C74.0246 46.1605 73.9123 46.2037 73.8023 46.2598C73.2469 46.5434 72.9492 47.1684 73.0797 47.7786L74.5946 54.8795C74.758 55.6264 75.4916 56.1006 76.2365 55.943Z" fill="black"/>
<path d="M13.4545 90.7863L13.7826 93.0284C13.4243 93.1461 13.1158 93.3117 12.8572 93.5251C12.5946 93.739 12.3821 93.9885 12.2197 94.2736C12.0573 94.5586 11.9501 94.8723 11.8981 95.2146C11.8416 95.5535 11.8408 95.9108 11.8958 96.2865C11.9935 96.954 12.2479 97.5209 12.6591 97.9873C13.0662 98.4543 13.6129 98.7866 14.299 98.9842C14.9812 99.1824 15.7839 99.2139 16.7071 99.0788C17.6463 98.9413 18.4163 98.6797 19.017 98.2937C19.6132 97.9044 20.0377 97.43 20.2906 96.8705C20.5388 96.3075 20.6144 95.6943 20.5174 95.0309C20.4636 94.6632 20.3653 94.3265 20.2226 94.0208C20.0753 93.7117 19.887 93.4433 19.6577 93.2156C19.4279 92.9839 19.1602 92.8006 18.8547 92.6657C18.5486 92.5268 18.2108 92.4497 17.8411 92.4344L17.525 90.1906C18.1208 90.1891 18.695 90.2908 19.2475 90.4957C19.7994 90.6966 20.3039 90.9922 20.7611 91.3825C21.2143 91.7734 21.5946 92.2525 21.9022 92.8198C22.2057 93.3877 22.411 94.0374 22.518 94.7687C22.676 95.8478 22.5671 96.8475 22.1915 97.7679C21.816 98.6883 21.1922 99.4613 20.3204 100.087C19.4486 100.713 18.3532 101.122 17.0343 101.315C15.7114 101.508 14.5444 101.428 13.5333 101.074C12.5182 100.721 11.6988 100.157 11.0752 99.3825C10.4517 98.6084 10.0615 97.6857 9.90477 96.6147C9.80476 95.9312 9.80768 95.2817 9.91354 94.6662C10.0194 94.0506 10.2245 93.4858 10.529 92.9718C10.8294 92.4584 11.2257 92.0146 11.718 91.6405C12.2057 91.263 12.7845 90.9782 13.4545 90.7863Z" fill="black"/>
<path d="M16.2073 74.4009C17.5396 74.5125 18.6598 74.8576 19.5679 75.4363C20.4724 76.0106 21.1402 76.7474 21.5716 77.6469C22.0032 78.5424 22.1737 79.5315 22.083 80.6142C21.9923 81.697 21.6595 82.6459 21.0846 83.4611C20.5059 84.272 19.7228 84.8873 18.7351 85.3072C17.7437 85.7227 16.5839 85.8749 15.2556 85.7636C13.9233 85.652 12.8049 85.3091 11.9005 84.7348C10.9924 84.1561 10.3225 83.4191 9.89083 82.5236C9.45951 81.6242 9.28919 80.633 9.37988 79.5503C9.47057 78.4676 9.80322 77.5206 10.3778 76.7094C10.9528 75.8942 11.7359 75.2789 12.7273 74.8633C13.715 74.4435 14.875 74.2893 16.2073 74.4009ZM16.0187 76.6529C15.0808 76.5744 14.2776 76.655 13.609 76.8949C12.9367 77.1305 12.4139 77.492 12.0407 77.9796C11.6635 78.4668 11.4467 79.0465 11.3904 79.7187C11.3341 80.3909 11.4514 80.9986 11.7423 81.5417C12.0292 82.0846 12.4844 82.5301 13.1078 82.8782C13.7276 83.2219 14.5064 83.4331 15.4442 83.5116C16.3821 83.5902 17.1871 83.5117 17.8594 83.2761C18.5281 83.0362 19.051 82.6727 19.4282 82.1855C19.8014 81.6979 20.0162 81.118 20.0725 80.4458C20.1288 79.7736 20.0135 79.1661 19.7266 78.6233C19.4357 78.0801 18.9803 77.6366 18.3606 77.2929C17.7372 76.9448 16.9565 76.7315 16.0187 76.6529Z" fill="black"/>
<path d="M14.5304 57.549L26.338 61.363L25.7234 63.2656L15.8835 66.2313L15.8518 66.3293L23.8946 68.9272L23.2037 71.0662L11.3961 67.2522L12.0144 65.3381L21.8582 62.38L21.8917 62.2762L13.8432 59.6765L14.5304 57.549Z" fill="black"/>
<path d="M28.0836 57.6597L17.3021 51.5176L21.2968 44.5055L22.9341 45.4382L20.0519 50.4972L22.979 52.1647L25.6541 47.4689L27.2914 48.4016L24.6162 53.0974L27.559 54.7739L30.4651 49.6727L32.1023 50.6054L28.0836 57.6597Z" fill="black"/>
<path d="M31.8983 36.4477C31.4606 36.145 30.993 36.0565 30.4954 36.1821C30.0004 36.3047 29.5353 36.6183 29.1001 37.1231C28.7942 37.478 28.5853 37.8285 28.4735 38.1747C28.3616 38.521 28.3395 38.8405 28.407 39.1333C28.4745 39.4262 28.6247 39.6757 28.8576 39.8818C29.0534 40.0506 29.2614 40.1526 29.4817 40.1879C29.7046 40.2201 29.9338 40.2017 30.1692 40.1327C30.4016 40.0611 30.6333 39.9594 30.8641 39.8278C31.0949 39.6961 31.3164 39.5537 31.5284 39.4006L32.5082 38.7094C32.8968 38.4257 33.3025 38.1809 33.7255 37.9749C34.151 37.7658 34.583 37.6236 35.0213 37.5482C35.4623 37.4697 35.9001 37.4845 36.3348 37.5927C36.7696 37.7008 37.1904 37.9303 37.5973 38.281C38.1479 38.7558 38.5115 39.3145 38.6879 39.9573C38.8614 40.5974 38.8364 41.2852 38.613 42.0206C38.3892 42.7503 37.9529 43.4914 37.3041 44.244C36.6738 44.9751 36.0133 45.5123 35.3227 45.8556C34.6348 46.1958 33.9431 46.33 33.2476 46.2584C32.5547 46.1837 31.8857 45.8895 31.2405 45.376L32.6845 43.7011C33.0329 43.9588 33.3922 44.0926 33.7624 44.1024C34.1326 44.1122 34.4938 44.021 34.8462 43.8288C35.2012 43.6336 35.5317 43.3585 35.8376 43.0036C36.1567 42.6335 36.3812 42.2617 36.5111 41.8884C36.6406 41.5094 36.6745 41.1546 36.6128 40.8241C36.548 40.4909 36.3823 40.2068 36.1157 39.9716C35.8684 39.7637 35.6045 39.6615 35.3241 39.6651C35.0406 39.666 34.7359 39.7473 34.4099 39.9089C34.0835 40.0648 33.7324 40.2741 33.3567 40.5368L32.1595 41.3686C31.2934 41.9711 30.4646 42.3232 29.6731 42.4248C28.8811 42.5206 28.1486 42.2785 27.4756 41.6982C26.9219 41.2208 26.5663 40.6529 26.4087 39.9944C26.2537 39.3329 26.2857 38.6432 26.5046 37.9253C26.7205 37.2048 27.112 36.5157 27.679 35.8579C28.254 35.191 28.874 34.7069 29.539 34.4057C30.2037 34.0987 30.8649 33.9781 31.5228 34.044C32.1775 34.1072 32.7735 34.3624 33.3107 34.8095L31.8983 36.4477Z" fill="black"/>
<path d="M50.7184 32.4827C50.0011 32.9354 49.3026 33.1947 48.623 33.2606C47.9434 33.3265 47.3245 33.2275 46.7663 32.9636C46.2094 32.6942 45.7552 32.281 45.4039 31.7242C45.1387 31.3041 44.9892 30.8779 44.9552 30.4456C44.9246 30.0111 44.974 29.5597 45.1034 29.0911C45.2363 28.6204 45.418 28.1213 45.6486 27.5936L46.7099 25.1543C46.8711 24.8043 46.9592 24.486 46.9742 24.1995C46.9927 23.9108 46.9178 23.6333 46.7497 23.3668C46.6074 23.1414 46.3771 22.9883 46.0586 22.9074C45.7435 22.8245 45.4203 22.8875 45.089 23.0966C44.867 23.2367 44.704 23.4136 44.6 23.6273C44.4973 23.8354 44.4509 24.0533 44.4609 24.281C44.4743 24.5066 44.5403 24.7133 44.6588 24.9012C44.8032 25.1301 45.013 25.3225 45.2881 25.4784C45.5667 25.6322 45.8882 25.7708 46.2527 25.8942C46.6205 26.0155 47.0118 26.1436 47.4264 26.2783L55.9912 28.9404L53.9827 30.2079L46.9385 28.105C46.4103 27.9416 45.8956 27.7769 45.3944 27.6108C44.8966 27.4426 44.4396 27.2294 44.0236 26.9713C43.6089 26.7077 43.2636 26.3572 42.9877 25.92C42.6751 25.4247 42.5104 24.9101 42.4935 24.3763C42.4745 23.839 42.5988 23.3284 42.8664 22.8442C43.1375 22.358 43.5497 21.9402 44.1031 21.591C44.6564 21.2418 45.2002 21.0515 45.7344 21.02C46.2686 20.9886 46.7576 21.086 47.2013 21.3123C47.645 21.5386 48.0015 21.8652 48.271 22.2922C48.5835 22.7875 48.7408 23.3092 48.7427 23.8572C48.7425 24.4018 48.6241 24.9709 48.3873 25.5645L47.2457 28.4556C47.0568 28.9283 46.9691 29.3418 46.9827 29.6963C46.994 30.0473 47.0569 30.3134 47.1711 30.4944C47.3457 30.7711 47.5742 30.978 47.8565 31.115C48.1388 31.2521 48.4495 31.3092 48.7885 31.2863C49.1287 31.2579 49.4696 31.1359 49.8112 30.9203C50.187 30.6832 50.5048 30.3656 50.7647 29.9676C51.0224 29.5661 51.2024 29.1134 51.3047 28.6095C51.407 28.1055 51.409 27.5789 51.3107 27.0296C51.2102 26.4768 50.9908 25.9323 50.6524 25.396L52.2459 24.3904C52.6641 25.0531 52.9549 25.6767 53.1184 26.2613C53.2798 26.8425 53.351 27.3754 53.3322 27.8602C53.3111 28.3415 53.2344 28.7649 53.102 29.1302C53.0566 29.24 53.0147 29.3477 52.9762 29.4532C52.9377 29.5587 52.8958 29.6663 52.8505 29.7761C52.6928 30.3437 52.4159 30.8623 52.0197 31.332C51.627 31.7995 51.1932 32.1831 50.7184 32.4827Z" fill="black"/>
<path d="M68.5811 14.9183C68.3872 14.4228 68.0488 14.0881 67.5658 13.9144C67.0868 13.7395 66.5259 13.7399 65.8829 13.9154C65.4309 14.0389 65.0619 14.2129 64.7757 14.4376C64.4895 14.6623 64.2926 14.915 64.185 15.1956C64.0774 15.4762 64.0626 15.767 64.1407 16.0681C64.2088 16.3175 64.3243 16.5183 64.4873 16.6706C64.6542 16.8218 64.8546 16.9346 65.0885 17.0089C65.3212 17.0793 65.5701 17.1244 65.8351 17.1442C66.1001 17.1639 66.3633 17.1695 66.6247 17.1609L67.8235 17.135C68.3043 17.1168 68.7776 17.1404 69.2434 17.2057C69.7132 17.2701 70.1509 17.3934 70.5566 17.5757C70.9662 17.7569 71.3211 18.0138 71.6212 18.3464C71.9214 18.6789 72.1423 19.1043 72.2838 19.6225C72.4753 20.3239 72.4647 20.9904 72.252 21.6222C72.0382 22.25 71.6333 22.8065 71.0373 23.2916C70.444 23.7718 69.6681 24.1428 68.7096 24.4046C67.7783 24.6589 66.9304 24.7355 66.1659 24.6345C65.4053 24.5323 64.7566 24.2573 64.2197 23.8093C63.6868 23.3603 63.2962 22.7426 63.0479 21.9562L65.1813 21.3737C65.3263 21.7821 65.5496 22.0938 65.8511 22.3087C66.1527 22.5236 66.5032 22.6498 66.9029 22.6872C67.3064 22.7236 67.7341 22.68 68.1861 22.5566C68.6576 22.4279 69.0515 22.2449 69.3677 22.0078C69.6869 21.7658 69.9131 21.4904 70.0466 21.1818C70.179 20.8693 70.2003 20.5411 70.1106 20.1972C70.0216 19.8865 69.8598 19.6543 69.6252 19.5007C69.3896 19.3431 69.0914 19.2403 68.7308 19.1922C68.3729 19.1392 67.9648 19.1167 67.5064 19.1246L66.0488 19.1458C64.9938 19.1618 64.1097 18.9908 63.3965 18.6328C62.6861 18.27 62.2139 17.6599 61.9798 16.8027C61.7872 16.0974 61.8095 15.4277 62.0466 14.7935C62.2876 14.1582 62.6995 13.604 63.2821 13.1309C63.8636 12.6539 64.5733 12.301 65.411 12.0722C66.2604 11.8403 67.0451 11.7851 67.765 11.9067C68.4877 12.0234 69.1035 12.2928 69.6124 12.7149C70.1201 13.1331 70.4719 13.6776 70.6677 14.3485L68.5811 14.9183Z" fill="black"/>
<path d="M75.6045 11.9201L75.4838 10.0397L85.3634 9.40541L85.4842 11.2858L81.6568 11.5315L82.3311 22.0339L80.106 22.1768L79.4318 11.6744L75.6045 11.9201Z" fill="black"/>
<path d="M101.823 17.4658C101.615 18.7865 101.19 19.8788 100.547 20.7427C99.9087 21.6032 99.1254 22.2161 98.1971 22.5812C97.2727 22.947 96.2739 23.0455 95.2006 22.8767C94.1272 22.7079 93.2048 22.3074 92.4333 21.675C91.6665 21.0392 91.1094 20.2136 90.762 19.1981C90.4193 18.1793 90.3515 17.0115 90.5585 15.6947C90.7662 14.374 91.1891 13.2834 91.8273 12.4229C92.4702 11.559 93.2538 10.9442 94.1781 10.5784C95.1064 10.2133 96.1073 10.1151 97.1806 10.2838C98.254 10.4526 99.1744 10.8529 99.9419 11.4846C100.713 12.117 101.27 12.9426 101.613 13.9615C101.961 14.977 102.03 16.1451 101.823 17.4658ZM99.5902 17.1148C99.7364 16.1851 99.714 15.3781 99.5231 14.6939C99.3368 14.0063 99.0141 13.4588 98.5548 13.0513C98.0961 12.6398 97.5336 12.3817 96.8672 12.2769C96.2009 12.1721 95.5863 12.2452 95.0235 12.4961C94.4613 12.743 93.9841 13.1647 93.5918 13.7613C93.2041 14.3546 92.9372 15.1161 92.791 16.0458C92.6448 16.9755 92.6648 17.7841 92.8511 18.4717C93.042 19.1559 93.3668 19.7037 93.8255 20.1152C94.2848 20.5227 94.8476 20.7789 95.5139 20.8836C96.1803 20.9884 96.7946 20.9173 97.3568 20.6705C97.9196 20.4196 98.3948 19.9975 98.7825 19.4043C99.1748 18.8076 99.444 18.0445 99.5902 17.1148Z" fill="black"/>
<path d="M118.752 17.0121L114.094 28.5129L112.241 27.7623L109.994 17.7337L109.899 17.6951L106.726 25.5288L104.643 24.685L109.301 13.1843L111.165 13.9394L113.403 23.9713L113.505 24.0123L116.68 16.1729L118.752 17.0121Z" fill="black"/>
<path d="M117.661 30.5218L124.567 20.2128L131.272 24.7042L130.223 26.2697L125.386 23.0293L123.511 25.828L128.001 28.8358L126.952 30.4013L122.462 27.3935L120.577 30.2073L125.455 33.4747L124.406 35.0402L117.661 30.5218Z" fill="black"/>
<path d="M138.542 35.8606C138.875 35.446 138.997 34.986 138.908 34.4806C138.822 33.978 138.542 33.4915 138.07 33.0209C137.739 32.6901 137.404 32.4564 137.067 32.3198C136.73 32.1833 136.412 32.1381 136.116 32.1842C135.819 32.2303 135.559 32.3621 135.336 32.5795C135.154 32.7626 135.037 32.9627 134.986 33.1798C134.938 33.3998 134.94 33.6297 134.991 33.8696C135.046 34.1066 135.131 34.3449 135.245 34.5846C135.36 34.8244 135.486 35.0555 135.623 35.2781L136.242 36.3054C136.496 36.7134 136.711 37.1358 136.886 37.5725C137.064 38.0121 137.175 38.4532 137.218 38.8958C137.264 39.3413 137.218 39.7769 137.079 40.2027C136.939 40.6285 136.68 41.0316 136.301 41.412C135.787 41.9269 135.204 42.2491 134.55 42.3786C133.899 42.5053 133.215 42.4306 132.498 42.1547C131.786 41.8787 131.078 41.3899 130.375 40.6884C129.691 40.0068 129.203 39.3092 128.911 38.5956C128.621 37.8849 128.537 37.1853 128.659 36.4968C128.784 35.8111 129.125 35.1651 129.684 34.5588L131.25 36.1201C130.968 36.449 130.809 36.7977 130.772 37.1662C130.735 37.5347 130.8 37.9016 130.966 38.2669C131.136 38.6351 131.386 38.9846 131.718 39.3154C132.064 39.6605 132.418 39.9113 132.781 40.0678C133.15 40.2244 133.501 40.2838 133.836 40.2462C134.173 40.2057 134.468 40.061 134.722 39.8121C134.947 39.5804 135.068 39.3246 135.085 39.0447C135.104 38.7619 135.045 38.4521 134.908 38.1153C134.776 37.7785 134.592 37.4132 134.358 37.0194L133.615 35.7653C133.076 34.8578 132.785 34.0057 132.741 33.2089C132.703 32.4121 132.997 31.6991 133.625 31.0698C134.141 30.5521 134.733 30.2384 135.401 30.1289C136.072 30.0222 136.758 30.104 137.458 30.3742C138.161 30.6417 138.82 31.0819 139.435 31.6951C140.059 32.3168 140.497 32.9701 140.749 33.6552C141.007 34.3403 141.079 35.0085 140.966 35.6599C140.856 36.3084 140.558 36.8844 140.073 37.3878L138.542 35.8606Z" fill="black"/>
<path d="M143.843 42.2656C150.013 50.8372 154.248 60.6471 156.253 71.0166C158.257 81.386 157.985 92.0673 155.455 102.321C152.924 112.575 148.196 122.157 141.597 130.403C134.998 138.649 126.686 145.363 117.236 150.08C107.787 154.797 97.4249 157.404 86.8681 157.721C76.3113 158.039 65.8117 156.058 56.0958 151.917C46.38 147.776 37.68 141.573 30.598 133.738C23.5159 125.903 18.221 116.623 15.0795 106.539L16.4715 106.105C19.5501 115.987 24.7392 125.082 31.6796 132.76C38.62 140.439 47.146 146.518 56.6675 150.576C66.189 154.634 76.4787 156.575 86.8243 156.264C97.17 155.953 107.325 153.398 116.585 148.775C125.846 144.153 133.992 137.573 140.459 129.492C146.926 121.411 151.559 112.021 154.039 101.972C156.519 91.923 156.786 81.4554 154.821 71.2933C152.856 61.1313 148.707 51.5175 142.66 43.1174L143.843 42.2656Z" fill="black"/>
</svg>
