<svg width="127" height="127" viewBox="0 0 127 127" fill="none" xmlns="http://www.w3.org/2000/svg">
<path d="M127 63.5C127 86.1862 114.897 107.15 95.25 118.493C75.6031 129.836 51.3969 129.836 31.75 118.493C12.1031 107.15 0 86.1862 0 63.5C0 40.8138 12.1031 19.8505 31.75 8.50734C51.3969 -2.83578 75.6031 -2.83578 95.25 8.50734C114.897 19.8505 127 40.8138 127 63.5Z" fill="white"/>
<path d="M102.666 59.2603C102.894 57.8953 102.363 56.4206 101.241 55.3205C100.404 54.4991 99.2667 53.8835 97.7701 53.4428C95.2115 52.6929 92.784 52.8397 90.5155 53.2241C90.7094 51.8153 90.3093 50.4593 89.3501 49.3753C88.3943 48.2975 86.9849 47.5228 85.0387 47.0041C83.917 46.7072 82.8613 46.5543 81.8331 46.5419L82.0766 46.4013C82.5764 46.114 82.7484 45.4732 82.4578 44.9734C82.2705 44.6518 81.9236 44.4517 81.5516 44.4517C81.3705 44.4517 81.189 44.5017 81.0298 44.5922L76.2747 47.3385C76.2061 47.379 76.1437 47.4261 76.0875 47.479C75.4033 46.5356 74.6095 45.6638 73.7162 44.8862C70.8608 42.39 67.1959 41.0122 63.397 41.0122C59.6386 41.0122 56.0019 42.3619 53.1589 44.8143C50.3473 47.2419 48.482 50.588 47.9069 54.2367C47.7788 55.0395 47.7163 55.8643 47.7163 56.689C47.7163 56.942 47.7225 57.1983 47.7349 57.4513C47.4914 57.5576 47.2475 57.67 47.004 57.7796C46.4075 57.6795 45.8014 57.6328 45.2044 57.6452C43.736 57.6766 42.2585 58.0607 40.9273 58.7544C40.4618 58.9979 40.0992 59.2542 39.8119 59.4605C39.3278 59.8073 39.1496 59.9164 38.9028 59.8978C38.7465 59.8854 38.5465 59.8197 38.3125 59.7106C35.6538 58.4517 33.4231 57.8205 30.5272 58.5547C28.1435 59.1578 26.147 60.8602 25.5567 62.7913C25.2723 63.7222 25.185 65.0844 26.169 66.562C25.2599 67.2495 24.6005 68.2709 24.3756 69.3925C24.1069 70.7452 24.4004 72.1793 25.2004 73.4352C25.947 74.6068 27.0529 75.5192 28.3088 76.0281C25.7031 81.3267 24.3223 87.1913 24.3223 93.2714C24.3223 93.7026 24.672 94.0523 25.1032 94.0523H50.1307C50.5619 94.0523 50.9116 93.7026 50.9116 93.2714C50.9116 93.1495 50.9149 93.0279 50.9178 92.906C50.9273 92.6311 50.9426 92.3594 50.9678 92.0845C51.0208 91.5095 51.1146 90.941 51.2461 90.385C51.5896 88.9352 52.1957 87.5544 53.027 86.3141C53.4768 89.7851 55.8138 93.0688 59.1161 94.6679C59.5535 94.8804 60.0095 95.0615 60.4659 95.2053C61.5156 95.5398 62.6277 95.7084 63.7683 95.7084C66.7832 95.7084 69.7544 94.543 71.9695 92.5343C72.9691 95.4493 75.6778 97.7234 78.7738 98.0703C79.0455 98.1017 79.327 98.117 79.6019 98.117C82.5073 98.117 85.3503 96.408 86.775 93.9243C88.4154 95.427 90.6457 96.2955 92.9517 96.2955C93.8422 96.2955 94.7075 96.1645 95.5322 95.9049C98.9189 94.8333 101.468 91.6121 101.734 88.0696C101.862 86.3419 101.268 84.4676 100.056 83.3708C101.784 82.3055 102.874 80.1219 102.593 78.0064C102.265 75.5165 100.237 73.2485 97.5505 72.358C97.1317 72.2203 96.6943 72.1112 96.2478 72.0331C97.6848 71.0458 99.5939 69.3339 100.072 66.9969C100.341 65.6786 99.9623 64.1258 99.0222 63.12C100.484 62.4825 102.325 61.3108 102.665 59.2616L102.666 59.2603ZM89.6472 56.2953V57.0796L86.7574 56.6827L89.6472 56.2953ZM49.2792 56.6889C49.2792 55.9452 49.3387 55.2019 49.4512 54.4801C50.5351 47.5819 56.3993 42.5739 63.3979 42.5739C70.3837 42.5739 76.391 47.7788 77.3732 54.6801C77.467 55.3395 77.517 56.0175 77.517 56.6888C77.517 56.7355 77.5137 56.7793 77.5137 56.8265C73.0212 55.0831 68.2819 54.1989 63.3987 54.1989C58.4936 54.1989 53.7261 55.0984 49.2837 56.8169C49.2837 56.7702 49.2804 56.7293 49.2804 56.6888L49.2792 56.6889ZM26.5229 72.5945C26.1103 71.9479 25.67 70.9231 25.9135 69.6986C26.1041 68.7428 26.7726 67.8929 27.6535 67.4835C27.8784 67.3806 28.0409 67.1743 28.0909 66.9337C28.1409 66.6902 28.0723 66.4401 27.9065 66.2557C27.0318 65.2809 26.7445 64.2689 27.0537 63.2503C27.4816 61.8443 29.0686 60.5383 30.912 60.0728C33.3644 59.4511 35.2392 59.9885 37.6448 61.1287C38.0541 61.3226 38.4229 61.4317 38.7693 61.4598C39.6127 61.5285 40.1753 61.1254 40.719 60.738C40.9939 60.5412 41.2783 60.3383 41.6471 60.1444C42.3875 59.7599 43.178 59.4916 43.9841 59.3444C41.0129 61.0501 38.2513 63.1589 35.7646 65.646C33.0655 68.3452 30.8095 71.3759 29.0319 74.6372C28.0322 74.256 27.1132 73.5193 26.5229 72.5945ZM63.3973 55.7576C73.8914 55.7576 83.9766 60.2001 91.0685 67.9452C92.2025 69.1825 93.2555 70.5039 94.2146 71.8817C93.3084 71.8974 92.3621 72.016 91.3873 72.2409C91.3997 70.9473 90.6531 69.6543 89.6315 68.9044C88.2941 67.92 86.6103 67.6732 85.1357 67.5174C84.4015 67.4393 83.4361 67.3516 82.4708 67.3516C81.7461 67.3516 81.0805 67.4017 80.4559 67.5017C79.0718 66.5831 77.6034 65.7708 76.0944 65.0899C72.0922 63.2842 67.8212 62.3688 63.3944 62.3688C46.6145 62.3688 32.9144 75.8096 32.4985 92.4919L25.8938 92.4886C26.3093 72.1624 42.9736 55.7576 63.3973 55.7576ZM63.3973 63.9273C67.5992 63.9273 71.6577 64.7959 75.4539 66.5111C76.4725 66.9704 77.4688 67.4921 78.4313 68.07C77.0629 68.648 75.957 69.5727 75.2819 70.7005C73.7605 69.7257 71.9204 69.1945 70.0018 69.1945C67.7491 69.1945 65.6031 69.9254 63.9593 71.2504C63.8283 71.3566 63.703 71.4658 63.5782 71.5786C63.5186 71.5662 63.4595 71.5567 63.3971 71.5567C62.1945 71.5567 60.9852 71.6568 59.8074 71.8536C54.796 72.6878 50.2096 75.284 46.8894 79.1643C43.7029 82.8916 41.8751 87.5966 41.7003 92.4886H34.0646C34.4801 76.6677 47.48 63.9273 63.3973 63.9273ZM49.3702 92.4894H43.2624C43.625 82.9393 50.5761 74.972 60.0645 73.3972C60.7673 73.2814 61.4796 73.2033 62.1953 73.1628C61.705 73.8751 61.3081 74.6655 61.0112 75.5155C57.028 76.1839 53.6537 79.7082 53.0444 83.7758C51.4197 85.5439 50.2733 87.7061 49.7235 90.0303C49.5362 90.8302 49.4169 91.6556 49.3702 92.4894ZM101.044 78.2179C101.279 79.9832 100.135 81.8795 98.5387 82.3635C98.3638 82.4165 98.1794 82.4541 97.9888 82.4731C97.5953 82.5107 97.2922 82.8324 97.2798 83.2292C97.2674 83.6228 97.5547 83.9663 97.9454 84.023C99.4858 84.2541 100.301 86.2476 100.176 87.9594C99.9608 90.8368 97.811 93.5516 95.0619 94.4234C94.3934 94.6359 93.6839 94.7422 92.953 94.7422C90.6941 94.7422 88.5291 93.7455 87.1608 92.074C86.9826 91.8587 86.7048 91.7524 86.4266 91.7991C86.1517 91.8458 85.9206 92.0364 85.8234 92.296C84.9048 94.7674 82.2867 96.5636 79.6033 96.5636C79.3846 96.5636 79.1626 96.5512 78.9472 96.526C76.0918 96.2073 73.5547 93.7268 73.1735 90.8805C73.1329 90.5741 72.9171 90.3244 72.6203 90.2368C72.5484 90.2149 72.4735 90.2054 72.3983 90.2054C72.1734 90.2054 71.9547 90.3021 71.8046 90.477C69.8302 92.7797 66.8247 94.1542 63.7659 94.1542C62.7848 94.1542 61.8352 94.0104 60.9352 93.723C60.5479 93.6011 60.1667 93.4481 59.7951 93.2671C56.5084 91.6738 54.3373 88.159 54.515 84.7133C54.7151 80.8517 57.9326 77.3902 61.6852 76.9966C62.0006 76.9623 62.2631 76.7436 62.3537 76.4406C62.8192 74.8473 63.7377 73.4384 64.9375 72.4697C66.3059 71.3667 68.1021 70.7607 69.9988 70.7607C71.9075 70.7607 73.7167 71.3763 75.0884 72.4916C75.2851 72.6508 75.5477 72.707 75.7912 72.6384C76.0347 72.5698 76.2319 72.3883 76.3162 72.1481C76.7879 70.8235 78.1314 69.7111 79.8186 69.2394C80.5967 69.024 81.4653 68.9178 82.471 68.9178C83.3553 68.9178 84.2301 68.9988 84.9705 69.0769C86.2984 69.2175 87.6792 69.4143 88.704 70.1671C89.5569 70.7951 90.1319 72.0696 89.6288 72.9634C89.4725 73.2416 89.5006 73.5914 89.7036 73.8382C89.9066 74.0883 90.241 74.1879 90.5441 74.0912C92.9717 73.326 95.2115 73.2383 97.0549 73.8477C99.189 74.5505 100.791 76.3058 101.044 78.2179ZM101.125 59.004C100.903 60.3347 99.5631 61.3815 97.0265 62.2C96.6953 62.3063 96.4766 62.6188 96.4861 62.9653C96.4957 63.3121 96.7329 63.6118 97.0703 63.6995C98.2323 64.0025 98.7793 65.5177 98.5387 66.6892C98.1638 68.5202 96.5548 69.932 95.3394 70.7634C94.3836 69.4107 93.3397 68.111 92.2214 66.8894C88.5975 62.931 84.2861 59.8097 79.4114 57.6166C79.2927 57.5637 79.1741 57.5137 79.0583 57.4637C79.0707 57.2045 79.0802 56.9453 79.0802 56.6856C79.0802 55.939 79.0273 55.1891 78.9211 54.4549C78.6647 52.6492 78.0901 50.9182 77.2464 49.3283C78.0149 48.9128 78.7243 48.5879 78.8649 48.5345C80.705 47.9628 82.5389 47.9533 84.6386 48.5097C86.2757 48.9438 87.4349 49.5656 88.1816 50.406C89.0406 51.3775 89.2345 52.6272 88.7252 53.9299C88.6223 54.1953 88.6723 54.4984 88.8534 54.7171C88.8815 54.7514 88.9129 54.7795 88.9472 54.8076L80.8493 55.8887C80.4619 55.9416 80.1713 56.2698 80.1713 56.6605C80.1713 57.0512 80.4586 57.3823 80.846 57.4352L90.3218 58.7412C90.3561 58.7474 90.3937 58.7474 90.428 58.7474C90.6153 58.7474 90.7968 58.6788 90.9402 58.5535C91.1089 58.4068 91.2089 58.191 91.2089 57.9661V55.3918C91.2089 55.1669 91.1122 54.9511 90.9435 54.8043C90.9187 54.7824 90.8906 54.7605 90.8625 54.7419C92.9184 54.4013 95.0958 54.2797 97.3328 54.9325C98.5792 55.298 99.5011 55.7854 100.151 56.4228C100.891 57.1666 101.266 58.1511 101.125 59.004Z" fill="black"/>
<path d="M62.6438 39.2411C62.6967 39.6284 63.0283 39.9158 63.4185 39.9158C63.8092 39.9158 64.1404 39.6251 64.1904 39.2378L65.4587 29.7621C65.4901 29.5401 65.4211 29.3123 65.2714 29.1436C65.1213 28.9749 64.9089 28.8782 64.684 28.8782H62.1097C61.8848 28.8782 61.669 28.9749 61.5222 29.1469C61.3721 29.3156 61.3068 29.5438 61.3378 29.7654L62.6438 39.2411ZM63.7902 30.44L63.4028 33.3298L63.0059 30.44H63.7902Z" fill="black"/>
<path d="M42.9027 39.1067L50.5256 44.8832C50.6661 44.9895 50.8319 45.0424 50.9973 45.0424H51.0006C51.4318 45.0424 51.7815 44.6926 51.7815 44.2614C51.7815 44.0614 51.7067 43.877 51.5814 43.7397L45.8144 36.1917C45.6767 36.0136 45.4708 35.9011 45.2459 35.8854C45.021 35.8697 44.8023 35.954 44.6427 36.1136L42.8245 37.9318C42.6654 38.091 42.581 38.313 42.5963 38.5379C42.612 38.7628 42.7245 38.9723 42.9027 39.1067ZM45.1144 37.8507L46.8859 40.1658L44.5617 38.4039L45.1144 37.8507Z" fill="black"/>
<path d="M75.2718 44.8428C75.4219 44.9929 75.6216 45.071 75.8217 45.071C75.9875 45.071 76.1561 45.0181 76.2967 44.9118L83.8948 39.1071C84.073 38.9695 84.1854 38.7636 84.2011 38.5387C84.2168 38.3138 84.1325 38.0951 83.9729 37.9355L82.1547 36.1173C81.9955 35.9582 81.7735 35.8738 81.5486 35.8891C81.3237 35.9048 81.1174 36.0173 80.9802 36.1955L75.2036 43.8182C74.9663 44.1308 74.994 44.5679 75.2718 44.8428ZM81.6826 37.8509L82.2386 38.4069L79.9235 40.1783L81.6826 37.8509Z" fill="black"/>
<path d="M35.8542 58.564C35.9981 58.6888 36.1792 58.7578 36.3664 58.7578C36.4007 58.7578 36.4384 58.7545 36.4727 58.7516L45.9485 57.4457C46.3358 57.3927 46.6232 57.0612 46.6232 56.6709C46.6232 56.2803 46.3325 55.9491 45.9452 55.8991L36.4694 54.6308C36.2445 54.6027 36.0196 54.6684 35.8509 54.8181C35.6822 54.9681 35.5855 55.1806 35.5855 55.4055V57.9798C35.5855 58.2018 35.6855 58.4139 35.8542 58.564ZM37.1478 56.296L40.0376 56.6833L37.1478 57.0802V56.296Z" fill="black"/>
<path d="M71.5328 42.596C71.6919 42.6865 71.8734 42.7365 72.0545 42.7365C72.4261 42.7365 72.773 42.5364 72.9607 42.2148L75.7069 37.4597C75.9943 36.9599 75.8227 36.3196 75.3225 36.0318C75.1633 35.9413 74.9818 35.8913 74.8007 35.8913C74.4291 35.8913 74.0822 36.0914 73.8945 36.413L71.1483 41.1681C70.861 41.6679 71.0325 42.3082 71.5328 42.596Z" fill="black"/>
<path d="M57.9046 40.2338C58.0265 40.6898 58.442 41.0085 58.9137 41.0085C59.0043 41.0085 59.0948 40.9961 59.1853 40.9742C59.4541 40.9023 59.679 40.7307 59.8195 40.4868C59.9601 40.2462 59.9977 39.9618 59.9225 39.693L58.5011 34.3882C58.3792 33.9322 57.9637 33.6135 57.492 33.6135C57.4014 33.6135 57.3109 33.6259 57.2204 33.6478C56.9516 33.7197 56.7267 33.8913 56.5862 34.1352C56.4456 34.3758 56.408 34.6602 56.4832 34.9289L57.9046 40.2338Z" fill="black"/>
<path d="M53.8342 42.215C54.0215 42.5366 54.3684 42.7367 54.7404 42.7367C54.9248 42.7367 55.103 42.6867 55.2622 42.5961C55.762 42.3088 55.934 41.668 55.6433 41.1682L52.8971 36.4132C52.7098 36.0916 52.3629 35.8915 51.9909 35.8915C51.8098 35.8915 51.6283 35.9415 51.4691 36.032C50.9693 36.3193 50.7973 36.9601 51.088 37.4599L53.8342 42.215Z" fill="black"/>
<path d="M48.9225 47.1266L44.1674 44.3804C44.0083 44.2899 43.8268 44.2398 43.6457 44.2398C43.274 44.2398 42.9272 44.4399 42.7395 44.7616C42.4522 45.2614 42.6237 45.9017 43.1207 46.1895L47.8758 48.9357C48.0349 49.0262 48.2164 49.0763 48.3975 49.0763C48.7691 49.0763 49.116 48.8762 49.3037 48.5545C49.4442 48.3139 49.4819 48.0295 49.4066 47.7608C49.338 47.4921 49.166 47.2672 48.9225 47.1266Z" fill="black"/>
<path d="M41.0961 51.7939L46.401 53.2152C46.4887 53.24 46.5792 53.2495 46.6698 53.2495C47.1415 53.2495 47.5569 52.9308 47.6789 52.4748C47.7508 52.2061 47.7132 51.9249 47.576 51.681C47.4354 51.4404 47.2105 51.2656 46.9418 51.1936L41.6369 49.7723C41.5492 49.7475 41.4587 49.738 41.3653 49.738C40.8936 49.738 40.4781 50.0567 40.3561 50.5127C40.2842 50.7814 40.3218 51.0625 40.4591 51.3064C40.6029 51.5499 40.8274 51.7219 41.0961 51.7939Z" fill="black"/>
<path d="M85.6975 51.7939C85.9662 51.7219 86.1911 51.5504 86.3316 51.3064C86.4722 51.0658 86.5098 50.7814 86.4346 50.5127C86.3126 50.0567 85.8972 49.738 85.4255 49.738C85.3349 49.738 85.2444 49.7504 85.1538 49.7723L79.8489 51.1936C79.2929 51.3437 78.9618 51.9183 79.1118 52.4747C79.2338 52.9307 79.6493 53.2495 80.121 53.2495C80.2115 53.2495 80.302 53.237 80.3926 53.2151L85.6975 51.7939Z" fill="black"/>
<path d="M67.6085 40.9714C67.6961 40.9962 67.7866 41.0057 67.8801 41.0057C68.3518 41.0057 68.7672 40.687 68.8892 40.231L70.3105 34.9262C70.4606 34.3701 70.1295 33.795 69.5701 33.6451C69.4825 33.6203 69.3919 33.6108 69.2985 33.6108C68.8268 33.6108 68.4113 33.9295 68.2894 34.3855L66.868 39.6903C66.7213 40.2497 67.0524 40.8215 67.6085 40.9714Z" fill="black"/>
<path d="M13.3295 42.855L12.7795 44.4783C12.4976 44.4344 12.2329 44.4399 11.9852 44.4947C11.7347 44.5486 11.5058 44.6436 11.2984 44.7797C11.0909 44.9159 10.9108 45.0904 10.7581 45.3032C10.6035 45.512 10.4801 45.7525 10.3879 46.0245C10.2242 46.5077 10.2006 46.9772 10.3172 47.4328C10.4309 47.8875 10.6849 48.2993 11.0792 48.6684C11.4707 49.0365 12.0006 49.3338 12.669 49.5602C13.349 49.7906 13.9578 49.8791 14.4952 49.8257C15.0308 49.7685 15.4799 49.5948 15.8427 49.3048C16.2035 49.011 16.4653 48.6239 16.6281 48.1435C16.7183 47.8773 16.7679 47.6167 16.7768 47.3616C16.7839 47.1028 16.7494 46.8572 16.6732 46.6249C16.5981 46.3898 16.4808 46.1742 16.3213 45.9783C16.1629 45.7795 15.9618 45.6113 15.718 45.4739L16.2767 43.8535C16.6786 44.0574 17.0304 44.3234 17.3322 44.6514C17.6349 44.9766 17.8732 45.3492 18.047 45.7694C18.2178 46.1886 18.3093 46.6422 18.3214 47.1301C18.3306 47.6171 18.2455 48.1254 18.0661 48.6549C17.8014 49.4362 17.3843 50.0723 16.8147 50.5632C16.2452 51.0541 15.5592 51.3604 14.7566 51.482C13.9541 51.6037 13.0754 51.5028 12.1205 51.1792C11.1627 50.8547 10.4041 50.3993 9.84467 49.813C9.28235 49.2257 8.92426 48.5641 8.77039 47.8281C8.61652 47.0921 8.67096 46.3363 8.9337 45.5608C9.10135 45.066 9.32667 44.6295 9.60969 44.2512C9.8927 43.8729 10.2251 43.5629 10.607 43.3213C10.9859 43.0787 11.4056 42.9161 11.8659 42.8333C12.3243 42.7467 12.8121 42.7539 13.3295 42.855Z" fill="black"/>
<path d="M20.819 32.7628C21.6782 33.2961 22.3142 33.9139 22.727 34.616C23.1388 35.314 23.3353 36.0401 23.3166 36.7944C23.2995 37.5461 23.0742 38.2711 22.6407 38.9693C22.2073 39.6676 21.6567 40.1925 20.989 40.544C20.3204 40.8912 19.5811 41.0365 18.7713 40.9797C17.9605 40.9187 17.1268 40.6223 16.2702 40.0906C15.411 39.5573 14.7755 38.9416 14.3637 38.2437C13.9509 37.5415 13.753 36.8146 13.7702 36.0629C13.7889 35.3086 14.015 34.5823 14.4484 33.884C14.8819 33.1858 15.4317 32.6622 16.0977 32.3133C16.7654 31.9618 17.5047 31.8166 18.3155 31.8776C19.1253 31.9344 19.9598 32.2294 20.819 32.7628ZM19.9174 34.2151C19.3126 33.8397 18.7437 33.6178 18.2108 33.5495C17.6769 33.4769 17.2003 33.5407 16.7812 33.7409C16.3595 33.9394 16.0141 34.2554 15.745 34.6889C15.4759 35.1224 15.346 35.5721 15.3552 36.0381C15.3618 36.5025 15.5153 36.9591 15.8155 37.4081C16.1149 37.8528 16.5669 38.2628 17.1717 38.6383C17.7765 39.0137 18.3459 39.2377 18.8799 39.3102C19.4128 39.3785 19.8901 39.3134 20.3118 39.1149C20.7309 38.9148 21.075 38.598 21.3441 38.1645C21.6132 37.731 21.7445 37.2821 21.7379 36.8177C21.7287 36.3517 21.5744 35.8963 21.2751 35.4516C20.9748 35.0027 20.5223 34.5905 19.9174 34.2151Z" fill="black"/>
<path d="M25.4845 20.8329L32.1277 27.463L31.0594 28.5334L23.4103 27.1476L23.3553 27.2027L27.8803 31.7188L26.6793 32.9222L20.036 26.2921L21.1108 25.2152L28.76 26.6076L28.8182 26.5492L24.2899 22.0299L25.4845 20.8329Z" fill="black"/>
<path d="M34.5773 25.5684L29.426 17.7227L34.5287 14.3724L35.311 15.5638L31.6295 17.981L33.028 20.1109L36.4452 17.8673L37.2274 19.0587L33.8103 21.3023L35.2163 23.4438L38.9284 21.0065L39.7107 22.1979L34.5773 25.5684Z" fill="black"/>
<path d="M44.442 12.5896C44.2513 12.2352 43.9666 12.0147 43.5882 11.9283C43.2126 11.8406 42.7914 11.892 42.3246 12.0824C41.9965 12.2163 41.7352 12.3806 41.5408 12.5754C41.3464 12.7702 41.2215 12.9778 41.1663 13.1983C41.1111 13.4188 41.1265 13.6386 41.2125 13.8576C41.2864 14.0386 41.3914 14.1789 41.5277 14.2784C41.6668 14.3767 41.8275 14.4431 42.0099 14.4776C42.1911 14.5093 42.3821 14.5205 42.5829 14.5112C42.7836 14.5019 42.9818 14.4821 43.1773 14.4518L44.0751 14.3231C44.4345 14.2656 44.792 14.2402 45.1478 14.2469C45.5064 14.2524 45.8463 14.3051 46.1675 14.405C46.4916 14.5038 46.7815 14.6644 47.0372 14.8867C47.2929 15.1091 47.4975 15.4084 47.6509 15.7846C47.8587 16.2938 47.9114 16.7953 47.8093 17.289C47.706 17.7799 47.4526 18.2347 47.0492 18.6533C46.6475 19.0679 46.0987 19.4172 45.4028 19.7011C44.7267 19.9769 44.097 20.1117 43.5137 20.1054C42.9333 20.098 42.4211 19.9506 41.9772 19.6632C41.5361 19.3745 41.1865 18.9463 40.9284 18.3784L42.4773 17.7466C42.6234 18.0401 42.8194 18.2538 43.0654 18.3877C43.3115 18.5216 43.5862 18.5844 43.8897 18.5761C44.196 18.5667 44.5132 18.495 44.8414 18.3611C45.1837 18.2215 45.4628 18.0483 45.6786 17.8414C45.8962 17.6306 46.041 17.4032 46.1131 17.1593C46.1841 16.9126 46.1702 16.6642 46.0715 16.4141C45.9763 16.1889 45.8337 16.0294 45.6435 15.9353C45.4522 15.8385 45.219 15.7885 44.9438 15.7852C44.6703 15.778 44.3618 15.7983 44.0183 15.846L42.9257 15.9947C42.135 16.1028 41.4556 16.055 40.8874 15.8512C40.3209 15.6434 39.9107 15.2284 39.6568 14.606C39.4479 14.094 39.4036 13.5891 39.5239 13.0912C39.647 12.5923 39.9058 12.1386 40.3002 11.7303C40.6934 11.3191 41.1941 10.9894 41.8023 10.7413C42.419 10.4898 43.0032 10.3769 43.5548 10.4026C44.1081 10.4243 44.5951 10.5705 45.0156 10.8411C45.435 11.1089 45.7488 11.4857 45.9569 11.9717L44.442 12.5896Z" fill="black"/>
<path d="M58.4847 16.3906C57.8458 16.4489 57.286 16.3834 56.8055 16.1941C56.325 16.0047 55.9421 15.7252 55.6568 15.3555C55.3743 14.9824 55.2104 14.5479 55.1651 14.052C55.131 13.6777 55.1768 13.3391 55.3026 13.0362C55.4314 12.733 55.6199 12.4459 55.8683 12.1747C56.1196 11.9033 56.4137 11.6295 56.7505 11.3533L58.3044 10.0749C58.5334 9.89453 58.7022 9.7104 58.8108 9.52255C58.9225 9.33442 58.9676 9.1217 58.9459 8.88438C58.9276 8.68357 58.8251 8.50118 58.6383 8.33721C58.4546 8.17296 58.2152 8.1043 57.92 8.13122C57.7223 8.14926 57.5516 8.21237 57.4081 8.32057C57.2673 8.42545 57.1611 8.55631 57.0896 8.71317C57.021 8.86975 56.9944 9.03171 57.0096 9.19905C57.0282 9.4029 57.1034 9.60467 57.2351 9.80433C57.3699 10.0037 57.5388 10.2077 57.7419 10.4162C57.948 10.6244 58.1676 10.8452 58.4006 11.0786L63.2552 15.8174L61.4662 15.9806L57.4437 12.1415C57.144 11.8497 56.8539 11.5617 56.5733 11.2775C56.2958 10.9929 56.0613 10.6922 55.8698 10.3752C55.681 10.055 55.5689 9.70014 55.5334 9.31069C55.4932 8.86952 55.5591 8.46621 55.7314 8.10076C55.9033 7.73227 56.1627 7.43097 56.5095 7.19685C56.8593 6.96246 57.2807 6.82279 57.7736 6.77783C58.2665 6.73287 58.6983 6.79166 59.069 6.95419C59.4397 7.11672 59.7356 7.3505 59.9567 7.65553C60.1778 7.96056 60.3057 8.30324 60.3404 8.68356C60.3806 9.12473 60.3072 9.53026 60.12 9.90014C59.9326 10.267 59.657 10.6096 59.2934 10.9281L57.5301 12.4833C57.2403 12.7368 57.039 12.9852 56.9262 13.2287C56.8131 13.4691 56.764 13.6699 56.7787 13.8312C56.8011 14.0776 56.8839 14.2955 57.027 14.485C57.17 14.6744 57.3597 14.8197 57.596 14.9209C57.835 15.0187 58.1066 15.0538 58.4109 15.026C58.7456 14.9955 59.0689 14.8908 59.3808 14.7121C59.6925 14.5302 59.9695 14.2871 60.2117 13.9828C60.4539 13.6785 60.6364 13.3244 60.7591 12.9205C60.8815 12.5136 60.9209 12.0712 60.8773 11.5936L62.2967 11.4641C62.3505 12.0544 62.332 12.5745 62.2412 13.0246C62.15 13.4716 62.0147 13.8552 61.8353 14.1752C61.6556 14.4923 61.4583 14.7511 61.2435 14.9517C61.1752 15.0101 61.1099 15.0682 61.0477 15.126C60.9855 15.1839 60.9202 15.242 60.8519 15.3004C60.5505 15.6285 60.1856 15.8827 59.7572 16.0629C59.3318 16.2428 58.9076 16.3521 58.4847 16.3906Z" fill="black"/>
<path d="M76.5592 10.7003C76.599 10.2998 76.4861 9.95796 76.2205 9.67481C75.9579 9.39228 75.5799 9.19961 75.0863 9.09679C74.7394 9.02451 74.4309 9.01485 74.1608 9.06781C73.8907 9.12078 73.6712 9.22328 73.5022 9.37532C73.3332 9.52737 73.2232 9.71823 73.1723 9.94791C73.1324 10.1393 73.1412 10.3144 73.1986 10.473C73.2591 10.6323 73.3553 10.7772 73.4873 10.9076C73.6199 11.0351 73.772 11.1511 73.9438 11.2555C74.1155 11.36 74.2909 11.4543 74.47 11.5384L75.2865 11.9332C75.6167 12.0862 75.9274 12.2649 76.2188 12.4691C76.5132 12.674 76.7657 12.9076 76.9763 13.17C77.1899 13.4329 77.3406 13.728 77.4285 14.0553C77.5163 14.3826 77.5188 14.7451 77.436 15.1429C77.3238 15.6813 77.0874 16.1267 76.7269 16.4791C76.367 16.8286 75.9028 17.0642 75.3344 17.1861C74.7696 17.3056 74.1193 17.2887 73.3835 17.1354C72.6686 16.9865 72.0711 16.7466 71.5908 16.4155C71.1134 16.0852 70.771 15.6768 70.5633 15.1904C70.3587 14.7046 70.308 14.1541 70.4112 13.539L72.0488 13.8801C72.006 14.2051 72.0493 14.4919 72.1785 14.7404C72.3077 14.9889 72.5005 15.1945 72.7569 15.3571C73.0162 15.5204 73.3194 15.6381 73.6663 15.7104C74.0282 15.7858 74.3565 15.798 74.6511 15.7471C74.9494 15.6937 75.1965 15.5861 75.3925 15.424C75.5892 15.259 75.7164 15.0453 75.7743 14.7827C75.8211 14.5428 75.792 14.3307 75.6868 14.1465C75.5822 13.9593 75.4167 13.7875 75.1903 13.6311C74.9674 13.4724 74.7002 13.3168 74.3887 13.1645L73.3994 12.6776C72.6832 12.3255 72.1463 11.9063 71.7889 11.4198C71.4351 10.9311 71.3268 10.3577 71.4638 9.69965C71.5766 9.15828 71.822 8.71475 72.1998 8.36904C72.5807 8.02395 73.0487 7.79222 73.6039 7.67382C74.1598 7.55244 74.7592 7.55874 75.4023 7.69271C76.0543 7.82856 76.6019 8.06123 77.0451 8.39074C77.4919 8.71788 77.8141 9.11114 78.0117 9.5705C78.21 10.0269 78.2597 10.5147 78.1609 11.034L76.5592 10.7003Z" fill="black"/>
<path d="M82.322 11.0957L82.8873 9.78741L89.7614 12.7576L89.1961 14.066L86.5331 12.9153L83.3756 20.2227L81.8275 19.5538L84.9849 12.2464L82.322 11.0957Z" fill="black"/>
<path d="M98.0781 23.8482C97.484 24.6666 96.8219 25.2562 96.0917 25.6172C95.3658 25.9774 94.6274 26.1209 93.8764 26.0477C93.1279 25.9762 92.4211 25.6991 91.756 25.2162C91.0909 24.7334 90.6072 24.1463 90.3049 23.455C90.007 22.763 89.9156 22.0151 90.0308 21.2116C90.1503 20.4073 90.5061 19.5972 91.0984 18.7813C91.6926 17.963 92.3526 17.3737 93.0785 17.0134C93.8086 16.6525 94.548 16.5078 95.2965 16.5792C96.0475 16.6525 96.7555 16.9305 97.4206 17.4133C98.0857 17.8961 98.5681 18.4823 98.8679 19.1719C99.1702 19.8632 99.2616 20.6111 99.1421 21.4153C99.0269 22.2189 98.6722 23.0299 98.0781 23.8482ZM96.6948 22.844C97.113 22.2679 97.3755 21.7166 97.4821 21.19C97.5931 20.6627 97.5639 20.1828 97.3946 19.7503C97.2271 19.3154 96.937 18.948 96.5241 18.6483C96.1112 18.3486 95.672 18.1864 95.2065 18.1619C94.7429 18.1349 94.2763 18.2549 93.8069 18.5219C93.3417 18.7883 92.9 19.2095 92.4818 19.7856C92.0636 20.3616 91.799 20.9133 91.688 21.4406C91.5813 21.9672 91.6117 22.448 91.7792 22.8829C91.9485 23.3154 92.2396 23.6815 92.6525 23.9813C93.0654 24.281 93.5037 24.4444 93.9673 24.4714C94.4328 24.4959 94.8981 24.375 95.3633 24.1087C95.8328 23.8416 96.2766 23.4201 96.6948 22.844Z" fill="black"/>
<path d="M109.639 29.3645L102.546 35.5107L101.556 34.3677L103.491 26.839L103.44 26.7801L98.6087 30.9666L97.4953 29.6816L104.589 23.5354L105.585 24.6853L103.643 32.2136L103.697 32.276L108.532 28.0865L109.639 29.3645Z" fill="black"/>
<path d="M104.259 38.0908L112.456 33.5205L115.429 38.8522L114.184 39.5463L112.039 35.6996L109.814 36.9403L111.804 40.5108L110.56 41.2048L108.569 37.6344L106.331 38.8818L108.494 42.7605L107.249 43.4545L104.259 38.0908Z" fill="black"/>
<path d="M116.49 48.8684C116.857 48.7038 117.098 48.4358 117.211 48.0646C117.326 47.6963 117.305 47.2725 117.149 46.7932C117.039 46.4562 116.894 46.1838 116.714 45.9758C116.534 45.7678 116.336 45.6283 116.12 45.5572C115.904 45.4862 115.683 45.4857 115.459 45.5556C115.273 45.6162 115.125 45.7108 115.016 45.8396C114.908 45.9712 114.83 46.1267 114.783 46.3061C114.738 46.4845 114.713 46.6742 114.708 46.8751C114.703 47.076 114.708 47.2751 114.724 47.4723L114.787 48.3771C114.819 48.7396 114.818 49.098 114.786 49.4524C114.754 49.8097 114.677 50.1449 114.554 50.458C114.432 50.7741 114.251 51.0516 114.011 51.2906C113.771 51.5295 113.457 51.7119 113.071 51.8378C112.548 52.0081 112.044 52.0245 111.559 51.8869C111.077 51.7483 110.642 51.4627 110.253 51.0301C109.869 50.5995 109.56 50.0269 109.328 49.3123C109.101 48.618 109.012 47.9802 109.061 47.3989C109.11 46.8205 109.294 46.3203 109.613 45.8983C109.933 45.4793 110.385 45.1616 110.97 44.9453L111.488 46.5358C111.185 46.6603 110.958 46.8403 110.807 47.076C110.655 47.3117 110.573 47.5812 110.559 47.8845C110.546 48.1907 110.595 48.5122 110.705 48.8492C110.819 49.2007 110.972 49.4916 111.162 49.7219C111.357 49.9541 111.573 50.115 111.811 50.2046C112.052 50.2932 112.301 50.2973 112.558 50.2169C112.789 50.1383 112.958 50.0076 113.066 49.8247C113.176 49.6409 113.243 49.4119 113.266 49.1377C113.293 48.8654 113.295 48.5563 113.273 48.2102L113.203 47.1098C113.153 46.3133 113.25 45.6391 113.494 45.0872C113.742 44.5372 114.186 44.1581 114.825 43.9499C115.351 43.7786 115.858 43.7709 116.345 43.9269C116.834 44.0858 117.268 44.3767 117.647 44.7995C118.028 45.2215 118.321 45.7447 118.524 46.3693C118.731 47.0026 118.801 47.5934 118.735 48.1417C118.674 48.692 118.493 49.1671 118.192 49.5669C117.895 49.9659 117.496 50.2516 116.997 50.424L116.49 48.8684Z" fill="black"/>
<path d="M117.859 55.0066C119.068 62.9033 118.547 70.9684 116.332 78.6438C114.117 86.3192 110.26 93.4216 105.029 99.4595C99.7978 105.497 93.3172 110.326 86.0356 113.613C78.754 116.899 70.8453 118.563 62.8569 118.492C54.8684 118.42 46.991 116.613 39.7698 113.196C32.5485 109.779 26.156 104.834 21.0345 98.7032C15.913 92.5721 12.1849 85.4014 10.1082 77.6874C8.03145 69.9733 7.65573 61.9001 9.00701 54.0265L10.0939 54.2131C8.76968 61.9292 9.13788 69.8409 11.1731 77.4007C13.2082 84.9605 16.8618 91.9877 21.8809 97.9962C26.8999 104.005 33.1646 108.851 40.2415 112.199C47.3183 115.548 55.0381 117.318 62.8668 117.389C70.6955 117.459 78.446 115.828 85.582 112.607C92.7179 109.387 99.0689 104.654 104.195 98.7374C109.322 92.8202 113.101 85.8599 115.272 78.338C117.443 70.8161 117.954 62.9123 116.769 55.1735L117.859 55.0066Z" fill="black"/>
</svg>
