<svg width="38" height="36" viewBox="0 0 38 36" fill="none" xmlns="http://www.w3.org/2000/svg">
<path d="M0 1.6875C0 0.752344 0.705903 0 1.58333 0H4.58507C6.03646 0 7.32292 0.9 7.92326 2.25H35.0378C36.7729 2.25 38.0396 4.00781 37.5844 5.79375L34.8795 16.5023C34.3188 18.7102 32.4385 20.25 30.2944 20.25H11.2615L11.6177 22.2539C11.7628 23.0484 12.416 23.625 13.1747 23.625H32.1944C33.0719 23.625 33.7778 24.3773 33.7778 25.3125C33.7778 26.2477 33.0719 27 32.1944 27H13.1747C10.892 27 8.93264 25.2703 8.51042 22.8867L5.10625 3.83203C5.06007 3.56484 4.84236 3.375 4.58507 3.375H1.58333C0.705903 3.375 0 2.62266 0 1.6875ZM8.44444 32.625C8.44444 32.1818 8.52635 31.7429 8.68549 31.3334C8.84463 30.924 9.07789 30.5519 9.37194 30.2385C9.66599 29.9251 10.0151 29.6765 10.3993 29.5069C10.7835 29.3373 11.1953 29.25 11.6111 29.25C12.027 29.25 12.4387 29.3373 12.8229 29.5069C13.2071 29.6765 13.5562 29.9251 13.8503 30.2385C14.1443 30.5519 14.3776 30.924 14.5367 31.3334C14.6959 31.7429 14.7778 32.1818 14.7778 32.625C14.7778 33.0682 14.6959 33.5071 14.5367 33.9166C14.3776 34.326 14.1443 34.6981 13.8503 35.0115C13.5562 35.3249 13.2071 35.5735 12.8229 35.7431C12.4387 35.9127 12.027 36 11.6111 36C11.1953 36 10.7835 35.9127 10.3993 35.7431C10.0151 35.5735 9.66599 35.3249 9.37194 35.0115C9.07789 34.6981 8.84463 34.326 8.68549 33.9166C8.52635 33.5071 8.44444 33.0682 8.44444 32.625ZM30.6111 29.25C31.451 29.25 32.2564 29.6056 32.8503 30.2385C33.4441 30.8714 33.7778 31.7299 33.7778 32.625C33.7778 33.5201 33.4441 34.3786 32.8503 35.0115C32.2564 35.6444 31.451 36 30.6111 36C29.7713 36 28.9658 35.6444 28.3719 35.0115C27.7781 34.3786 27.4444 33.5201 27.4444 32.625C27.4444 31.7299 27.7781 30.8714 28.3719 30.2385C28.9658 29.6056 29.7713 29.25 30.6111 29.25Z" fill="white"/>
</svg>
