<?xml version="1.0" encoding="UTF-8" standalone="no"?>
<svg
   id="visual"
   viewBox="0 0 900 65"
   width="900"
   height="65"
   version="1.1"
   sodipodi:docname="swoop-similar-bottom.svg"
   inkscape:version="1.3.2 (091e20e, 2023-11-25)"
   xmlns:inkscape="http://www.inkscape.org/namespaces/inkscape"
   xmlns:sodipodi="http://sodipodi.sourceforge.net/DTD/sodipodi-0.dtd"
   xmlns="http://www.w3.org/2000/svg"
   xmlns:svg="http://www.w3.org/2000/svg">
  <defs
     id="defs1" />
  <sodipodi:namedview
     id="namedview1"
     pagecolor="#ffffff"
     bordercolor="#666666"
     borderopacity="1.0"
     inkscape:showpageshadow="2"
     inkscape:pageopacity="0.0"
     inkscape:pagecheckerboard="0"
     inkscape:deskcolor="#d1d1d1"
     inkscape:zoom="0.96111111"
     inkscape:cx="448.95954"
     inkscape:cy="-236.18497"
     inkscape:window-width="1392"
     inkscape:window-height="847"
     inkscape:window-x="0"
     inkscape:window-y="25"
     inkscape:window-maximized="0"
     inkscape:current-layer="visual" />
  <path
     d="M 0,0 25,6.6722988 C 50,13.344598 100,26.689195 150,36.920053 200,47.039707 250,54.156825 300,54.71285 350,55.268875 400,49.263806 450,37.476078 500,25.577145 550,7.7843486 600,2.5577145 650,-2.5577145 700,4.7818141 750,6.8947088 800,8.8963984 850,5.560249 875,3.8921743 L 900,2.2240996 V 72.283237 h -25 c -25,0 -75,0 -125,0 -50,0 -100,0 -150,0 -50,0 -100,0 -150,0 -50,0 -100,0 -150,0 -50,0 -100,0 -150,0 -50,0 -100,0 -125,0 H 0 Z"
     fill="#e48d6a"
     stroke-linecap="round"
     stroke-linejoin="miter"
     id="path1"
     style="stroke-width:1.05454;fill:#d37c59;fill-opacity:1" />
</svg>
