<?xml version="1.0" encoding="UTF-8" standalone="no"?>
<svg
   id="visual"
   viewBox="0 0 900 86"
   width="900"
   height="86"
   version="1.1"
   sodipodi:docname="swoop-similar-top.svg"
   inkscape:version="1.3.2 (091e20e, 2023-11-25)"
   xmlns:inkscape="http://www.inkscape.org/namespaces/inkscape"
   xmlns:sodipodi="http://sodipodi.sourceforge.net/DTD/sodipodi-0.dtd"
   xmlns="http://www.w3.org/2000/svg"
   xmlns:svg="http://www.w3.org/2000/svg">
  <defs
     id="defs1" />
  <sodipodi:namedview
     id="namedview1"
     pagecolor="#ffffff"
     bordercolor="#666666"
     borderopacity="1.0"
     inkscape:showpageshadow="2"
     inkscape:pageopacity="0.0"
     inkscape:pagecheckerboard="0"
     inkscape:deskcolor="#d1d1d1"
     inkscape:zoom="0.96111111"
     inkscape:cx="448.95954"
     inkscape:cy="299.65318"
     inkscape:window-width="1392"
     inkscape:window-height="847"
     inkscape:window-x="0"
     inkscape:window-y="25"
     inkscape:window-maximized="0"
     inkscape:current-layer="visual" />
  <path
     d="m 0,26.587848 25,14.0123 c 25,14.0123 75,42.0369 125,39.010243 50,-2.914558 100,-36.992472 150,-45.51195 50,-8.631577 100,8.183183 150,21.410794 50,13.33971 100,22.980172 150,18.94463 50,-4.147641 100,-22.083385 150,-22.41968 50,-0.448394 100,16.81476 125,25.334238 L 900,86 v -96.404624 h -25 c -25,0 -75,0 -125,0 -50,0 -100,0 -150,0 -50,0 -100,0 -150,0 -50,0 -100,0 -150,0 -50,0 -100,0 -150,0 -50,0 -100,0 -125,0 H 0 Z"
     fill="#e48d6a"
     stroke-linecap="round"
     stroke-linejoin="miter"
     id="path1"
     style="stroke-width:1.05877;fill:#d37c59;fill-opacity:1" />
</svg>
