<?xml version="1.0" encoding="UTF-8" standalone="no"?>
<svg
   id="visual"
   viewBox="0 0 900 65"
   width="900"
   height="65"
   version="1.1"
   sodipodi:docname="wave-haikei(4).svg"
   inkscape:version="1.3.2 (091e20e, 2023-11-25)"
   xmlns:inkscape="http://www.inkscape.org/namespaces/inkscape"
   xmlns:sodipodi="http://sodipodi.sourceforge.net/DTD/sodipodi-0.dtd"
   xmlns="http://www.w3.org/2000/svg"
   xmlns:svg="http://www.w3.org/2000/svg">
  <defs
     id="defs1" />
  <sodipodi:namedview
     id="namedview1"
     pagecolor="#ffffff"
     bordercolor="#666666"
     borderopacity="1.0"
     inkscape:showpageshadow="2"
     inkscape:pageopacity="0.0"
     inkscape:pagecheckerboard="0"
     inkscape:deskcolor="#d1d1d1"
     inkscape:zoom="0.96111111"
     inkscape:cx="450"
     inkscape:cy="-236.18497"
     inkscape:window-width="1392"
     inkscape:window-height="847"
     inkscape:window-x="0"
     inkscape:window-y="25"
     inkscape:window-maximized="0"
     inkscape:current-layer="visual" />
  <path
     d="m 0,0 25,6 c 25,6 75,18 125,27.2 50,9.1 100,15.5 150,16 50,0.5 100,-4.9 150,-15.5 C 500,23 550,7 600,2.3 650,-2.3 700,4.3 750,6.2 800,8 850,5 875,3.5 L 900,2 v 63 h -25 c -25,0 -75,0 -125,0 -50,0 -100,0 -150,0 -50,0 -100,0 -150,0 -50,0 -100,0 -150,0 -50,0 -100,0 -150,0 -50,0 -100,0 -125,0 H 0 Z"
     fill="#e48d6a"
     stroke-linecap="round"
     stroke-linejoin="miter"
     id="path1" />
</svg>
