<svg width="374" height="369" viewBox="0 0 374 369" fill="none" xmlns="http://www.w3.org/2000/svg">
<path d="M255.926 72.4541L250.458 69.2615C257.507 57.1299 264.92 46.7066 277.475 35.979C262.844 24.5153 246.733 15.1492 229.523 8.1046C217.107 15.2679 202.94 19.7036 188.44 20.9593C183.065 21.4244 177.64 21.454 172.32 21.0523C157.255 19.9275 142.713 15.3313 130.153 7.74081C112.89 15.6059 97.1372 25.0947 83.2451 35.9832C95.8001 46.7108 103.213 57.1342 110.262 69.2658L104.79 72.4541C97.5425 59.984 89.9152 49.4257 76.242 38.4062C75.4953 37.8057 75.065 36.9008 75.0608 35.941C75.0566 34.9811 75.4869 34.0762 76.2294 33.4715C91.5265 21.0101 109.119 10.2569 128.516 1.51251L129.064 1.26302C130.035 0.823236 131.161 0.89515 132.06 1.46599C144.075 9.04349 158.157 13.6272 172.783 14.7223C177.769 15.0986 182.849 15.0733 187.886 14.6377C201.968 13.4199 215.708 9.00114 227.63 1.85916C228.478 1.35176 229.511 1.26718 230.427 1.63505C249.968 9.46189 268.155 20.1729 284.477 33.4714C285.22 34.0761 285.65 34.9852 285.646 35.9409C285.642 36.8965 285.207 37.8056 284.465 38.4061C270.792 49.4256 263.164 59.9882 255.921 72.4539L255.926 72.4541Z" fill="black"/>
<path d="M180.02 45.0453C177.408 45.0453 174.78 44.8719 172.143 44.5209C166.507 43.7809 161.078 42.2714 156.019 40.0387C141.582 33.679 130.373 20.3209 126.754 5.17458C126.741 5.12384 126.728 5.07733 126.72 5.03081L132.841 3.41976C132.858 3.47896 132.871 3.53816 132.884 3.59736C132.892 3.62273 132.896 3.65233 132.905 3.67771C136.064 16.9427 145.898 28.6513 158.567 34.237C163.081 36.2287 167.929 37.5733 172.974 38.2372C177.957 38.9011 182.91 38.8631 187.694 38.1273C191.891 37.4803 195.84 36.3048 199.43 34.6388C213.47 28.1268 221.819 14.029 226.355 3.34766L232.176 5.82979C227.207 17.5345 217.955 33.0319 202.088 40.3937C197.962 42.3092 193.44 43.6581 188.652 44.3982C185.813 44.8253 182.931 45.0452 180.02 45.0452L180.02 45.0453Z" fill="black"/>
<path d="M180.358 156.842C130.016 156.842 105.921 150.66 104.924 150.394C103.434 150 102.443 148.592 102.574 147.057L102.582 146.952C102.616 146.554 102.65 146.157 102.679 145.759C104.422 124.109 101.878 107.327 94.423 91.3239C93.9041 90.2075 94.0729 88.8925 94.8618 87.9495C110.978 68.5955 109.834 39.0927 100.38 19.9505L106.05 17.1343C111.695 28.5597 114.357 42.0996 113.542 55.2599C112.707 68.7533 108.374 80.8719 100.979 90.4455C108.13 106.594 110.652 123.513 109.096 144.838C116.517 146.385 140.045 150.499 180.358 150.499C183.421 150.499 186.23 150.478 188.947 150.432L189.053 156.774C186.298 156.821 183.454 156.842 180.358 156.842Z" fill="black"/>
<path d="M259.562 111.662L253.364 110.385C254.782 103.468 256.87 96.926 259.739 90.448C252.343 80.8747 248.011 68.7601 247.175 55.2624C246.361 42.1031 249.023 28.5636 254.664 17.1367L260.334 19.9487C250.88 39.0913 249.736 68.5962 265.852 87.9477C266.637 88.8907 266.81 90.2058 266.291 91.3221C263.211 97.9398 261.009 104.595 259.562 111.661L259.562 111.662Z" fill="black"/>
<path d="M146.676 368.02C141.205 368.02 135.729 367.589 130.253 366.565C118.976 364.455 108.328 359.91 98.0343 355.512C86.0909 350.412 74.81 345.592 62.5671 344.205C57.2852 343.605 52.0202 343.668 46.4474 343.736C41.3217 343.799 36.0185 343.862 30.7535 343.355C22.7968 342.59 8.35612 339.549 0.998804 327.786C0.4799 326.953 0.370207 325.925 0.711927 325.003L1.2857 323.439C18.646 276.224 36.601 227.4 62.9249 182.927C72.7291 166.372 85.3857 148.676 104.948 142.95L105.032 142.925C105.205 142.874 105.378 142.823 105.555 142.772L107.226 148.891C107.095 148.925 106.964 148.967 106.833 149.005L106.732 149.035C89.2708 154.143 77.5427 170.672 68.367 186.161C42.3333 230.139 24.483 278.682 7.22103 325.63L7.20837 325.668C13.3845 334.1 24.8682 336.417 31.3565 337.039C36.2841 337.513 41.4141 337.449 46.371 337.39C51.8934 337.322 57.6055 337.255 63.2798 337.897C76.4382 339.39 88.6767 344.616 100.515 349.674C110.496 353.936 120.819 358.346 131.413 360.326C150.608 363.916 169.645 359.797 189.798 355.442C206.335 351.864 223.438 348.169 240.59 349.163C245.518 349.446 250.441 350.122 255.199 350.774C262.57 351.78 269.531 352.736 276.593 352.393C292.552 351.624 307.141 344.418 322.583 336.79C336.344 329.995 350.536 322.984 365.79 320.996C350.252 283.084 331.664 249.955 313.828 219.75C308.056 209.97 303.935 203.656 297.704 194.1C294.582 189.317 291.046 183.892 286.49 176.801C284.647 173.926 282.457 171.046 279.976 168.243L284.714 164.035C287.406 167.08 289.793 170.222 291.814 173.367C296.354 180.438 299.885 185.85 303.002 190.624C309.284 200.252 313.435 206.616 319.278 216.515C337.854 247.979 357.248 282.598 373.257 322.55C373.636 323.493 373.539 324.562 372.999 325.421C372.459 326.279 371.54 326.829 370.527 326.897C354.872 327.911 340.549 334.986 325.387 342.474C310.043 350.052 294.177 357.892 276.906 358.725C269.257 359.097 261.684 358.056 254.352 357.054C249.712 356.42 244.915 355.765 240.232 355.494C223.931 354.551 207.258 358.154 191.135 361.642C176.576 364.797 161.651 368.023 146.679 368.023L146.676 368.02Z" fill="black"/>
<path d="M237.245 164.763H237.136C235.701 164.75 234.254 164.454 232.845 163.875C230.706 162.995 228.778 161.519 227.272 159.612C225.804 157.752 225.395 155.68 225.041 153.849C224.931 153.291 224.83 152.762 224.699 152.255C224.543 151.642 224.37 151.164 224.159 150.745C222.952 148.373 222.855 145.498 223.885 142.85C224.914 140.208 226.926 138.157 229.407 137.231C230.926 136.664 232.55 136.491 234.242 136.715C236.819 137.049 239.33 138.292 241.304 140.212C243.38 142.233 244.915 144.876 246.143 148.525C246.278 148.931 246.408 149.337 246.531 149.743C247.273 152.217 247.898 155.13 246.936 158.056C246.151 160.433 244.324 162.471 241.92 163.651C240.456 164.382 238.844 164.763 237.245 164.763ZM232.824 142.973C232.385 142.973 231.98 143.045 231.605 143.184C230.824 143.476 230.141 144.212 229.774 145.163C229.403 146.115 229.411 147.125 229.787 147.87C230.208 148.698 230.55 149.624 230.82 150.69C230.993 151.367 231.12 152.014 231.242 152.635C231.495 153.916 231.71 155.024 232.225 155.68C233.048 156.724 234.119 157.549 235.237 158.01C235.891 158.276 236.553 158.42 237.19 158.424C237.815 158.432 238.515 158.272 239.11 157.98C240.004 157.54 240.658 156.851 240.911 156.086C241.325 154.83 240.916 153.113 240.46 151.595C240.359 151.257 240.249 150.91 240.131 150.563C239.237 147.903 238.207 146.064 236.883 144.779C235.895 143.819 234.63 143.18 233.406 143.02C233.208 142.986 233.014 142.973 232.824 142.973Z" fill="black"/>
<path d="M222.096 198.175C221.974 198.175 221.852 198.167 221.729 198.154C220.7 198.032 219.793 197.414 219.304 196.497C217.084 192.319 212.984 189.393 208.639 186.293C207.128 185.215 205.567 184.103 204.074 182.923C195.649 176.259 189.477 167.235 186.705 157.518C186.393 156.428 186.123 155.324 185.904 154.237C183.955 144.689 185.203 134.896 189.414 126.671C190.308 124.921 191.329 123.25 192.316 121.635C194.219 118.519 196.016 115.58 196.746 112.396C197.121 110.755 198.712 109.694 200.37 109.982C208.01 111.305 215.215 115.089 220.658 120.637C226.095 126.181 229.749 133.462 230.947 141.146L224.695 142.122C223.699 135.741 220.662 129.691 216.143 125.081C212.271 121.132 207.322 118.261 201.994 116.823C200.884 119.749 199.277 122.379 197.711 124.942C196.745 126.523 195.83 128.02 195.041 129.559C191.485 136.507 190.443 144.82 192.101 152.968C192.29 153.899 192.518 154.837 192.784 155.768C195.197 164.22 200.597 172.094 207.992 177.942C209.359 179.024 210.79 180.043 212.304 181.126C215.844 183.65 219.472 186.238 222.299 189.668C228.23 181.46 231.327 171.252 230.875 161.079C230.858 160.69 230.841 160.309 230.812 159.933L237.123 159.476C237.157 159.92 237.178 160.368 237.195 160.808C237.781 173.98 233.14 187.211 224.467 197.097C223.864 197.786 222.999 198.175 222.096 198.175Z" fill="black"/>
<path d="M273.472 202.686C273.118 202.686 272.759 202.627 272.413 202.504C261.681 198.682 252.817 190.529 248.1 180.135C247.358 178.491 246.729 176.825 246.122 175.209C245.438 173.4 244.797 171.691 244.017 170.059C242.549 166.964 240.798 164.757 238.811 163.492C237.845 162.875 237.284 161.784 237.347 160.638C237.41 159.492 238.085 158.469 239.115 157.966C240 157.53 240.654 156.841 240.908 156.076C241.321 154.824 240.912 153.103 240.456 151.589C240.355 151.251 240.245 150.904 240.127 150.557C239.233 147.897 238.203 146.058 236.879 144.773C235.896 143.813 234.626 143.174 233.402 143.014C232.559 142.904 231.795 142.46 231.285 141.779C230.774 141.098 230.555 140.244 230.681 139.398C231.314 135.136 232.099 129.838 233.997 124.958C235.571 120.924 238.621 115.431 244.223 112.175C247.371 110.344 250.197 107.845 252.395 104.94C253.129 103.971 254.344 103.51 255.534 103.747C256.719 103.984 257.668 104.881 257.976 106.052C258.293 107.261 258.727 108.437 259.31 109.65C261.803 114.843 266.308 119.19 271.097 123.55L271.164 123.613C277.125 129.047 283.884 135.208 286.613 143.593C288.777 150.227 288.377 157.703 285.352 167.112C284.744 169.01 284.036 170.994 283.12 173.344C282.804 174.156 282.483 174.964 282.162 175.78C279.125 183.468 275.986 191.417 276.615 199.261C276.699 200.335 276.239 201.375 275.387 202.031C274.839 202.462 274.16 202.686 273.472 202.686ZM245.43 160.829C247.062 162.563 248.501 164.737 249.733 167.329C250.627 169.202 251.349 171.117 252.045 172.974C252.644 174.56 253.209 176.061 253.867 177.515C257.183 184.818 263.157 191 270.308 194.696C270.831 187.288 273.598 180.272 276.294 173.452C276.611 172.648 276.931 171.845 277.243 171.041C278.108 168.817 278.775 166.957 279.34 165.189C279.34 165.189 279.34 165.185 279.344 165.181C281.939 157.104 282.344 150.871 280.614 145.569C278.404 138.778 272.565 133.458 266.92 128.316L266.853 128.253C261.912 123.75 256.846 118.857 253.829 112.836C251.884 114.692 249.716 116.328 247.413 117.669C243.388 120.007 241.11 124.181 239.903 127.272C238.617 130.579 237.912 134.19 237.368 137.598C238.798 138.211 240.14 139.103 241.3 140.228C243.375 142.249 244.911 144.892 246.139 148.541C246.274 148.947 246.404 149.353 246.527 149.759C247.269 152.233 247.894 155.146 246.932 158.072C246.594 159.062 246.084 159.992 245.43 160.829Z" fill="black"/>
<path d="M238.768 163.464C238.641 163.379 238.511 163.303 238.376 163.227L241.498 157.708C241.704 157.827 241.974 157.983 242.253 158.165L238.768 163.464Z" fill="black"/>
<path d="M236.882 140.764L230.625 139.816L230.688 139.394L236.945 140.341L236.882 140.764Z" fill="black"/>
<path d="M117.189 238.838C115.725 218.41 123.454 193.095 130.276 170.76C132.351 163.96 134.313 157.537 135.891 151.655L142.004 153.3C140.396 159.288 138.422 165.762 136.329 172.616C129.672 194.423 122.125 219.138 123.504 238.385L117.189 238.838Z" fill="black"/>
<path d="M208.51 237.864C208.291 234.511 208.109 231.225 207.932 228.05C206.953 210.459 206.11 195.27 199.794 178.493L205.717 176.256C212.374 193.944 213.286 210.342 214.252 227.7C214.429 230.859 214.61 234.127 214.826 237.451L208.51 237.864Z" fill="black"/>
</svg>
