<svg width="129" height="129" viewBox="0 0 129 129" fill="none" xmlns="http://www.w3.org/2000/svg">
<path d="M124.65 67.9574H124.443C122.887 67.9919 121.314 67.9574 119.742 67.9574H67.9557V124.653C67.9557 126.589 66.3655 128.024 64.4986 128.111C62.6317 128.197 61.0415 126.468 61.0415 124.653V124.446C61.0069 122.89 61.0415 121.317 61.0415 119.744V67.9587H4.34547C2.40953 67.9587 0.9748 66.3685 0.888365 64.5016C0.80193 62.6346 2.53048 61.0444 4.34547 61.0444H4.55288C6.10857 61.0099 7.68151 61.0444 9.25445 61.0444H61.0402V4.3484C61.0402 2.41246 62.6304 0.97773 64.4973 0.891295C66.3642 0.80486 67.9544 2.53341 67.9544 4.3484V4.55581C67.989 6.1115 67.9544 7.68444 67.9544 9.25737V61.0432H124.65C126.586 61.0432 128.021 62.6334 128.108 64.5003C128.194 66.3672 126.465 67.9574 124.65 67.9574Z" fill="black"/>
</svg>
