<svg width="343" height="321" viewBox="0 0 343 321" fill="none" xmlns="http://www.w3.org/2000/svg">
<path d="M267.791 320.705C267.75 320.705 267.706 320.705 267.665 320.701C266.977 320.673 198.515 317.855 176.523 317.855C150.89 317.855 75.4867 320.673 74.7224 320.705C73.8633 320.734 73.0287 320.404 72.4262 319.789C71.8236 319.174 71.5101 318.332 71.559 317.473C77.4422 218.184 77.6944 119.399 72.3122 23.855C72.2389 22.5319 73.0247 21.3105 74.2624 20.8341C90.9833 14.3892 108.27 7.72844 124.072 1.01909C124.996 0.628242 126.055 0.713744 126.901 1.25116C127.748 1.78858 128.277 2.70868 128.318 3.71429C128.737 14.7803 132.239 25.4144 138.175 33.6587C144.518 42.4689 153.837 48.7471 163.739 50.8886C163.755 50.8926 163.775 50.8967 163.791 50.9008C163.828 50.9089 167.838 51.8372 171.267 51.8372C173.371 51.8372 177.309 51.1532 178.688 50.8845C188.582 48.7389 197.889 42.461 204.224 33.6588C210.16 25.4145 213.661 14.78 214.08 3.71437C214.117 2.71283 214.646 1.78863 215.497 1.25124C216.348 0.713822 217.403 0.628322 218.327 1.01918C234.127 7.72853 251.414 14.3934 268.136 20.8342C269.374 21.3106 270.16 22.5319 270.086 23.8551C264.704 119.402 264.956 218.187 270.84 317.473C270.892 318.336 270.575 319.179 269.968 319.793C269.386 320.376 268.604 320.705 267.79 320.705L267.791 320.705ZM78.5313 25.7293C83.7384 119.741 83.5105 216.851 77.8514 314.476C92.8543 313.926 153.898 311.748 176.518 311.748C195.8 311.748 250.404 313.894 264.54 314.464C258.881 216.85 258.653 119.732 263.86 25.7309C249.118 20.0513 234.002 14.205 219.87 8.29363C218.747 18.9726 215.021 29.1103 209.179 37.2242C201.965 47.2438 191.31 54.3972 179.951 56.8562C179.935 56.8603 179.915 56.8643 179.898 56.8684C179.34 56.9783 174.361 57.9432 171.267 57.9432C167.245 57.9432 162.864 56.9539 162.424 56.8521C151.073 54.389 140.431 47.2398 133.22 37.2244C127.378 29.1142 123.649 18.9727 122.529 8.29375C108.39 14.2054 93.2728 20.0518 78.5322 25.7311L78.5313 25.7293Z" fill="black"/>
<path d="M173.043 17.4049C169.717 17.4049 166.354 17.2542 162.991 16.957C149.523 15.7763 135.97 12.1977 123.806 6.61573L126.354 1.06641C137.892 6.36315 150.745 9.75466 163.528 10.874C168.727 11.3341 173.922 11.4196 178.962 11.1265C192.532 10.357 204.884 7.00225 215.678 1.15172L218.589 6.52177C206.998 12.8038 193.782 16.4027 179.313 17.2212C177.241 17.3434 175.152 17.4044 173.043 17.4044L173.043 17.4049Z" fill="black"/>
<path d="M48.7158 151.912C47.7468 151.912 46.8023 151.452 46.2119 150.609C29.9673 127.382 15.5387 105.035 0.793878 80.2811C-0.0163032 78.9212 0.346019 77.1706 1.62848 76.2423C13.932 67.3505 25.6532 58.1411 36.9922 49.2333C48.6158 40.0972 60.6344 30.6519 73.5685 21.3081L77.1473 26.2588C64.3143 35.5332 52.3447 44.9382 40.7656 54.0374C30.0783 62.4366 19.0449 71.1044 7.47033 79.5522C21.1743 102.445 34.6628 123.334 49.6678 144.898C54.1992 142.5 58.2623 140.403 62.2155 138.364C66.9464 135.925 71.8359 133.401 77.5808 130.331L80.4552 135.717C74.67 138.807 69.7599 141.34 65.0128 143.787C60.3959 146.169 55.6203 148.632 50.1484 151.555C49.6965 151.799 49.2039 151.913 48.7153 151.913L48.7158 151.912Z" fill="black"/>
<path d="M293.681 151.912C293.192 151.912 292.7 151.793 292.244 151.553C286.768 148.63 281.996 146.167 277.379 143.785C272.632 141.334 267.722 138.802 261.937 135.716L264.811 130.329C270.56 133.399 275.45 135.919 280.177 138.362C284.13 140.402 288.193 142.499 292.724 144.897C307.731 123.335 321.223 102.446 334.922 79.5507C323.347 71.1029 312.318 62.4348 301.627 54.0359C290.052 44.9367 278.078 35.5317 265.245 26.2574L268.824 21.3066C281.758 30.6505 293.777 40.0999 305.4 49.2318C316.734 58.14 328.46 67.3532 340.764 76.2409C342.046 77.1691 342.408 78.9198 341.598 80.2796C326.856 105.033 312.423 127.379 296.18 150.608C295.59 151.45 294.645 151.91 293.68 151.91L293.681 151.912Z" fill="black"/>
<path d="M188.587 216.761C179.459 216.761 172.611 214.221 168.165 209.168C164.717 205.252 163.263 200.432 161.855 195.774C161.399 194.267 160.971 192.846 160.478 191.462C158.813 186.772 155.418 181.671 150.874 181.402C146.237 181.137 142.341 186.385 141.962 191.267C141.539 196.747 143.981 202.325 146.322 207.324C146.555 207.711 146.75 208.143 146.905 208.619C147.41 210.154 146.632 211.815 145.134 212.409C143.635 213.004 141.93 212.332 141.242 210.875C141.185 210.752 141.128 210.63 141.066 210.504C140.228 209.828 136.364 209.881 134.259 209.91C133.469 209.922 132.679 209.93 131.894 209.926C123.719 209.885 117.709 206.677 115.812 201.344C114.867 198.685 115.116 196.023 115.332 193.677C115.393 193.01 115.454 192.379 115.482 191.764C115.759 186.349 113.679 180.784 109.925 176.875C109.55 176.489 109.151 176.102 108.732 175.695C107.596 174.599 106.306 173.354 105.312 171.778C103.386 168.717 103.252 165.089 104.974 162.532C106.733 159.914 109.799 159.149 111.627 158.689C120.144 156.552 129.097 154.83 136.714 159.166C138.489 160.175 139.991 161.417 141.445 162.618C142.931 163.843 144.331 165 145.842 165.753C149.07 167.357 153.158 167.284 157.416 167.052C171.088 166.307 184.882 164.861 198.419 162.76L200.182 162.484C206.79 161.445 213.621 160.371 220.546 161.006C229.446 161.824 237.047 165.659 241.404 171.53C246.717 178.691 247.067 188.935 242.259 196.442C237.845 203.331 230.122 206.926 223.889 209.287C215.062 212.63 205.845 214.959 196.489 216.205C193.7 216.575 191.058 216.762 188.586 216.762L188.587 216.761ZM150.503 175.283C150.747 175.283 150.991 175.291 151.235 175.303C157.623 175.678 163.234 180.954 166.234 189.419C166.776 190.945 167.248 192.501 167.7 194.011C168.974 198.233 170.179 202.219 172.748 205.138C176.966 209.93 184.681 211.616 195.686 210.15C204.578 208.965 213.343 206.754 221.73 203.575C227.088 201.547 233.675 198.526 237.12 193.148C240.536 187.814 240.275 180.254 236.501 175.169C233.179 170.69 227.161 167.747 219.988 167.087C213.82 166.517 207.371 167.535 201.133 168.516L199.358 168.793C185.626 170.926 171.629 172.392 157.755 173.149C152.65 173.426 147.687 173.491 143.127 171.22C140.985 170.157 139.247 168.716 137.561 167.323C136.25 166.24 135.012 165.218 133.697 164.469C128.038 161.249 120.735 162.698 113.117 164.608C112.136 164.852 110.499 165.263 110.047 165.935C109.705 166.444 109.897 167.58 110.487 168.516C111.086 169.465 112.002 170.352 112.975 171.289C113.418 171.716 113.883 172.164 114.334 172.636C119.236 177.738 121.944 185.001 121.585 192.065C121.549 192.806 121.48 193.53 121.414 194.231C121.239 196.116 121.072 197.899 121.569 199.287C122.742 202.589 127.688 203.786 131.926 203.807C132.671 203.811 133.429 203.798 134.178 203.79C135.485 203.774 136.836 203.754 138.155 203.815C136.629 199.78 135.513 195.363 135.867 190.782C136.47 183.145 142.447 175.283 150.504 175.283L150.503 175.283Z" fill="black"/>
<path d="M208.827 166.083C201.34 158.046 194.423 151.259 185.588 149.615C180.544 148.674 175.158 149.55 169.946 150.401L144.773 154.496C142.111 154.928 139.354 155.38 137.132 156.544C135.527 157.383 133.728 158.995 133.479 160.994L127.417 160.241C127.873 156.557 130.446 153.149 134.294 151.133C137.396 149.509 140.792 148.955 143.788 148.467L168.961 144.371C174.421 143.483 180.609 142.474 186.704 143.61C198.238 145.759 206.938 155.099 213.293 161.918L208.827 166.083Z" fill="black"/>
<path d="M111.289 205.758C109.042 205.758 106.779 204.928 105.101 203.58C102.345 201.366 100.94 198.157 99.8409 195.324C97.5325 189.367 95.2484 181.636 98.1188 174.637C99.5112 171.242 101.966 169.1 104.849 168.762C110.154 168.144 113.17 173.558 114.164 175.333C116.997 180.406 120.218 188.223 119.497 196.651C119.31 198.837 118.825 201.601 116.741 203.633C115.206 205.119 113.252 205.758 111.289 205.758ZM105.618 174.825C105.594 174.825 105.573 174.825 105.553 174.829C105.077 174.886 104.307 175.635 103.766 176.954C101.726 181.925 103.513 187.914 105.533 193.113C106.384 195.303 107.344 197.551 108.924 198.817C110.052 199.725 111.778 199.937 112.478 199.257C113.125 198.626 113.321 197.172 113.41 196.13C114.001 189.241 111.249 182.638 108.83 178.31C107.067 175.15 105.984 174.825 105.618 174.825L105.618 174.825Z" fill="black"/>
<path d="M157.131 216.355C155.743 216.355 154.318 216.135 152.918 215.687C149.685 214.653 146.615 212.446 143.79 209.132C137.292 201.502 135.244 191.536 138.574 183.739C139.682 181.15 141.217 179.179 143.138 177.881C145.736 176.126 148.977 175.768 151.59 176.948C152.323 177.278 152.865 177.864 153.154 178.557C153.744 178.719 154.469 178.927 155.189 179.257C157.608 180.364 159.285 182.331 160.608 184.106C163.222 187.611 165.356 191.45 166.96 195.514C167.859 197.793 168.885 200.847 168.849 204.214C168.808 207.898 167.412 211.266 165.009 213.448C162.921 215.349 160.108 216.35 157.131 216.355ZM147.93 182.4C147.466 182.469 146.978 182.656 146.55 182.941C145.618 183.568 144.824 184.647 144.185 186.137C141.424 192.602 144.331 200.354 148.431 205.171C150.503 207.605 152.637 209.185 154.77 209.869C157.026 210.589 159.489 210.215 160.898 208.932C162.029 207.902 162.718 206.115 162.738 204.148C162.758 202.345 162.306 200.374 161.272 197.753C159.868 194.19 157.999 190.827 155.707 187.757C154.803 186.544 153.801 185.343 152.637 184.81C152.327 184.667 151.88 184.541 151.444 184.423C150.336 184.113 148.855 183.702 147.93 182.399L147.93 182.4Z" fill="black"/>
<path d="M138.607 135.441C135.114 126.932 128.343 119.799 120.026 115.87L122.635 110.349C132.313 114.921 140.191 123.223 144.254 133.12L138.607 135.441Z" fill="black"/>
<path d="M177.087 128.045L171.004 127.499C171.904 117.5 174.416 107.851 178.076 100.335L183.569 103.01C180.218 109.874 177.922 118.766 177.087 128.045Z" fill="black"/>
</svg>
