<svg id="svg" version="1.1" xmlns="http://www.w3.org/2000/svg" xmlns:xlink="http://www.w3.org/1999/xlink" width="400" height="400" viewBox="0, 0, 400,400"><g id="svgg"><path id="path0" d="M0.000 200.000 L 0.000 400.000 200.000 400.000 L 400.000 400.000 400.000 200.000 L 400.000 0.000 200.000 0.000 L 0.000 0.000 0.000 200.000 M213.400 81.977 C 266.046 91.151,294.946 153.172,270.396 204.289 C 241.478 264.499,161.683 264.930,131.993 205.037 C 101.640 143.806,149.866 70.905,213.400 81.977 M215.200 254.809 C 283.607 259.960,338.656 294.936,353.798 342.870 C 355.726 348.973,358.003 361.757,357.289 362.471 C 357.107 362.653,286.412 362.756,200.187 362.701 L 43.416 362.600 43.535 360.800 C 45.978 323.800,78.158 286.828,123.600 268.810 C 144.305 260.601,162.386 256.590,187.400 254.658 C 191.488 254.342,210.366 254.445,215.200 254.809 " stroke="none" fill="#e4e4e4" fill-rule="evenodd"></path><path id="path1" d="M195.200 81.628 C 192.670 81.804,189.700 82.143,188.600 82.382 C 181.458 83.930,178.566 84.725,175.400 86.012 C 174.740 86.280,173.840 86.639,173.400 86.810 C 168.785 88.603,159.772 93.728,156.071 96.663 C 150.335 101.213,143.828 107.862,140.259 112.819 C 139.237 114.239,138.221 115.617,138.001 115.883 C 137.780 116.149,137.600 116.448,137.600 116.548 C 137.600 116.648,136.962 117.691,136.183 118.865 C 134.687 121.118,129.600 131.187,129.600 131.894 C 129.600 132.122,129.331 132.824,129.002 133.454 C 128.674 134.084,128.404 134.885,128.402 135.233 C 128.401 135.582,128.271 135.995,128.114 136.153 C 127.728 136.538,126.177 142.227,124.824 148.219 C 122.798 157.186,122.882 172.990,125.012 183.470 C 125.819 187.445,127.398 193.085,128.331 195.326 C 128.589 195.945,128.800 196.674,128.800 196.946 C 128.800 197.218,128.950 197.611,129.134 197.820 C 129.318 198.029,129.784 199.058,130.170 200.107 C 131.068 202.548,134.938 210.081,136.443 212.320 C 137.079 213.266,137.600 214.196,137.600 214.387 C 137.600 214.577,137.735 214.793,137.900 214.867 C 138.065 214.940,138.821 215.900,139.579 217.000 C 140.338 218.100,141.064 219.090,141.193 219.200 C 141.322 219.310,142.135 220.300,143.000 221.400 C 145.300 224.324,151.801 230.707,154.800 232.987 C 156.230 234.073,157.490 235.061,157.600 235.181 C 158.911 236.614,167.500 241.443,172.400 243.502 C 186.323 249.352,204.312 250.999,217.200 247.603 C 220.442 246.748,224.656 245.520,225.400 245.213 C 225.840 245.031,227.190 244.480,228.400 243.989 C 247.975 236.034,262.811 220.970,272.114 199.600 C 280.814 179.615,280.816 151.326,272.118 131.200 C 269.309 124.700,263.347 114.244,261.171 112.000 C 260.850 111.670,259.978 110.590,259.232 109.600 C 257.762 107.649,247.701 97.600,247.218 97.600 C 247.055 97.600,246.490 97.217,245.961 96.748 C 242.764 93.914,232.324 88.059,227.168 86.208 C 221.891 84.314,221.346 84.155,216.000 82.953 C 210.476 81.712,201.872 81.164,195.200 81.628 M187.000 255.178 C 179.965 255.570,168.542 256.923,163.200 257.996 C 162.210 258.194,160.770 258.464,160.000 258.594 C 156.721 259.149,148.485 261.105,142.800 262.680 C 138.278 263.933,126.166 268.077,123.800 269.181 C 122.714 269.688,119.067 271.294,116.452 272.417 C 104.923 277.369,88.846 287.597,79.408 295.985 C 74.763 300.113,65.304 310.053,64.227 311.938 C 64.022 312.297,63.521 312.948,63.114 313.384 C 62.708 313.820,61.706 315.173,60.888 316.389 C 60.069 317.605,59.299 318.690,59.176 318.800 C 58.909 319.038,56.500 323.042,55.061 325.640 C 52.532 330.204,52.258 330.790,49.180 338.200 C 47.135 343.124,44.712 353.384,44.151 359.500 L 43.885 362.400 200.443 362.400 L 357.000 362.400 356.732 359.500 C 356.355 355.418,354.914 347.852,353.936 344.821 C 352.612 340.717,352.256 339.693,351.751 338.540 C 351.448 337.846,351.200 337.079,351.200 336.834 C 351.200 336.589,351.028 336.077,350.817 335.695 C 350.607 335.313,349.524 333.110,348.411 330.800 C 347.298 328.490,345.853 325.700,345.199 324.600 C 344.546 323.500,343.874 322.330,343.706 322.000 C 343.131 320.872,341.001 317.800,340.700 317.667 C 340.535 317.593,340.400 317.349,340.400 317.124 C 340.400 316.780,339.058 314.894,337.406 312.914 C 337.183 312.647,336.820 312.194,336.600 311.908 C 333.313 307.632,324.011 298.036,319.825 294.600 C 311.490 287.760,304.283 282.822,295.800 278.138 C 292.020 276.050,279.531 270.000,279.003 270.000 C 278.867 270.000,278.001 269.665,277.078 269.255 C 273.894 267.841,263.136 264.089,258.600 262.811 C 254.172 261.563,243.740 259.091,240.800 258.594 C 240.030 258.464,238.590 258.194,237.600 257.996 C 225.557 255.577,202.681 254.303,187.000 255.178 " stroke="none" fill="#abb3b4" fill-rule="evenodd"></path><path id="path2" d="M196.500 81.487 C 197.105 81.578,198.095 81.578,198.700 81.487 C 199.305 81.395,198.810 81.320,197.600 81.320 C 196.390 81.320,195.895 81.395,196.500 81.487 M203.300 81.487 C 203.905 81.578,204.895 81.578,205.500 81.487 C 206.105 81.395,205.610 81.320,204.400 81.320 C 203.190 81.320,202.695 81.395,203.300 81.487 M278.501 158.200 C 278.505 159.080,278.587 159.393,278.683 158.895 C 278.779 158.398,278.775 157.678,278.675 157.295 C 278.575 156.913,278.496 157.320,278.501 158.200 M278.501 172.600 C 278.505 173.480,278.587 173.793,278.683 173.295 C 278.779 172.798,278.775 172.078,278.675 171.695 C 278.575 171.313,278.496 171.720,278.501 172.600 M199.300 249.494 C 200.345 249.576,202.055 249.576,203.100 249.494 C 204.145 249.412,203.290 249.344,201.200 249.344 C 199.110 249.344,198.255 249.412,199.300 249.494 M199.091 254.689 C 199.801 254.777,201.061 254.779,201.891 254.692 C 202.721 254.605,202.140 254.533,200.600 254.531 C 199.060 254.529,198.381 254.600,199.091 254.689 M189.900 255.082 C 190.395 255.178,191.205 255.178,191.700 255.082 C 192.195 254.987,191.790 254.909,190.800 254.909 C 189.810 254.909,189.405 254.987,189.900 255.082 M209.100 255.082 C 209.595 255.178,210.405 255.178,210.900 255.082 C 211.395 254.987,210.990 254.909,210.000 254.909 C 209.010 254.909,208.605 254.987,209.100 255.082 " stroke="none" fill="#b4bcbc" fill-rule="evenodd"></path><path id="path3" d="M199.113 81.095 C 200.276 81.176,202.076 81.176,203.113 81.093 C 204.151 81.011,203.200 80.945,201.000 80.946 C 198.800 80.947,197.951 81.014,199.113 81.095 M192.705 81.483 C 193.202 81.579,193.922 81.575,194.305 81.475 C 194.687 81.375,194.280 81.296,193.400 81.301 C 192.520 81.305,192.207 81.387,192.705 81.483 M207.905 81.483 C 208.402 81.579,209.122 81.575,209.505 81.475 C 209.887 81.375,209.480 81.296,208.600 81.301 C 207.720 81.305,207.407 81.387,207.905 81.483 M184.200 82.800 C 183.181 83.238,184.232 83.238,185.600 82.800 C 186.404 82.543,186.443 82.477,185.800 82.468 C 185.360 82.462,184.640 82.611,184.200 82.800 M216.400 82.800 C 217.768 83.238,218.819 83.238,217.800 82.800 C 217.360 82.611,216.640 82.462,216.200 82.468 C 215.557 82.477,215.596 82.543,216.400 82.800 M179.800 84.000 C 179.296 84.217,179.222 84.344,179.600 84.344 C 179.930 84.344,180.560 84.189,181.000 84.000 C 181.504 83.783,181.578 83.656,181.200 83.656 C 180.870 83.656,180.240 83.811,179.800 84.000 M221.000 84.000 C 221.440 84.189,222.070 84.344,222.400 84.344 C 222.778 84.344,222.704 84.217,222.200 84.000 C 221.760 83.811,221.130 83.656,220.800 83.656 C 220.422 83.656,220.496 83.783,221.000 84.000 M240.400 92.521 C 240.400 92.612,241.435 93.351,242.700 94.163 C 243.965 94.975,244.508 95.221,243.906 94.710 C 242.718 93.700,240.400 92.253,240.400 92.521 M154.800 97.234 L 153.000 98.865 154.900 97.384 C 156.566 96.086,157.059 95.597,156.700 95.601 C 156.645 95.602,155.790 96.336,154.800 97.234 M150.981 100.500 L 149.400 102.200 151.100 100.619 C 152.681 99.148,152.984 98.800,152.681 98.800 C 152.616 98.800,151.851 99.565,150.981 100.500 M250.600 100.400 C 251.459 101.280,252.252 102.000,252.362 102.000 C 252.472 102.000,251.859 101.280,251.000 100.400 C 250.141 99.520,249.348 98.800,249.238 98.800 C 249.128 98.800,249.741 99.520,250.600 100.400 M257.000 106.800 C 257.859 107.680,258.652 108.400,258.762 108.400 C 258.872 108.400,258.259 107.680,257.400 106.800 C 256.541 105.920,255.748 105.200,255.638 105.200 C 255.528 105.200,256.141 105.920,257.000 106.800 M144.175 107.300 L 143.000 108.600 144.300 107.425 C 145.512 106.330,145.784 106.000,145.475 106.000 C 145.406 106.000,144.821 106.585,144.175 107.300 M261.619 112.400 C 262.968 114.270,264.264 115.980,264.499 116.200 C 265.240 116.893,261.679 111.860,260.393 110.397 C 259.718 109.629,260.270 110.530,261.619 112.400 M134.000 121.600 C 133.551 122.480,133.274 123.200,133.384 123.200 C 133.494 123.200,133.951 122.480,134.400 121.600 C 134.849 120.720,135.126 120.000,135.016 120.000 C 134.906 120.000,134.449 120.720,134.000 121.600 M127.029 137.429 C 126.881 138.015,126.838 138.572,126.932 138.666 C 127.027 138.760,127.224 138.358,127.371 137.771 C 127.519 137.185,127.562 136.628,127.468 136.534 C 127.373 136.440,127.176 136.842,127.029 137.429 M125.829 141.429 C 125.681 142.015,125.638 142.572,125.732 142.666 C 125.827 142.760,126.024 142.358,126.171 141.771 C 126.319 141.185,126.362 140.628,126.268 140.534 C 126.173 140.440,125.976 140.842,125.829 141.429 M275.656 140.800 C 275.656 141.130,275.811 141.760,276.000 142.200 C 276.217 142.704,276.344 142.778,276.344 142.400 C 276.344 142.070,276.189 141.440,276.000 141.000 C 275.783 140.496,275.656 140.422,275.656 140.800 M124.849 145.400 C 124.816 145.840,124.696 146.650,124.583 147.200 L 124.377 148.200 124.806 147.219 C 125.042 146.679,125.161 145.869,125.072 145.419 C 124.913 144.621,124.907 144.621,124.849 145.400 M123.693 152.400 C 123.693 153.170,123.775 153.485,123.876 153.100 C 123.976 152.715,123.976 152.085,123.876 151.700 C 123.775 151.315,123.693 151.630,123.693 152.400 M278.093 152.400 C 278.093 153.170,278.175 153.485,278.276 153.100 C 278.376 152.715,278.376 152.085,278.276 151.700 C 278.175 151.315,278.093 151.630,278.093 152.400 M278.493 155.200 C 278.493 155.970,278.575 156.285,278.676 155.900 C 278.776 155.515,278.776 154.885,278.676 154.500 C 278.575 154.115,278.493 154.430,278.493 155.200 M122.964 165.400 C 122.963 169.140,123.023 170.724,123.097 168.920 C 123.171 167.115,123.172 164.055,123.098 162.120 C 123.025 160.184,122.964 161.660,122.964 165.400 M278.924 161.000 C 278.926 162.320,279.001 162.812,279.090 162.093 C 279.179 161.374,279.177 160.294,279.086 159.693 C 278.995 159.092,278.922 159.680,278.924 161.000 M278.924 169.800 C 278.926 171.120,279.001 171.612,279.090 170.893 C 279.179 170.174,279.177 169.094,279.086 168.493 C 278.995 167.892,278.922 168.480,278.924 169.800 M278.493 175.600 C 278.493 176.370,278.575 176.685,278.676 176.300 C 278.776 175.915,278.776 175.285,278.676 174.900 C 278.575 174.515,278.493 174.830,278.493 175.600 M123.693 178.400 C 123.693 179.170,123.775 179.485,123.876 179.100 C 123.976 178.715,123.976 178.085,123.876 177.700 C 123.775 177.315,123.693 177.630,123.693 178.400 M124.662 184.200 C 124.796 185.080,124.972 185.875,125.053 185.967 C 125.356 186.310,125.129 184.168,124.781 183.400 C 124.529 182.842,124.493 183.085,124.662 184.200 M276.033 188.233 C 275.775 189.259,275.639 190.172,275.731 190.264 C 275.822 190.356,276.109 189.592,276.367 188.567 C 276.625 187.541,276.761 186.628,276.669 186.536 C 276.578 186.444,276.291 187.208,276.033 188.233 M125.656 188.400 C 125.656 188.730,125.811 189.360,126.000 189.800 C 126.217 190.304,126.344 190.378,126.344 190.000 C 126.344 189.670,126.189 189.040,126.000 188.600 C 125.783 188.096,125.656 188.022,125.656 188.400 M128.828 198.200 C 128.828 198.420,129.086 199.050,129.400 199.600 C 129.714 200.150,129.972 200.420,129.972 200.200 C 129.972 199.980,129.714 199.350,129.400 198.800 C 129.086 198.250,128.828 197.980,128.828 198.200 M135.387 211.575 C 135.721 212.221,136.176 212.861,136.398 212.999 C 136.620 213.136,136.423 212.607,135.961 211.824 C 134.948 210.107,134.535 209.928,135.387 211.575 M262.281 217.500 C 260.961 219.367,260.792 219.720,261.733 218.645 C 262.995 217.201,264.610 214.800,264.318 214.800 C 264.248 214.800,263.331 216.015,262.281 217.500 M139.200 217.032 C 139.200 217.428,142.401 221.558,142.958 221.881 C 143.201 222.022,143.109 221.792,142.753 221.369 C 142.397 220.946,141.452 219.731,140.653 218.669 C 139.854 217.608,139.200 216.871,139.200 217.032 M256.585 224.500 L 254.600 226.600 256.700 224.615 C 257.855 223.523,258.800 222.578,258.800 222.515 C 258.800 222.217,258.429 222.549,256.585 224.500 M145.800 225.200 C 147.106 226.520,148.265 227.600,148.375 227.600 C 148.485 227.600,147.506 226.520,146.200 225.200 C 144.894 223.880,143.735 222.800,143.625 222.800 C 143.515 222.800,144.494 223.880,145.800 225.200 M150.200 229.600 C 151.059 230.480,151.852 231.200,151.962 231.200 C 152.072 231.200,151.459 230.480,150.600 229.600 C 149.741 228.720,148.948 228.000,148.838 228.000 C 148.728 228.000,149.341 228.720,150.200 229.600 M250.000 230.881 C 248.186 232.600,247.791 233.082,249.000 232.099 C 250.918 230.541,253.540 227.979,253.175 228.019 C 253.079 228.030,251.650 229.318,250.000 230.881 M245.000 234.853 C 242.634 236.624,242.322 237.106,244.480 235.654 C 245.513 234.959,246.469 234.212,246.603 233.995 C 246.955 233.426,246.783 233.518,245.000 234.853 M170.000 243.000 C 170.550 243.314,171.180 243.572,171.400 243.572 C 171.620 243.572,171.350 243.314,170.800 243.000 C 170.250 242.686,169.620 242.428,169.400 242.428 C 169.180 242.428,169.450 242.686,170.000 243.000 M231.200 243.000 C 230.650 243.314,230.380 243.572,230.600 243.572 C 230.820 243.572,231.450 243.314,232.000 243.000 C 232.550 242.686,232.820 242.428,232.600 242.428 C 232.380 242.428,231.750 242.686,231.200 243.000 M181.400 247.200 C 181.840 247.389,182.470 247.544,182.800 247.544 C 183.178 247.544,183.104 247.417,182.600 247.200 C 182.160 247.011,181.530 246.856,181.200 246.856 C 180.822 246.856,180.896 246.983,181.400 247.200 M186.400 248.400 C 186.950 248.576,187.760 248.720,188.200 248.720 C 188.833 248.720,188.792 248.654,188.000 248.400 C 187.450 248.224,186.640 248.080,186.200 248.080 C 185.567 248.080,185.608 248.146,186.400 248.400 M214.000 248.400 C 213.208 248.654,213.167 248.720,213.800 248.720 C 214.240 248.720,215.050 248.576,215.600 248.400 C 216.392 248.146,216.433 248.080,215.800 248.080 C 215.360 248.080,214.550 248.224,214.000 248.400 M193.300 249.487 C 193.905 249.578,194.895 249.578,195.500 249.487 C 196.105 249.395,195.610 249.320,194.400 249.320 C 193.190 249.320,192.695 249.395,193.300 249.487 M206.500 249.487 C 207.105 249.578,208.095 249.578,208.700 249.487 C 209.305 249.395,208.810 249.320,207.600 249.320 C 206.390 249.320,205.895 249.395,206.500 249.487 M198.915 249.896 C 200.188 249.976,202.168 249.975,203.315 249.894 C 204.462 249.814,203.420 249.749,201.000 249.750 C 198.580 249.751,197.642 249.816,198.915 249.896 M190.512 254.695 C 191.564 254.777,193.184 254.776,194.112 254.692 C 195.040 254.608,194.180 254.541,192.200 254.542 C 190.220 254.543,189.460 254.612,190.512 254.695 M206.500 254.694 C 207.545 254.776,209.255 254.776,210.300 254.694 C 211.345 254.612,210.490 254.544,208.400 254.544 C 206.310 254.544,205.455 254.612,206.500 254.694 M183.891 255.089 C 184.601 255.177,185.861 255.179,186.691 255.092 C 187.521 255.005,186.940 254.933,185.400 254.931 C 183.860 254.929,183.181 255.000,183.891 255.089 M213.891 255.089 C 214.601 255.177,215.861 255.179,216.691 255.092 C 217.521 255.005,216.940 254.933,215.400 254.931 C 213.860 254.929,213.181 255.000,213.891 255.089 M179.700 255.476 C 180.085 255.576,180.715 255.576,181.100 255.476 C 181.485 255.375,181.170 255.293,180.400 255.293 C 179.630 255.293,179.315 255.375,179.700 255.476 M219.905 255.483 C 220.402 255.579,221.122 255.575,221.505 255.475 C 221.887 255.375,221.480 255.296,220.600 255.301 C 219.720 255.305,219.407 255.387,219.905 255.483 M172.305 256.283 C 172.802 256.379,173.522 256.375,173.905 256.275 C 174.287 256.175,173.880 256.096,173.000 256.101 C 172.120 256.105,171.807 256.187,172.305 256.283 M227.105 256.283 C 227.602 256.379,228.322 256.375,228.705 256.275 C 229.087 256.175,228.680 256.096,227.800 256.101 C 226.920 256.105,226.607 256.187,227.105 256.283 M165.000 257.200 C 163.930 257.472,163.908 257.505,164.800 257.505 C 165.350 257.505,166.340 257.368,167.000 257.200 C 168.070 256.928,168.092 256.895,167.200 256.895 C 166.650 256.895,165.660 257.032,165.000 257.200 M233.800 257.200 C 234.460 257.368,235.450 257.505,236.000 257.505 C 236.892 257.505,236.870 257.472,235.800 257.200 C 235.140 257.032,234.150 256.895,233.600 256.895 C 232.708 256.895,232.730 256.928,233.800 257.200 M158.400 258.400 C 157.056 258.831,158.508 258.831,160.200 258.400 C 161.278 258.126,161.298 258.094,160.400 258.087 C 159.850 258.083,158.950 258.224,158.400 258.400 M240.600 258.400 C 242.292 258.831,243.744 258.831,242.400 258.400 C 241.850 258.224,240.950 258.083,240.400 258.087 C 239.502 258.094,239.522 258.126,240.600 258.400 M145.000 261.600 C 144.496 261.817,144.422 261.944,144.800 261.944 C 145.130 261.944,145.760 261.789,146.200 261.600 C 146.704 261.383,146.778 261.256,146.400 261.256 C 146.070 261.256,145.440 261.411,145.000 261.600 M140.600 262.800 C 140.096 263.017,140.022 263.144,140.400 263.144 C 140.730 263.144,141.360 262.989,141.800 262.800 C 142.304 262.583,142.378 262.456,142.000 262.456 C 141.670 262.456,141.040 262.611,140.600 262.800 M259.000 262.800 C 259.440 262.989,260.070 263.144,260.400 263.144 C 260.778 263.144,260.704 263.017,260.200 262.800 C 259.760 262.611,259.130 262.456,258.800 262.456 C 258.422 262.456,258.496 262.583,259.000 262.800 M133.800 265.014 C 132.800 265.496,132.766 265.551,133.600 265.348 C 134.733 265.071,136.007 264.421,135.400 264.430 C 135.180 264.433,134.460 264.696,133.800 265.014 M274.400 267.933 C 274.730 268.136,275.450 268.424,276.000 268.571 C 276.695 268.757,276.817 268.725,276.400 268.467 C 276.070 268.264,275.350 267.976,274.800 267.829 C 274.105 267.643,273.983 267.675,274.400 267.933 M119.200 270.600 C 118.650 270.914,118.380 271.172,118.600 271.172 C 118.820 271.172,119.450 270.914,120.000 270.600 C 120.550 270.286,120.820 270.028,120.600 270.028 C 120.380 270.028,119.750 270.286,119.200 270.600 M280.800 270.600 C 281.350 270.914,281.980 271.172,282.200 271.172 C 282.420 271.172,282.150 270.914,281.600 270.600 C 281.050 270.286,280.420 270.028,280.200 270.028 C 279.980 270.028,280.250 270.286,280.800 270.600 M285.200 272.600 C 285.750 272.914,286.380 273.172,286.600 273.172 C 286.820 273.172,286.550 272.914,286.000 272.600 C 285.450 272.286,284.820 272.028,284.600 272.028 C 284.380 272.028,284.650 272.286,285.200 272.600 M102.500 279.029 C 101.125 279.809,100.000 280.539,100.000 280.653 C 100.000 280.874,104.348 278.506,104.980 277.940 C 105.684 277.310,105.013 277.605,102.500 279.029 M303.200 282.124 C 303.200 282.217,303.965 282.798,304.900 283.415 C 305.835 284.032,306.389 284.280,306.131 283.968 C 305.634 283.367,303.200 281.836,303.200 282.124 M90.879 286.435 C 88.636 288.084,88.728 288.363,91.000 286.800 C 92.565 285.723,93.114 285.200,92.679 285.200 C 92.612 285.200,91.802 285.756,90.879 286.435 M85.367 290.629 L 83.800 292.058 85.500 290.762 C 87.053 289.578,87.432 289.200,87.067 289.200 C 86.993 289.200,86.228 289.843,85.367 290.629 M80.175 294.900 L 79.000 296.200 80.300 295.025 C 81.512 293.930,81.784 293.600,81.475 293.600 C 81.406 293.600,80.821 294.185,80.175 294.900 M323.600 297.800 C 324.795 299.010,325.863 300.000,325.973 300.000 C 326.083 300.000,325.195 299.010,324.000 297.800 C 322.805 296.590,321.737 295.600,321.627 295.600 C 321.517 295.600,322.405 296.590,323.600 297.800 M76.585 298.100 L 74.600 300.200 76.700 298.215 C 77.855 297.123,78.800 296.178,78.800 296.115 C 78.800 295.817,78.429 296.149,76.585 298.100 M327.800 301.600 C 328.659 302.480,329.452 303.200,329.562 303.200 C 329.672 303.200,329.059 302.480,328.200 301.600 C 327.341 300.720,326.548 300.000,326.438 300.000 C 326.328 300.000,326.941 300.720,327.800 301.600 M69.200 305.400 C 68.228 306.390,67.523 307.200,67.633 307.200 C 67.743 307.200,68.628 306.390,69.600 305.400 C 70.572 304.410,71.277 303.600,71.167 303.600 C 71.057 303.600,70.172 304.410,69.200 305.400 M331.583 305.700 C 332.564 306.745,333.419 307.600,333.483 307.600 C 333.784 307.600,333.466 307.241,331.700 305.583 L 329.800 303.800 331.583 305.700 M335.989 310.900 C 337.378 312.605,338.590 314.000,338.684 314.000 C 338.955 314.000,335.211 309.332,334.297 308.530 C 333.839 308.128,334.601 309.195,335.989 310.900 M60.093 316.700 C 59.057 318.196,58.721 318.800,58.923 318.800 C 59.017 318.800,59.570 318.080,60.153 317.200 C 61.336 315.412,61.284 314.979,60.093 316.700 M53.000 328.400 C 52.443 329.500,52.077 330.400,52.187 330.400 C 52.297 330.400,52.843 329.500,53.400 328.400 C 53.957 327.300,54.323 326.400,54.213 326.400 C 54.103 326.400,53.557 327.300,53.000 328.400 M353.656 343.200 C 353.656 343.530,353.811 344.160,354.000 344.600 C 354.217 345.104,354.344 345.178,354.344 344.800 C 354.344 344.470,354.189 343.840,354.000 343.400 C 353.783 342.896,353.656 342.822,353.656 343.200 M45.829 347.029 C 45.681 347.615,45.638 348.172,45.732 348.266 C 45.827 348.360,46.024 347.958,46.171 347.371 C 46.319 346.785,46.362 346.228,46.268 346.134 C 46.173 346.040,45.976 346.442,45.829 347.029 M357.010 359.901 L 357.188 362.402 200.232 362.301 C 113.906 362.245,43.360 362.335,43.462 362.500 C 43.810 363.064,357.203 362.864,357.398 362.300 C 357.493 362.025,357.405 360.810,357.202 359.600 L 356.833 357.400 357.010 359.901 M43.714 359.800 C 43.717 360.900,43.795 361.303,43.887 360.695 C 43.979 360.086,43.977 359.186,43.882 358.695 C 43.787 358.203,43.711 358.700,43.714 359.800 " stroke="none" fill="#bcc4c4" fill-rule="evenodd"></path><path id="path4" d="M253.800 103.600 C 254.659 104.480,255.452 105.200,255.562 105.200 C 255.672 105.200,255.059 104.480,254.200 103.600 C 253.341 102.720,252.548 102.000,252.438 102.000 C 252.328 102.000,252.941 102.720,253.800 103.600 M196.100 254.676 C 196.485 254.776,197.115 254.776,197.500 254.676 C 197.885 254.575,197.570 254.493,196.800 254.493 C 196.030 254.493,195.715 254.575,196.100 254.676 " stroke="none" fill="#bcbcc2" fill-rule="evenodd"></path></g></svg>