<svg width="173" height="134" viewBox="0 0 173 134" fill="none" xmlns="http://www.w3.org/2000/svg">
<path d="M148.188 96.4839H64.9467C63.6225 96.4839 62.4613 95.6486 62.0538 94.3856L40.8258 30.7831C40.785 30.6813 40.7443 30.5794 40.7239 30.4776L32.5953 6.11164H3.05582C1.36492 6.11164 0 4.74669 0 3.05582C0 1.36491 1.36495 0 3.05582 0H34.8171C36.1413 0 37.3025 0.835265 37.71 2.09829L45.8792 26.6259H169.479C170.456 26.6259 171.394 27.0944 171.964 27.889C172.534 28.6835 172.697 29.7022 172.392 30.6392L151.124 94.405C150.676 95.6477 149.514 96.483 148.19 96.483L148.188 96.4839ZM67.1476 90.3722H145.989L165.22 32.7187H47.9153L67.1476 90.3722Z" fill="black"/>
<path d="M79.8591 133.62C72.2602 133.62 66.067 127.427 66.067 119.828C66.067 112.229 72.2602 106.036 79.8591 106.036C87.4579 106.036 93.6511 112.229 93.6511 119.828C93.6511 127.427 87.4579 133.62 79.8591 133.62ZM79.8591 112.147C75.6216 112.147 72.1786 115.59 72.1786 119.827C72.1786 124.065 75.6216 127.508 79.8591 127.508C84.0965 127.508 87.5395 124.065 87.5395 119.827C87.5395 115.59 84.0965 112.147 79.8591 112.147Z" fill="black"/>
<path d="M133.276 133.62C125.677 133.62 119.484 127.427 119.484 119.828C119.484 112.229 125.677 106.036 133.276 106.036C140.875 106.036 147.068 112.229 147.068 119.828C147.068 127.427 140.875 133.62 133.276 133.62ZM133.276 112.147C129.039 112.147 125.596 115.59 125.596 119.827C125.596 124.065 129.039 127.508 133.276 127.508C137.513 127.508 140.956 124.065 140.956 119.827C140.956 115.59 137.513 112.147 133.276 112.147Z" fill="black"/>
</svg>
