<svg width="26" height="20" viewBox="0 0 26 20" fill="none" xmlns="http://www.w3.org/2000/svg">
<path d="M2.33333 2.28571L10.4768 8.21577L10.4796 8.21794C11.3838 8.85737 11.8362 9.17727 12.3317 9.30085C12.7696 9.41008 13.23 9.41008 13.668 9.30085C14.1639 9.17716 14.6176 8.85632 15.5234 8.21577C15.5234 8.21577 20.7468 4.35049 23.6667 2.28571M1 14.886V5.11454C1 3.6744 1 2.9538 1.29065 2.40374C1.54631 1.91989 1.95396 1.5268 2.45573 1.28027C3.02616 1 3.77345 1 5.26693 1H20.7336C22.2271 1 22.9728 1 23.5432 1.28027C24.045 1.5268 24.454 1.91989 24.7096 2.40374C25 2.95326 25 3.67299 25 5.11031V14.8903C25 16.3276 25 17.0463 24.7096 17.5958C24.454 18.0797 24.045 18.4735 23.5432 18.72C22.9733 19 22.228 19 20.7375 19H5.26255C3.77199 19 3.0256 19 2.45573 18.72C1.95396 18.4735 1.54631 18.0797 1.29065 17.5958C1 17.0458 1 16.3261 1 14.886Z" stroke="#3D52A0" stroke-width="2" stroke-linecap="round" stroke-linejoin="round"/>
</svg>
