<svg width="24" height="24" viewBox="0 0 24 24" fill="none" xmlns="http://www.w3.org/2000/svg">
<path d="M12.0002 4.39686L10.9247 3.21767C8.4001 0.449676 3.77096 1.40487 2.09991 4.88486C1.31538 6.52166 1.13838 8.88485 2.57092 11.9008C3.95096 14.8048 6.82205 18.2832 12.0002 22.072C17.1784 18.2832 20.048 14.8048 21.4295 11.9008C22.862 8.88325 22.6865 6.52166 21.9005 4.88486C20.2295 1.40487 15.6003 0.448076 13.0757 3.21607L12.0002 4.39686ZM12.0002 24C-11 7.78885 4.91849 -4.86391 11.7362 1.82887C11.8262 1.91687 11.9147 2.00807 12.0002 2.10247C12.0848 2.00816 12.1729 1.91742 12.2642 1.83047C19.0804 -4.86711 35.0004 7.78725 12.0002 24Z" fill="#3D52A0"/>
</svg>
