<svg width="21" height="22" viewBox="0 0 21 22" fill="none" xmlns="http://www.w3.org/2000/svg">
<path d="M0 1.02385C0 0.832018 0.0719934 0.64804 0.200143 0.512392C0.328292 0.376743 0.502099 0.300537 0.683329 0.300537H2.73332C2.88574 0.300582 3.03378 0.35457 3.15388 0.453916C3.27398 0.553262 3.35926 0.692262 3.39615 0.848811L3.94964 3.1938H19.8166C19.9169 3.1939 20.016 3.21739 20.1068 3.26259C20.1976 3.3078 20.2778 3.37361 20.3419 3.45536C20.4059 3.53711 20.4522 3.63279 20.4774 3.73559C20.5026 3.8384 20.506 3.94582 20.4876 4.05021L18.4376 15.6233C18.4083 15.789 18.3252 15.9387 18.2027 16.0465C18.0801 16.1543 17.9259 16.2134 17.7666 16.2135H5.46663C5.30733 16.2134 5.15308 16.1543 5.03055 16.0465C4.90802 15.9387 4.82492 15.789 4.79561 15.6233L2.74698 4.07191L2.20032 1.74717H0.683329C0.502099 1.74717 0.328292 1.67096 0.200143 1.53532C0.0719934 1.39967 0 1.21569 0 1.02385ZM4.23938 4.64044L6.0338 14.7669H17.1994L18.9938 4.64044H4.23938ZM6.83329 16.2135C6.10837 16.2135 5.41314 16.5183 4.90055 17.0609C4.38795 17.6035 4.09998 18.3394 4.09998 19.1068C4.09998 19.8741 4.38795 20.61 4.90055 21.1526C5.41314 21.6952 6.10837 22 6.83329 22C7.55821 22 8.25344 21.6952 8.76604 21.1526C9.27864 20.61 9.56661 19.8741 9.56661 19.1068C9.56661 18.3394 9.27864 17.6035 8.76604 17.0609C8.25344 16.5183 7.55821 16.2135 6.83329 16.2135ZM16.3999 16.2135C15.675 16.2135 14.9798 16.5183 14.4672 17.0609C13.9546 17.6035 13.6666 18.3394 13.6666 19.1068C13.6666 19.8741 13.9546 20.61 14.4672 21.1526C14.9798 21.6952 15.675 22 16.3999 22C17.1248 22 17.8201 21.6952 18.3327 21.1526C18.8452 20.61 19.1332 19.8741 19.1332 19.1068C19.1332 18.3394 18.8452 17.6035 18.3327 17.0609C17.8201 16.5183 17.1248 16.2135 16.3999 16.2135ZM6.83329 17.6601C7.19575 17.6601 7.54337 17.8126 7.79967 18.0839C8.05597 18.3552 8.19995 18.7231 8.19995 19.1068C8.19995 19.4904 8.05597 19.8584 7.79967 20.1297C7.54337 20.401 7.19575 20.5534 6.83329 20.5534C6.47083 20.5534 6.12322 20.401 5.86692 20.1297C5.61062 19.8584 5.46663 19.4904 5.46663 19.1068C5.46663 18.7231 5.61062 18.3552 5.86692 18.0839C6.12322 17.8126 6.47083 17.6601 6.83329 17.6601ZM16.3999 17.6601C16.7624 17.6601 17.11 17.8126 17.3663 18.0839C17.6226 18.3552 17.7666 18.7231 17.7666 19.1068C17.7666 19.4904 17.6226 19.8584 17.3663 20.1297C17.11 20.401 16.7624 20.5534 16.3999 20.5534C16.0374 20.5534 15.6898 20.401 15.4335 20.1297C15.1772 19.8584 15.0332 19.4904 15.0332 19.1068C15.0332 18.7231 15.1772 18.3552 15.4335 18.0839C15.6898 17.8126 16.0374 17.6601 16.3999 17.6601Z" fill="white"/>
</svg>
