<svg width="24" height="24" viewBox="0 0 24 24" fill="none" xmlns="http://www.w3.org/2000/svg">
<path d="M22.2243 0H1.77087C1.76447 0 1.75727 0 1.74927 0C0.789811 0 0.011203 0.771406 0 1.72766V22.2707C0.011203 23.2278 0.789811 24 1.74927 24C1.75727 24 1.76447 24 1.77247 24H22.2219C22.2283 24 22.2363 24 22.2443 24C23.2046 24 23.9848 23.2294 24 22.2723V22.2707V1.72926C23.9848 0.771406 23.2046 0 22.2435 0C22.2355 0 22.2283 0 22.2203 0H22.2243ZM7.1179 20.4519H3.55375V9H7.1179V20.4519ZM5.33662 7.43318C4.19632 7.43318 3.27287 6.50894 3.27287 5.36943C3.27287 4.22993 4.19712 3.30568 5.33662 3.30568C6.47613 3.30568 7.40037 4.22913 7.40037 5.36863C7.40037 5.36943 7.40037 5.37023 7.40037 5.37183C7.40037 6.51054 6.47693 7.43398 5.33822 7.43398C5.33742 7.43398 5.33662 7.43398 5.33582 7.43398L5.33662 7.43318ZM20.4463 20.4519H16.8925V14.8832C16.8925 13.5548 16.8653 11.8464 15.0408 11.8464C13.1875 11.8464 12.905 13.2915 12.905 14.7855V20.4527H9.35129V9.0008H12.765V10.562H12.8114C13.474 9.44572 14.6727 8.70952 16.0435 8.70952C16.0923 8.70952 16.1403 8.71032 16.1883 8.71192H16.1811C19.7821 8.71192 20.4479 11.0822 20.4479 14.167V20.4527L20.4463 20.4519Z" fill="#3D52A0"/>
</svg>
