<svg width="33" height="33" viewBox="0 0 33 33" fill="none" xmlns="http://www.w3.org/2000/svg">
<path d="M16.9119 8.13251L1 24.0442V32L8.95594 32L24.8678 16.0883M16.9119 8.13251L22.6175 2.42688L22.621 2.4235C23.4064 1.63809 23.7998 1.24469 24.2533 1.09735C24.6528 0.967551 25.0831 0.967551 25.4826 1.09735C25.9357 1.24459 26.3287 1.63754 27.113 2.42183L30.5734 5.88221C31.3611 6.66987 31.7551 7.06389 31.9027 7.51802C32.0325 7.91749 32.0324 8.34779 31.9026 8.74726C31.7552 9.20107 31.3618 9.59449 30.5752 10.381L30.5735 10.3827L24.8678 16.0883M16.9119 8.13251L24.8678 16.0883" stroke="#3D52A0" stroke-width="2" stroke-linecap="round" stroke-linejoin="round"/>
</svg>
