<svg width="33" height="41" viewBox="0 0 33 41" fill="none" xmlns="http://www.w3.org/2000/svg">
<path d="M16.4914 0C7.43188 0 0.0570374 7.37484 0.0570374 16.4344C0.0570374 17.4658 0.151586 18.5059 0.34928 19.5201C0.357876 19.5803 0.392258 19.7608 0.461021 20.0702C0.710287 21.179 1.07989 22.2707 1.56123 23.3107C3.33188 27.4795 7.22559 33.883 15.7694 40.7421C15.9843 40.914 16.2422 41 16.5 41C16.7579 41 17.0157 40.914 17.2306 40.7421C25.7658 33.883 29.6681 27.4795 31.4388 23.3107C31.9201 22.2707 32.2897 21.1876 32.539 20.0702C32.6078 19.7608 32.6422 19.5803 32.6507 19.5201C32.8398 18.5059 32.943 17.4658 32.943 16.4344C32.9258 7.37484 25.551 0 16.4914 0ZM30.3472 19.1161C30.3472 19.1333 30.3386 19.1505 30.3386 19.1677C30.33 19.2107 30.3042 19.3396 30.2612 19.5373C30.2612 19.5459 30.2612 19.5459 30.2612 19.5545C30.0463 20.5172 29.7283 21.4541 29.3071 22.3566C29.2985 22.3652 29.2985 22.3824 29.2899 22.391C27.6826 26.1987 24.1585 32.0092 16.4914 38.344C8.82433 32.0092 5.30022 26.1987 3.69289 22.391C3.68429 22.3824 3.68429 22.3652 3.6757 22.3566C3.26312 21.4627 2.94509 20.5172 2.72161 19.5545C2.72161 19.5459 2.72161 19.5459 2.72161 19.5373C2.67003 19.3396 2.65284 19.2107 2.64425 19.1677C2.64425 19.1505 2.63565 19.1333 2.63565 19.1075C2.46375 18.2222 2.37779 17.3283 2.37779 16.4258C2.37779 8.64696 8.71259 2.31216 16.4914 2.31216C24.2702 2.31216 30.605 8.64696 30.605 16.4258C30.605 17.3369 30.5191 18.2394 30.3472 19.1161Z" fill="white"/>
<path d="M16.4914 6.18018C10.7411 6.18018 6.05661 10.8647 6.05661 16.615C6.05661 22.3653 10.7411 27.0498 16.4914 27.0498C22.2417 27.0498 26.9262 22.3653 26.9262 16.615C26.9262 10.8647 22.2417 6.18018 16.4914 6.18018ZM16.4914 24.729C12.0132 24.729 8.37736 21.0846 8.37736 16.615C8.37736 12.1454 12.0218 8.50093 16.4914 8.50093C20.961 8.50093 24.6055 12.1454 24.6055 16.615C24.6055 21.0846 20.9696 24.729 16.4914 24.729Z" fill="white"/>
</svg>
