<svg width="40" height="31" viewBox="0 0 40 31" fill="none" xmlns="http://www.w3.org/2000/svg">
<path d="M34.6085 0H4.82055C2.1615 0 0 2.22494 0 4.96204V25.9185C0 28.6556 2.1615 30.8805 4.82055 30.8805H34.6003C37.2594 30.8805 39.4209 28.6556 39.4209 25.9185V4.97044C39.429 2.23334 37.2675 0 34.6085 0ZM37.2267 25.9185C37.2267 27.4046 36.0522 28.6136 34.6085 28.6136H4.82055C3.37683 28.6136 2.20228 27.4046 2.20228 25.9185V4.97044C2.20228 3.48434 3.37683 2.27532 4.82055 2.27532H34.6003C36.044 2.27532 37.2186 3.48434 37.2186 4.97044V25.9185H37.2267Z" fill="white"/>
<path d="M24.8613 15.1802L34.5024 6.28038C34.951 5.86058 34.9918 5.14692 34.584 4.67674C34.1762 4.21496 33.4829 4.17298 33.0261 4.59278L19.7308 16.8761L17.137 14.4917C17.1289 14.4833 17.1207 14.4749 17.1207 14.4665C17.0636 14.4077 17.0065 14.3573 16.9413 14.307L6.38661 4.58438C5.92984 4.16458 5.23652 4.20656 4.82869 4.67674C4.42086 5.14692 4.46165 5.86058 4.91842 6.28038L14.6737 15.2557L4.9592 24.6173C4.51874 25.0455 4.49427 25.7591 4.91026 26.2209C5.13049 26.456 5.42413 26.5819 5.71776 26.5819C5.98693 26.5819 6.2561 26.4812 6.46817 26.2797L16.3295 16.7838L19.0049 19.2438C19.2169 19.4369 19.478 19.5293 19.739 19.5293C20 19.5293 20.2692 19.4285 20.4731 19.2354L23.2218 16.6998L33.0261 26.2881C33.2382 26.498 33.5155 26.5987 33.7847 26.5987C34.0783 26.5987 34.3638 26.4812 34.584 26.2461C35 25.7927 34.9837 25.0707 34.5432 24.6425L24.8613 15.1802Z" fill="white"/>
</svg>
