<svg width="33" height="32" viewBox="0 0 33 32" fill="none" xmlns="http://www.w3.org/2000/svg">
<path d="M9.33334 0.25C4.38654 0.25 0.375 4.16825 0.375 9V23C0.375 27.8318 4.38654 31.75 9.33334 31.75H23.6667C28.6135 31.75 32.625 27.8318 32.625 23V9C32.625 4.16825 28.6135 0.25 23.6667 0.25H9.33334ZM27.25 3.75C28.239 3.75 29.0417 4.534 29.0417 5.5C29.0417 6.466 28.239 7.25 27.25 7.25C26.261 7.25 25.4583 6.466 25.4583 5.5C25.4583 4.534 26.261 3.75 27.25 3.75ZM16.5 7.25C21.4468 7.25 25.4583 11.1683 25.4583 16C25.4583 20.8318 21.4468 24.75 16.5 24.75C11.5532 24.75 7.54167 20.8318 7.54167 16C7.54167 11.1683 11.5532 7.25 16.5 7.25ZM16.5 10.75C13.5315 10.75 11.125 13.1005 11.125 16C11.125 18.8995 13.5315 21.25 16.5 21.25C19.4685 21.25 21.875 18.8995 21.875 16C21.875 13.1005 19.4685 10.75 16.5 10.75Z" fill="white"/>
</svg>
