<svg width="37" height="39" viewBox="0 0 37 39" fill="none" xmlns="http://www.w3.org/2000/svg">
<path d="M29.2148 23.5928C28.4573 22.781 27.5436 22.3469 26.5753 22.3469C25.6148 22.3469 24.6933 22.7729 23.9046 23.5848L21.4369 26.1169C21.2339 26.0043 21.0308 25.8998 20.8356 25.7953C20.5545 25.6506 20.289 25.514 20.0625 25.3693C17.751 23.8581 15.6503 21.8887 13.6356 19.3406C12.6595 18.0705 12.0035 17.0014 11.5271 15.9162C12.1675 15.3134 12.761 14.6864 13.3389 14.0835C13.5575 13.8584 13.7762 13.6253 13.9948 13.4002C15.6347 11.7122 15.6347 9.52578 13.9948 7.83774L11.8629 5.64328C11.6208 5.39409 11.371 5.13687 11.1367 4.87964C10.6681 4.38126 10.1762 3.86681 9.66857 3.38451C8.91109 2.61283 8.00523 2.20288 7.05252 2.20288C6.09981 2.20288 5.17833 2.61283 4.39742 3.38451C4.38962 3.39255 4.38962 3.39255 4.38181 3.40059L1.72671 6.15773C0.727144 7.18664 0.157079 8.44061 0.0321333 9.89555C-0.155285 12.2427 0.516298 14.4292 1.0317 15.86C2.29677 19.3727 4.18658 22.6282 7.00567 26.1169C10.4261 30.3209 14.5415 33.6407 19.2425 35.9799C21.0386 36.856 23.436 37.893 26.1146 38.0698C26.2785 38.0779 26.4503 38.0859 26.6065 38.0859C28.4104 38.0859 29.9254 37.4187 31.1124 36.0924C31.1202 36.0763 31.1358 36.0683 31.1436 36.0522C31.5497 35.5458 32.0182 35.0876 32.5102 34.5973C32.846 34.2677 33.1896 33.9221 33.5254 33.5603C34.2985 32.7324 34.7046 31.7678 34.7046 30.7791C34.7046 29.7823 34.2907 28.8258 33.502 28.0219L29.2148 23.5928ZM32.0104 32.0572C32.0026 32.0572 32.0026 32.0652 32.0104 32.0572C31.7059 32.3948 31.3935 32.7002 31.0577 33.0378C30.5501 33.5362 30.0347 34.0587 29.5506 34.6455C28.7618 35.5136 27.8326 35.9236 26.6143 35.9236C26.4972 35.9236 26.3723 35.9236 26.2551 35.9156C23.9358 35.7628 21.7805 34.8304 20.164 34.0346C15.7441 31.8321 11.8629 28.7052 8.63777 24.7423C5.97486 21.4386 4.19439 18.384 3.01521 15.1044C2.28897 13.1028 2.02346 11.5434 2.14059 10.0724C2.21868 9.13191 2.57009 8.35219 3.21825 7.68501L5.88115 4.94395C6.2638 4.57418 6.66987 4.37322 7.06814 4.37322C7.56011 4.37322 7.95838 4.67868 8.20827 4.93591C8.21608 4.94395 8.22389 4.95198 8.2317 4.96002C8.70805 5.41821 9.16098 5.89247 9.63733 6.39888C9.87942 6.65611 10.1293 6.91333 10.3792 7.1786L12.5111 9.37306C13.3389 10.2251 13.3389 11.0129 12.5111 11.8649C12.2846 12.098 12.066 12.3312 11.8395 12.5562C11.1835 13.2475 10.5588 13.8906 9.87942 14.5176C9.8638 14.5337 9.84818 14.5417 9.84037 14.5578C9.16879 15.2491 9.29373 15.9243 9.4343 16.3825C9.44211 16.4066 9.44992 16.4307 9.45773 16.4548C10.0122 17.8374 10.7931 19.1396 11.9801 20.691L11.9879 20.699C14.1432 23.4321 16.4156 25.5622 18.9224 27.194C19.2425 27.403 19.5705 27.5718 19.8829 27.7326C20.164 27.8773 20.4295 28.0139 20.656 28.1586C20.6872 28.1747 20.7185 28.1988 20.7497 28.2149C21.0152 28.3515 21.2651 28.4158 21.5228 28.4158C22.171 28.4158 22.577 27.9978 22.7098 27.8612L25.3805 25.1121C25.646 24.8388 26.0677 24.5092 26.5597 24.5092C27.0438 24.5092 27.4421 24.8227 27.6842 25.096C27.692 25.104 27.692 25.104 27.6998 25.1121L32.0026 29.5412C32.807 30.3611 32.807 31.2051 32.0104 32.0572Z" fill="white"/>
<path d="M19.9688 9.0597C22.0148 9.41339 23.8733 10.4101 25.3571 11.9374C26.8408 13.4647 27.8013 15.3778 28.1527 17.4839C28.2386 18.0144 28.6837 18.3841 29.1913 18.3841C29.2538 18.3841 29.3085 18.3761 29.3709 18.3681C29.9488 18.2716 30.3315 17.7089 30.2378 17.1141C29.8161 14.5659 28.6447 12.2429 26.8564 10.4021C25.0681 8.56133 22.8113 7.35558 20.3358 6.92151C19.7579 6.82505 19.2191 7.21893 19.1176 7.80572C19.0161 8.39252 19.3909 8.96324 19.9688 9.0597Z" fill="white"/>
<path d="M36.9301 16.8005C36.2351 12.6045 34.3141 8.78634 31.3622 5.74786C28.4104 2.70938 24.7011 0.731954 20.6247 0.016544C20.0547 -0.087954 19.5158 0.313962 19.4143 0.900758C19.3206 1.49559 19.7033 2.05024 20.2811 2.15473C23.9202 2.78976 27.239 4.56623 29.8785 7.27514C32.518 9.99209 34.236 13.4084 34.8529 17.1542C34.9388 17.6848 35.3839 18.0545 35.8915 18.0545C35.954 18.0545 36.0087 18.0465 36.0711 18.0384C36.6412 17.95 37.0317 17.3873 36.9301 16.8005Z" fill="white"/>
</svg>
