<?xml version="1.0" encoding="UTF-8"?>
<svg id="OBJECTS" xmlns="http://www.w3.org/2000/svg" width="49.37mm" height="60.24mm" viewBox="0 0 139.95 170.77">
  <defs>
    <style>
      .cls-1 {
        stroke-width: 1px;
      }

      .cls-1, .cls-2, .cls-3, .cls-4 {
        stroke: #fff;
      }

      .cls-1, .cls-2, .cls-4 {
        fill: #fff;
      }

      .cls-1, .cls-3, .cls-4 {
        stroke-linecap: round;
        stroke-linejoin: round;
      }

      .cls-3 {
        fill: none;
        stroke-width: 5px;
      }

      .cls-4 {
        stroke-width: 2px;
      }
    </style>
  </defs>
  <ellipse class="cls-3" cx="69.98" cy="70.74" rx="67.48" ry="68.24"/>
  <g>
    <path class="cls-2" d="M31.37,40.11c1.27,2.42.83,5.41-1.84,9.09-3.3,4.69-7.2,6.18-10.81,4.5-3.39-1.5-5-6.7-.54-13.05,3.75-5.09,7.48-5.51,9.42-4.26-1.07,1.09-2.1,2.22-3.1,3.41-1.09-.34-2.7-.15-4.52,2.36-2.36,3.35-1.2,5.95.95,7.19,2.03,1.2,4.68,1.33,6.81-1.67,1.59-2.17,1.16-3.62.78-4.44.92-1.09,1.86-2.13,2.85-3.13Z"/>
    <path class="cls-2" d="M36.13,34.21c1.12,1.46,2.24,2.93,3.37,4.39-.97.75-1.92,1.53-2.84,2.36-3.06-3.44-6.12-6.89-9.18-10.33,2.44-2.19,5.03-4.15,7.72-5.89,4.06-2.59,7.14-2.11,8.05-.21.82,1.66-.02,3.19-1.03,4.23.97-.26,2.57-.27,3.68,1.94.1.2.21.41.31.61.42.83.91,1.77,1.41,2.24-1.04.52-2.07,1.07-3.08,1.67-.57-.37-1.15-1.22-1.91-2.48-.03-.06-.07-.12-.1-.17-.77-1.28-1.61-1.69-4.18.04-.75.52-1.48,1.05-2.21,1.61ZM34.68,32.32c.96-.74,1.95-1.44,2.95-2.12,1.96-1.3,2.44-2.26,1.85-3.27-.57-.96-1.86-.97-3.73.27-1.09.73-2.16,1.5-3.21,2.3.72.93,1.43,1.87,2.15,2.8Z"/>
    <path class="cls-2" d="M49.48,17.85c.89,2.59,1.78,5.19,2.66,7.78.88,2.5,2.77,2.68,4.59,2.21,2.09-.54,3.25-1.68,2.79-4.15-.53-2.69-1.06-5.38-1.59-8.07,1.52-.29,3.04-.53,4.58-.71.33,2.67.66,5.34.98,8.01.5,4.69-2.66,6.24-6.2,7.19-3.63.93-7.12,1.08-9-3.14-1.06-2.5-2.12-4.99-3.19-7.49,1.44-.6,2.89-1.15,4.37-1.64Z"/>
    <path class="cls-2" d="M80.8,23.25c-2.95-.54-5.93-.85-8.93-.92-.03,1.17-.06,2.34-.09,3.5,3.1.08,6.19.42,9.23,1.03-.31.77-.62,1.54-.91,2.31-3.92-.75-7.92-1.04-11.9-.87-.2-4.59-.4-9.19-.59-13.78,5.05-.21,10.12.15,15.09,1.1-.16.8-.31,1.6-.47,2.4-3.37-.64-6.78-1-10.2-1.09-.03.98-.05,1.97-.08,2.95,3.12.08,6.24.4,9.31.96-.15.8-.3,1.6-.45,2.4Z"/>
    <path class="cls-2" d="M86.72,16.51c1.5.38,2.98.82,4.45,1.31-1.22,3.58-2.44,7.17-3.66,10.75,2.79.93,5.51,2.1,8.13,3.5-.52.65-1.03,1.3-1.54,1.96-3.48-1.82-7.13-3.21-10.89-4.17,1.17-4.45,2.33-8.9,3.5-13.35Z"/>
    <path class="cls-2" d="M103.41,26.27c-1.81-1.13-3.66-2.16-5.56-3.08.36-.73.72-1.46,1.08-2.2,5.34,2.6,10.37,5.99,14.91,10.14-.55.6-1.1,1.21-1.65,1.81-1.6-1.47-3.27-2.84-5-4.11-2.25,3.05-4.49,6.11-6.74,9.16-1.01-.74-2.04-1.44-3.09-2.1,2.02-3.21,4.03-6.42,6.05-9.63Z"/>
    <path class="cls-2" d="M109.9,47.14c1.27-1.02,2.54-2.04,3.8-3.06.12-.1.21-.21.24-.41.76-3.59,1.21-7.33,1.32-11.18,1.32,1.29,2.59,2.64,3.8,4.06-.39,2.73-1.24,6.18-1.85,7.91,1.7-.14,5.46.21,8.11.76.94,1.55,1.82,3.16,2.66,4.84-3.8-1.32-7.56-2.16-11.22-2.59-.13-.02-.23-.05-.46.11-1.36.92-2.71,1.85-4.07,2.77-.75-1.12-1.53-2.19-2.35-3.22Z"/>
  </g>
  <g>
    <path class="cls-2" d="M36.19,143.69c4.32,1.92,8.76,3.46,13.27,4.62-.28,1.1-.57,2.21-.85,3.31-3.27-.84-6.51-1.88-9.69-3.1-.57,1.47-1.13,2.94-1.7,4.41,3.14,1.21,6.33,2.24,9.56,3.1-.29,1.1-.59,2.2-.88,3.31-3.34-.89-6.65-1.96-9.91-3.21-.93,2.41-1.85,4.81-2.78,7.22-1.63-.63-3.25-1.3-4.85-2.01,2.61-5.88,5.22-11.76,7.83-17.64Z"/>
    <path class="cls-2" d="M55.45,161.37c-.41,2.54-.81,5.09-1.22,7.63-1.7-.27-3.4-.58-5.09-.94,1.33-6.3,2.65-12.59,3.98-18.89,2.86.6,5.75,1.06,8.65,1.36,4.28.43,6.56,2.73,6.52,5.73-.05,2.59-1.69,3.95-3.34,4.43,1.07.42,2.7,1.47,2.61,4.93,0,.32-.02.64-.03.95-.04,1.3-.07,2.78.24,3.69-1.67-.05-3.33-.13-4.99-.26-.36-.87-.33-2.32-.16-4.36,0-.09.02-.19.02-.28.17-2.12-.39-3.11-4-3.54-1.06-.13-2.13-.28-3.19-.45ZM55.97,158.08c1.3.21,2.61.39,3.92.54,2.58.29,3.64-.53,3.75-2.13.11-1.57-.92-2.51-3.08-2.76-1.28-.15-2.55-.32-3.82-.52-.26,1.62-.52,3.25-.78,4.87Z"/>
    <path class="cls-2" d="M88.44,160.29c-3.53.67-7.09,1.14-10.66,1.4.12,1.63.24,3.26.37,4.89,4.14-.31,8.26-.88,12.35-1.7.03,1.16.05,2.32.06,3.48-5.7,1.11-11.48,1.75-17.27,1.89-.17-6.43-.33-12.86-.5-19.3,4.7-.12,9.38-.63,14.01-1.53.22,1.12.44,2.24.65,3.36-3.39.66-6.81,1.12-10.24,1.38.1,1.37.21,2.75.31,4.12,3.44-.26,6.87-.71,10.28-1.35.21,1.12.42,2.24.64,3.36Z"/>
    <path class="cls-2" d="M108.36,154.21c-3.36,1.44-6.77,2.68-10.23,3.72.47,1.57.94,3.13,1.41,4.7,4.01-1.2,7.97-2.66,11.85-4.38.27,1.13.54,2.25.8,3.38-5.42,2.36-10.99,4.24-16.64,5.63-1.54-6.25-3.08-12.49-4.62-18.74,4.59-1.13,9.11-2.65,13.51-4.57.45,1.05.91,2.09,1.36,3.14-3.22,1.4-6.5,2.6-9.83,3.6.4,1.32.79,2.64,1.19,3.96,3.34-1,6.63-2.2,9.87-3.58.45,1.05.9,2.1,1.35,3.14Z"/>
  </g>
  <g>
    <line class="cls-4" x1="36.7" y1="50.5" x2="34.88" y2="47.94"/>
    <line class="cls-4" x1="42.84" y1="47.79" x2="42.06" y2="44.74"/>
    <line class="cls-4" x1="32.1" y1="55.39" x2="29.49" y2="53.64"/>
  </g>
  <path class="cls-1" d="M77.75,47.22c-.27-1.29-.4-2.68.04-3.92s1.56-2.34,2.88-2.39c1.19-.05,2.25.71,3.16,1.48,6.24,5.26,10.44,12.88,11.58,20.96-.02-.19-5.3,2.04-6.09,1.99-1.87-.12-2.83-1.94-3.75-3.34-3.06-4.63-6.65-9.24-7.83-14.79h.01Z"/>
  <path class="cls-1" d="M104.41,90.08c.25.88,0,1.84-.34,2.7-.76,1.92-2.1,3.65-3.91,4.63-.46.26-.97.46-1.51.5-.82.06-1.62-.3-2.36-.65-2.94-1.38-5.31-5.13-1.13-6.43,1.57-.5,3.2-.66,4.74-1.24,1.52-.58,3.81-1.97,4.49.5h.02Z"/>
  <path class="cls-1" d="M34.59,87.61c-.97-.24-2.13-.57-2.86.11-.51.47-.57,1.27-.45,1.95.45,2.51,2.76,4.27,5.14,5.22,1.39.56,3.01.91,4.38.29.34-.15.66-.37.87-.68.17-.26.25-.56.32-.86.36-1.62.72-5.18-1.19-5.97-1.62-.67-4.33.4-6.2-.05h0,0Z"/>
  <path class="cls-1" d="M97.51,86.93c3.19-.8,6.4-1.93,9.05-3.86,1.95-1.42,3.81-3.31,4.12-5.7.42-3.12-1.88-5.91-4.09-8.15-1.95-1.97-4.02-3.91-6.52-5.1s-5.75-1.16-8.23.1c-4.85-7.92-13.06-13.7-22.13-15.63-1.02-.21-2.09-.39-3.1-.11s-1.94,1.08-2.04,2.13c-.05.57.15,1.13.35,1.66,3.34,8.55,10.01,16.07,18.35,19.89-.83,1.16-1.37,2.34-1.46,3.76-3.35-1.1-6.17-3.35-9.02-5.43-3.6-2.63-7.43-5.07-11.75-6.14s-9.43-.72-12.91,2.07c.21-.14.09-.47-.05-.68-.75-1.12-1.56-2.29-2.76-2.9-1.27-.65-2.86-.55-4.12.12s-2.18,1.89-2.65,3.24c-.19.56-.31,1.15-.24,1.73.06.45.24.87.46,1.27.66,1.19,1.89,1.99,3.1,2.6-3.45,2.76-4.38,7.87-3.02,12.06.96,2.95,2.92,5.89,2.18,8.9-.57,2.32-2.61,3.92-4.24,5.65-1.06,1.12-2.03,2.76-1.28,4.11.66,1.18,2.28,1.38,3.63,1.28,5.94-.42,11.25-3.68,16.28-6.86,3.57,5.58,10.9,8.84,15.96,9.31,6.01.56,13.74-.82,18.41-5.54,4.06,2.33,9.16,2.39,13.32.22.63-.34,1.28-.76,1.52-1.44.3-.9-.3-1.89-1.1-2.39-.81-.5-1.78-.63-2.7-.81-2.18-.42-4.31-1.16-6.27-2.18,0,0,2.35-4.72,2.96-7.18h.01-.02Z"/>
  <path class="cls-1" d="M97.28,74.79c-.32-.86-.1-1.89.56-2.54s1.72-.87,2.58-.55"/>
  <path class="cls-1" d="M110.06,74.23c-.76.17-1.52.34-2.27.51-.21.05-.45.1-.58.26-.26.3-.12.76.04,1.12.4.92,1.06,2,2.07,1.9.75-.07,1.26-.83,1.32-1.58s-.22-1.47-.51-2.15"/>
  <line class="cls-1" x1="29.88" y1="59.38" x2="33.17" y2="61.94"/>
  <line class="cls-1" x1="33.17" y1="55.98" x2="35.78" y2="59.38"/>
  <line class="cls-1" x1="37.76" y1="53.21" x2="39.49" y2="57.63"/>
</svg>