<?xml version="1.0" encoding="UTF-8" standalone="no"?>
<svg
   id="Lager_1"
   data-name="Lager 1"
   viewBox="0 0 476.81933 195.9295"
   version="1.1"
   sodipodi:docname="glimSmall.svg"
   width="476.81934"
   height="195.9295"
   inkscape:version="1.3.2 (091e20e, 2023-11-25)"
   xmlns:inkscape="http://www.inkscape.org/namespaces/inkscape"
   xmlns:sodipodi="http://sodipodi.sourceforge.net/DTD/sodipodi-0.dtd"
   xmlns="http://www.w3.org/2000/svg"
   xmlns:svg="http://www.w3.org/2000/svg">
  <sodipodi:namedview
     id="namedview6"
     pagecolor="#ffffff"
     bordercolor="#666666"
     borderopacity="1.0"
     inkscape:showpageshadow="2"
     inkscape:pageopacity="0.0"
     inkscape:pagecheckerboard="0"
     inkscape:deskcolor="#d1d1d1"
     inkscape:zoom="1.4643409"
     inkscape:cx="237.99103"
     inkscape:cy="113.70303"
     inkscape:window-width="1392"
     inkscape:window-height="1212"
     inkscape:window-x="0"
     inkscape:window-y="25"
     inkscape:window-maximized="0"
     inkscape:current-layer="Lager_1" />
  <defs
     id="defs1">
    <style
       id="style1">
      .cls-1 {
        fill: #ffffff;
      }

      .cls-1, .cls-2 {
        stroke-width: 0px;
      }

      .cls-2 {
        fill: #ffffff;
      }
    </style>
  </defs>
  <g
     id="g4"
     transform="translate(-6.595666e-4,-241.64)">
    <path
       class="cls-1"
       d="m 175.23,397.84 c -5.87,0 -11.07,-1.6 -15.6,-4.8 -4.53,-3.2 -8.07,-7.57 -10.6,-13.1 -2.53,-5.53 -3.8,-11.9 -3.8,-19.1 v -109.2 c 0,-2.93 0.93,-5.33 2.8,-7.2 1.87,-1.87 4.27,-2.8 7.2,-2.8 2.93,0 5.33,0.93 7.2,2.8 1.87,1.87 2.8,4.27 2.8,7.2 v 109.2 c 0,4.93 0.93,9 2.8,12.2 1.87,3.2 4.27,4.8 7.2,4.8 h 5 c 2.67,0 4.83,0.93 6.5,2.8 1.67,1.87 2.5,4.27 2.5,7.2 0,2.93 -1.27,5.33 -3.8,7.2 -2.53,1.87 -5.8,2.8 -9.8,2.8 z"
       id="path1" />
    <path
       class="cls-1"
       d="m 221.43,270.64 c -3.6,0 -6.7,-1.3 -9.3,-3.9 -2.6,-2.6 -3.9,-5.7 -3.9,-9.3 0,-3.6 1.3,-6.7 3.9,-9.3 2.6,-2.6 5.7,-3.9 9.3,-3.9 3.6,0 6.7,1.3 9.3,3.9 2.6,2.6 3.9,5.7 3.9,9.3 0,3.6 -1.3,6.7 -3.9,9.3 -2.6,2.6 -5.7,3.9 -9.3,3.9 z m 0,127.2 c -2.93,0 -5.37,-0.97 -7.3,-2.9 -1.93,-1.93 -2.9,-4.37 -2.9,-7.3 v -89 c 0,-3.07 0.97,-5.53 2.9,-7.4 1.93,-1.87 4.37,-2.8 7.3,-2.8 2.93,0 5.53,0.93 7.4,2.8 1.87,1.87 2.8,4.33 2.8,7.4 v 89 c 0,2.93 -0.93,5.37 -2.8,7.3 -1.87,1.93 -4.33,2.9 -7.4,2.9 z"
       id="path2" />
    <path
       class="cls-1"
       d="m 279.83,398.04 c -2.93,0 -5.37,-0.97 -7.3,-2.9 -1.93,-1.93 -2.9,-4.37 -2.9,-7.3 v -89 c 0,-3.07 0.97,-5.53 2.9,-7.4 1.93,-1.87 4.37,-2.8 7.3,-2.8 2.93,0 5.53,0.93 7.4,2.8 1.87,1.87 2.8,4.33 2.8,7.4 v 89 c 0,2.93 -0.93,5.37 -2.8,7.3 -1.87,1.93 -4.33,2.9 -7.4,2.9 z m 66.79,0 c -2.93,0 -5.37,-0.97 -7.3,-2.9 -1.94,-1.93 -2.9,-4.37 -2.9,-7.3 v -57.2 c 0,-8.4 -2.07,-14.63 -6.2,-18.7 -4.13,-4.07 -9.53,-6.1 -16.2,-6.1 -6.67,0 -12.67,2.4 -17.2,7.2 -4.54,4.8 -6.8,10.93 -6.8,18.4 h -12.6 c 0,-8.67 1.73,-16.3 5.2,-22.9 3.47,-6.6 8.27,-11.77 14.4,-15.5 6.13,-3.73 13.13,-5.6 21,-5.6 7.87,0 14.33,1.67 20.2,5 5.87,3.33 10.43,8.23 13.7,14.7 3.27,6.47 4.9,14.3 4.9,23.5 v 57.2 c 0,2.93 -0.94,5.37 -2.8,7.3 -1.87,1.93 -4.33,2.9 -7.4,2.9 z m 66.6,0 c -2.93,0 -5.37,-0.97 -7.3,-2.9 -1.94,-1.93 -2.9,-4.37 -2.9,-7.3 v -57.2 c 0,-8.4 -2.07,-14.63 -6.2,-18.7 -4.13,-4.07 -9.54,-6.1 -16.2,-6.1 -6.66,0 -12.63,2.4 -17.1,7.2 -4.47,4.8 -6.7,10.93 -6.7,18.4 h -16.6 c 0,-8.67 1.87,-16.3 5.6,-22.9 3.73,-6.6 8.96,-11.77 15.7,-15.5 6.73,-3.73 14.43,-5.6 23.1,-5.6 7.6,0 14.33,1.67 20.2,5 5.87,3.33 10.43,8.23 13.7,14.7 3.27,6.47 4.9,14.3 4.9,23.5 v 57.2 c 0,2.93 -0.94,5.37 -2.8,7.3 -1.87,1.93 -4.33,2.9 -7.4,2.9 z"
       id="path3" />
    <path
       class="cls-1"
       d="m 463.02,401.04 c -3.73,0 -6.97,-1.37 -9.7,-4.1 -2.73,-2.73 -4.1,-5.97 -4.1,-9.7 0,-3.73 1.37,-7.17 4.1,-9.9 2.73,-2.73 5.97,-4.1 9.7,-4.1 3.73,0 7.13,1.37 9.8,4.1 2.67,2.73 4,6.03 4,9.9 0,3.87 -1.33,6.97 -4,9.7 -2.67,2.73 -5.93,4.1 -9.8,4.1 z"
       id="path4" />
  </g>
  <path
     id="path5"
     class="cls-1"
     d="M 52.166016 47.015625 C 39.464661 46.808106 27.333192 50.595713 16.439453 60.439453 C 0.1894698 75.119438 -3.3415563 94.120801 2.8984375 114.30078 C 9.6284308 136.09076 28.088614 147.99961 48.308594 149.34961 C 75.208567 151.14961 83.909461 143.22991 91.439453 135.91992 C 92.309452 167.30989 81.43864 179.61922 49.888672 177.94922 C 33.958688 177.10922 32.308898 173.55961 23.878906 170.34961 C 18.358912 168.24961 13.749605 165.28001 9.8496094 172.5 C 4.8996143 181.66999 11.929536 184.93008 17.019531 187.33008 C 35.379513 195.98007 55.18877 197.95992 74.71875 193.91992 C 92.758732 190.17993 105.78992 176.53951 108.41992 158.01953 C 113.15992 124.63956 109.78023 90.950591 110.24023 57.390625 C 110.37023 47.990634 100.35945 45.769848 97.939453 50.089844 C 89.839461 64.539829 83.349992 53.799763 75.5 51.259766 C 67.613758 48.702268 59.786828 47.140137 52.166016 47.015625 z M 55.455078 62.519531 C 56.125145 62.520964 56.798829 62.537813 57.478516 62.570312 C 78.648494 63.580311 93.478828 78.630176 93.048828 98.660156 C 92.598829 119.42014 76.130134 133.86953 53.910156 133.01953 L 53.910156 133.0293 C 32.740177 132.2193 17.908594 117.2892 18.308594 97.199219 C 18.705781 77.204239 34.682999 62.475124 55.455078 62.519531 z " />
</svg>
