<?xml version="1.0" encoding="UTF-8"?>
<svg id="Lager_1" data-name="Lager 1" xmlns="http://www.w3.org/2000/svg" viewBox="0 0 45.32 42.25">
  <defs>
    <style>
      .cls-1 {
        fill: #fa8d5e;
        stroke-width: 0px;
      }
    </style>
  </defs>
  <path class="cls-1" d="M15.6,27.35c7.3-3.14,12.03-7.8,14.92-15.09,2.98,7.1,7.65,11.95,14.8,14.99-6.92,3.13-11.8,7.63-14.63,15-3.16-6.92-7.53-12.03-15.08-14.9Z"/>
  <path class="cls-1" d="M16.84,5.73c2.77-1.19,4.57-2.96,5.66-5.73,1.13,2.7,2.9,4.54,5.62,5.69-2.63,1.19-4.48,2.9-5.56,5.7-1.2-2.63-2.86-4.57-5.73-5.66Z"/>
  <path class="cls-1" d="M0,17.64c4.71-2.03,7.76-5.04,9.63-9.74,1.92,4.58,4.94,7.72,9.55,9.67-4.47,2.02-7.62,4.92-9.44,9.68-2.04-4.46-4.86-7.76-9.73-9.62Z"/>
</svg>