<svg width="53" height="46" viewBox="0 0 53 46" fill="none" xmlns="http://www.w3.org/2000/svg">
<g clip-path="url(#clip0_3052_1117)">
<path d="M28.3994 16.3153C27.9776 19.6116 28.3113 22.3684 29.7992 25.6785C29.7992 25.6785 30.3971 27.0247 30.4991 27.7346C30.8884 30.5468 29.7528 32.4139 27.3889 33.2069C25.3124 33.903 22.9438 33.0455 22.0678 30.4915C21.4143 28.5875 22.1466 26.8264 22.9392 25.1483C23.4027 24.171 24.1258 23.3458 24.3158 22.2025C25.0065 18.0994 25.85 14.3883 27.3704 10.3313C27.3704 10.3313 30.0495 3.67891 32.9325 0.465637C32.9325 0.465637 29.4886 9.06817 28.3947 16.3199L28.3994 16.3153Z" stroke="#FFFDF6" stroke-width="2" stroke-linecap="round" stroke-linejoin="round"/>
<path d="M51.5937 23.7561C51.0421 24.0327 50.4442 23.922 49.8648 23.9266C44.7987 23.9359 39.7325 23.9266 34.6663 23.9359C34.0545 23.9359 33.4102 23.7791 32.8401 24.1986C32.9189 25.8076 33.6466 27.2874 33.6698 28.9425C33.7161 32.2387 31.1065 36.351 26.5456 36.6737C22.5177 36.9595 18.6057 33.6033 18.7355 29.634C18.7957 27.7531 18.9579 25.9413 19.8201 23.9313H0.463867" stroke="#FFFDF6" stroke-width="2" stroke-linecap="round" stroke-linejoin="round"/>
<path d="M51.5936 29.9797C50.3653 30.0166 49.2436 30.3854 48.3166 31.1968C46.4533 32.8288 44.2609 33.2668 41.7348 31.2107C40.3211 30.0581 38.7359 29.5095 36.8911 30.4546C36.4878 30.662 36.3534 30.8603 36.2236 31.1922" stroke="#FFFDF6" stroke-width="2" stroke-linecap="round" stroke-linejoin="round"/>
<path d="M16.0093 30.8418C14.2387 29.6524 12.5747 29.7585 10.8041 30.9801C9.86777 31.6256 9.03808 32.5153 7.72171 32.6029C6.18749 32.709 5.01481 32.1189 3.92093 31.1876C2.92438 30.3393 1.77487 29.9383 0.467773 29.9751" stroke="#FFFDF6" stroke-width="2" stroke-linecap="round" stroke-linejoin="round"/>
<path d="M4.60765 40.0068C3.2403 39.6334 1.84049 39.9284 0.463867 39.8316" stroke="#FFFDF6" stroke-width="2" stroke-linecap="round" stroke-linejoin="round"/>
<path d="M32.9368 39.8316C31.5555 39.9284 30.1603 39.6288 28.793 40.0068" stroke="#FFFDF6" stroke-width="2" stroke-linecap="round" stroke-linejoin="round"/>
<path d="M42.2629 40.0068C40.8956 39.6334 39.4958 39.9284 38.1191 39.8316" stroke="#FFFDF6" stroke-width="2" stroke-linecap="round" stroke-linejoin="round"/>
<path d="M18.7717 45.3638C17.3951 45.5482 15.9907 45.0964 14.6279 45.539" stroke="#FFFDF6" stroke-width="2" stroke-linecap="round" stroke-linejoin="round"/>
<path d="M23.9541 45.3638C25.3307 45.5482 26.7352 45.0964 28.0979 45.539" stroke="#FFFDF6" stroke-width="2" stroke-linecap="round" stroke-linejoin="round"/>
<path d="M37.4287 45.539C36.1633 45.2624 34.8933 45.2624 33.6279 45.539" stroke="#FFFDF6" stroke-width="2" stroke-linecap="round" stroke-linejoin="round"/>
<path d="M13.9375 40.0068C12.8019 39.638 11.6339 39.9238 10.4844 39.8316" stroke="#FFFDF6" stroke-width="2" stroke-linecap="round" stroke-linejoin="round"/>
<path d="M51.5938 40.0068C50.4582 39.638 49.2901 39.9238 48.1406 39.8316" stroke="#FFFDF6" stroke-width="2" stroke-linecap="round" stroke-linejoin="round"/>
<path d="M8.75589 45.3638C7.60638 45.4514 6.43834 45.1656 5.30273 45.539" stroke="#FFFDF6" stroke-width="2" stroke-linecap="round" stroke-linejoin="round"/>
<path d="M46.4112 45.3638C45.2617 45.4514 44.0936 45.1656 42.958 45.539" stroke="#FFFDF6" stroke-width="2" stroke-linecap="round" stroke-linejoin="round"/>
<path d="M22.9207 39.8316H19.8105" stroke="#FFFDF6" stroke-width="2" stroke-linecap="round" stroke-linejoin="round"/>
</g>
<defs>
<clipPath id="clip0_3052_1117">
<rect width="52.0569" height="46" fill="white"/>
</clipPath>
</defs>
</svg>
