<?xml version="1.0" encoding="UTF-8"?>
<svg id="OBJECTS" xmlns="http://www.w3.org/2000/svg" width="52.25mm" height="59.62mm" viewBox="0 0 148.11 169">
  <defs>
    <style>
      .cls-1 {
        stroke-width: 4px;
      }

      .cls-1, .cls-2, .cls-3, .cls-4, .cls-5, .cls-6, .cls-7 {
        stroke: #fff;
      }

      .cls-1, .cls-3 {
        fill: none;
      }

      .cls-1, .cls-5, .cls-6, .cls-7 {
        stroke-miterlimit: 10;
      }

      .cls-2, .cls-4, .cls-5, .cls-6, .cls-7 {
        fill: #fff;
      }

      .cls-3 {
        stroke-width: 5px;
      }

      .cls-3, .cls-4 {
        stroke-linecap: round;
        stroke-linejoin: round;
      }

      .cls-4 {
        stroke-width: 2px;
      }

      .cls-6 {
        stroke-width: .25px;
      }

      .cls-7 {
        stroke-width: .5px;
      }
    </style>
  </defs>
  <ellipse class="cls-3" cx="75.23" cy="69.15" rx="65.9" ry="66.65"/>
  <g>
    <path class="cls-2" d="M20.17,139.13c-3.19,3.73-9.73,4.14-15.81-3.2-5.76-7.24-4.5-13.87-.05-16.29,4.6-2.56,10.12-.59,14.54,4.85,4.18,5.09,4.92,10.43,1.32,14.64ZM7.58,124.67c-2.89,1.93-3.77,5.53-.63,9.43,3.45,4.17,6.88,3.37,9.13,1.14,2.42-2.41,3-5.51.19-8.92-2.69-3.35-5.79-3.62-8.7-1.65Z"/>
    <path class="cls-2" d="M27.47,147.2c-1.35,1.98-2.69,3.96-4.04,5.94-1.59-1.08-3.15-2.22-4.68-3.42,3.68-4.72,7.36-9.44,11.04-14.16,2.54,1.99,5.2,3.78,7.94,5.37,4.05,2.33,5.51,5.23,4.39,7.79-.98,2.2-3.12,2.67-4.94,2.35.92.84,2.17,2.44.84,5.36-.12.27-.25.54-.37.8-.51,1.1-1.07,2.35-1.09,3.26-1.67-.76-3.32-1.57-4.95-2.43-.05-.91.52-2.13,1.42-3.81.04-.08.08-.15.12-.23.94-1.75.74-2.82-2.69-4.89-1.01-.62-2-1.27-2.99-1.94ZM29.21,144.65c1.21.82,2.43,1.61,3.68,2.35,2.45,1.46,3.81,1.22,4.51-.1.69-1.3,0-2.55-2.04-3.77-1.21-.72-2.4-1.48-3.57-2.28-.86,1.26-1.72,2.53-2.58,3.79Z"/>
    <path class="cls-2" d="M64.61,168.04c-1.39-.14-2.78-.31-4.17-.52-.14-.58-.18-1.21-.16-1.81-1.62,1.1-4.34,1.41-7.95.54-7.64-1.9-10.18-7.38-8.21-12.04,2.1-5.02,7.03-7.23,13.41-5.73,5.25,1.19,8.16,3.99,8.45,7.11-1.63-.16-3.26-.38-4.89-.64-.27-1.27-1.18-2.82-4.32-3.52-4.36-1.05-6.53,1.38-7.53,4.41-.96,2.9-.28,6.43,4.73,7.63,4.68,1.03,5.92-1.21,6.17-2.76,0-.05.02-.11.03-.16-1.77-.29-3.53-.64-5.27-1.04.24-1.03.48-2.06.73-3.09,3.31.76,6.65,1.31,10.02,1.65-.34,3.33-.68,6.65-1.03,9.98Z"/>
    <path class="cls-2" d="M76.39,164.32c-.61,1.4-1.26,2.79-1.94,4.18-1.88.01-3.75-.03-5.63-.13,3.32-5.8,6.05-11.79,8.18-17.86,1.92-.09,3.83-.25,5.73-.48,3.23,5.62,7.08,11.03,11.51,16.15-1.96.45-3.94.84-5.92,1.16-.94-1.25-1.85-2.51-2.73-3.78-3.05.42-6.12.68-9.2.77ZM84.02,160.55c-2.18-3.55-3.38-5.88-4.05-7.43-.01,0-.02,0-.03,0-.39,1.81-1.3,4.7-2.54,7.98,2.21-.1,4.42-.28,6.63-.55Z"/>
    <path class="cls-2" d="M98.26,165.14c-1.64-5.75-3.28-11.5-4.92-17.25,1.83-.51,3.64-1.1,5.43-1.76,3.78,2.98,11.93,7.22,13.98,8.3.02-.01.04-.02.06-.03-1.12-1.53-2.53-4.31-3.88-6.93-.81-1.58-1.62-3.15-2.44-4.73,1.25-.64,2.49-1.32,3.71-2.04,3.05,5.15,6.1,10.3,9.15,15.45-1.98,1.17-3.99,2.25-6.04,3.26-4.33-1.7-13.21-7.2-14.78-8.93-.02,0-.04.01-.06.02.67,1.43,1.94,4.89,3,7.92.6,1.72,1.2,3.43,1.8,5.15-1.66.57-3.33,1.1-5.02,1.57Z"/>
    <path class="cls-2" d="M118.87,134.66c3.77,4.64,7.55,9.29,11.32,13.93-1.54,1.26-3.12,2.46-4.73,3.6-3.46-4.88-6.91-9.77-10.37-14.65,1.29-.91,2.55-1.87,3.78-2.88Z"/>
    <path class="cls-2" d="M146.08,121.53c2.31,2.6,2.31,7.68-2.2,13.48-5.85,7.25-11.87,6.86-15.22,3.13-3.32-3.73-3.6-9.11.94-14.81,3.72-4.82,7.59-6.19,10.55-5.24-.95,1.62-1.94,3.18-2.97,4.7-1.45-.35-3.29-.01-5.29,2.56-2.64,3.31-1.71,6.4.67,8.67,2.18,2.06,5.7,3.17,9.11-1.11,2.44-3.16,1.72-5.23,1.16-6.23,1.13-1.66,2.22-3.38,3.26-5.15Z"/>
  </g>
  <g>
    <line class="cls-4" x1="40.03" y1="55.02" x2="38.21" y2="52.46"/>
    <line class="cls-4" x1="46.18" y1="52.31" x2="45.39" y2="49.26"/>
    <line class="cls-4" x1="35.44" y1="59.91" x2="32.82" y2="58.16"/>
  </g>
  <g>
    <path class="cls-7" d="M49.92,69.7c-9.25-12.02-9.16-27.58-9.16-27.58,0,0,15.05,3.87,24.3,15.89,9.25,12.02,9.16,27.58,9.16,27.58,0,0-15.05-3.87-24.3-15.89Z"/>
    <path class="cls-7" d="M74.22,87.35h-.42c-.67-.17-15.72-4.2-25.31-16.48-9.5-12.36-9.5-28-9.5-28.67,0-.59.25-1.09.67-1.43.42-.34,1.01-.42,1.51-.34.67.17,15.81,4.2,25.31,16.48,9.5,12.36,9.5,28,9.5,28.67,0,.59-.25,1.09-.67,1.43-.34.25-.67.34-1.09.34ZM42.69,44.64c.42,4.71,2.02,15.39,8.66,23.96s16.48,12.86,21.02,14.46c-.42-4.71-2.02-15.39-8.66-23.96-6.64-8.58-16.48-12.86-21.02-14.46Z"/>
  </g>
  <g>
    <path class="cls-7" d="M100.03,70.29c-9.5,11.77-24.72,15.3-24.72,15.3,0,0,.34-15.55,9.84-27.33,9.5-11.77,24.72-15.3,24.72-15.3,0,0-.34,15.55-9.84,27.33Z"/>
    <path class="cls-7" d="M75.32,87.35s-.84-.17-1.09-.42c-.42-.34-.67-.84-.67-1.43,0-.67.42-16.31,10.26-28.42,9.84-12.11,25.06-15.72,25.64-15.89.5-.17,1.09,0,1.51.34s.67.84.67,1.43c0,.67-.42,16.31-10.26,28.42-9.84,12.11-25.06,15.72-25.64,15.89h-.42v.08ZM107.85,45.4c-4.54,1.51-14.55,5.55-21.36,13.96-6.81,8.41-8.74,19-9.25,23.79,4.54-1.51,14.55-5.55,21.36-13.96,6.81-8.41,8.74-19,9.25-23.79Z"/>
  </g>
  <path class="cls-1" d="M74.81,124.94c-1.01,0-1.77-.76-1.77-1.77v-40.61c0-1.01.76-1.77,1.77-1.77s1.77.76,1.77,1.77v40.61c0,1.01-.76,1.77-1.77,1.77Z"/>
  <g>
    <path class="cls-5" d="M83.22,37.75c0,4.62-3.78,8.41-8.41,8.41s-8.41-3.78-8.41-8.41,3.78-8.41,8.41-8.41,8.41,3.78,8.41,8.41Z"/>
    <path class="cls-6" d="M74.81,47.92c-5.63,0-10.17-4.54-10.17-10.17s4.54-10.17,10.17-10.17,10.17,4.54,10.17,10.17-4.54,10.17-10.17,10.17ZM74.81,31.11c-3.62,0-6.64,2.94-6.64,6.64s2.94,6.64,6.64,6.64,6.64-2.94,6.64-6.64-2.94-6.64-6.64-6.64Z"/>
  </g>
</svg>