<?xml version="1.0" encoding="UTF-8"?>
<svg id="OBJECTS" xmlns="http://www.w3.org/2000/svg" viewBox="0 0 115.36 95.89">
  <defs>
    <style>
      .cls-1 {
        stroke: #fff;
        stroke-linecap: round;
        stroke-linejoin: round;
        stroke-width: 2px;
      }

      .cls-1, .cls-2 {
        fill: #fff;
      }

      .cls-2 {
        stroke-width: 0px;
      }
    </style>
  </defs>
  <g>
    <line class="cls-1" x1="36.72" y1="11.94" x2="34.9" y2="9.38"/>
    <line class="cls-1" x1="42.87" y1="9.23" x2="42.08" y2="6.18"/>
    <line class="cls-1" x1="32.13" y1="16.83" x2="29.51" y2="15.08"/>
  </g>
  <path class="cls-2" d="M83.52,66.74c0,4.26-.19,8.53.05,12.78.29,5.18-2.3,8.13-6.64,10.37-5.11,2.63-10.58,3.88-16.14,4.55-16.68,2.02-33.32,2.58-49.61-2.7C1.83,88.7-.15,85.74,0,76.15c.13-7.83.05-15.66.12-23.48.05-6,6.8-12.44,12.73-12.25.89.03,1.75.09,2.12,1.03.52,1.33-.41,1.78-1.42,2.19-2.05.82-4.19,1.49-6.12,2.54-4.63,2.51-4.77,5.56-.32,8.27,7.21,4.39,15.48,5.21,23.57,5.98,13.31,1.26,26.58.67,39.49-3.29,1.94-.59,3.86-1.36,5.66-2.31,1.74-.92,4.02-1.69,3.78-4.28-.23-2.49-2.16-3.76-4.22-4.72-7.37-3.46-15.33-4.38-23.26-5.46-1.85-.25-5.13.68-5.03-1.95.12-2.9,3.37-1.46,5.09-1.36,8.2.46,16.23,1.95,23.84,5.18,6.18,2.62,7.75,5.16,7.51,11.73-.08,2.21.01,4.43.02,6.64,0,2.04,0,4.09,0,6.13-.02,0-.03,0-.05,0Z"/>
  <path class="cls-2" d="M41.29,17.92c-.19-1.69.54-3.48,2.11-5.02,2.31-2.27,4.5-4.66,6.78-6.96,6.59-6.63,9.49-7.63,17.6-3.4,20.02,10.45,35.46,25.73,45.6,45.99,3.44,6.87,2.39,10.58-3.07,16.03-2.05,2.04-4.21,3.97-6.29,5.98-3.94,3.8-9.91,4.47-14.51,1.57-.94-.59-2.46-1.02-1.58-2.62.72-1.3,1.94-1.11,3.14-.64,2.83,1.11,6.08,2.99,8.5.17,2.56-2.98.12-6.42-1.28-9.05-10.12-19-24.83-33.52-43.95-43.5-1.33-.69-2.9-1-4.39-1.3-3.88-.78-6.08,1.37-4.93,5.16.93,3.07,2.46,5.96,3.76,8.91.48,1.1,1.28,2.29-.04,3.18-1.34.92-2.33-.17-2.89-1.19-2.23-4.02-4.58-8.01-4.56-13.33Z"/>
  <path class="cls-2" d="M31.14,37c1.91-.11,3.11.05,3.92,1.08,4.77,6.1,11.89,6.76,18.71,8.11,1.25.25,3.19-.17,2.98,1.84-.2,1.87-2.05,1.38-3.34,1.38-6.33-.02-12.4-1.64-17.18-5.6-4.54-3.76-8.64-2.62-12.8.78-.79.64-1.45,1.45-2.26,2.06-.84.64-1.9,1.11-2.72.12-.64-.77,0-1.63.48-2.29,3.19-4.39,7.74-6.46,12.21-7.48Z"/>
</svg>