<?xml version="1.0" encoding="UTF-8"?>
<svg id="OBJECTS" xmlns="http://www.w3.org/2000/svg" width="48.26mm" height="60.7mm" viewBox="0 0 136.81 172.07">
  <defs>
    <style>
      .cls-1, .cls-2, .cls-3, .cls-4 {
        stroke: #fff;
      }

      .cls-1, .cls-3, .cls-4 {
        fill: #fff;
      }

      .cls-2 {
        fill: none;
        stroke-width: 5px;
      }

      .cls-2, .cls-3 {
        stroke-linecap: round;
        stroke-linejoin: round;
      }

      .cls-3 {
        stroke-width: 2px;
      }

      .cls-4 {
        stroke-miterlimit: 10;
      }
    </style>
  </defs>
  <ellipse class="cls-2" cx="68.4" cy="69.15" rx="65.9" ry="66.65"/>
  <g>
    <line class="cls-3" x1="33.21" y1="55.02" x2="31.39" y2="52.46"/>
    <line class="cls-3" x1="39.35" y1="52.31" x2="38.57" y2="49.26"/>
    <line class="cls-3" x1="28.61" y1="59.91" x2="26" y2="58.16"/>
  </g>
  <path class="cls-4" d="M106.84,31.61c-2.07.5-6.44,1.39-9.7,1.98-8.3,1.49-9.62,1.94-13.32,4.44-5.25,3.57-8.92,10.47-8.9,16.73.03,2.39.41,4.09.85,3.64.1-.12.47-.8.78-1.51,1.58-3.47,6.15-8.77,10.06-11.63,1.99-1.47,6-2.91,6-2.15,0,.26-1.37,1.82-3,3.38-1.53,1.49-2.04,2.1-4.91,5.91-2.97,3.99-6.85,11.13-9.46,17.49-2.53,6.17-4.4,11.08-5.64,14.77-2.09,6.31-3.98,11.29-4.32,11.39-.41.14-1.55-3.24-3.93-11.63-3.7-13.14-5.27-17.65-9.05-25.87-2.59-5.6-6-10.09-12.93-16.97-3.8-3.8-9.21-7.44-12.46-8.44-2.12-.66-2.3-.33-.7,1.3,7.55,7.77,11.92,13.54,16.55,21.74,3.9,6.97,6.59,13.89,11.48,29.77,1.24,4.06,3.98,14.41,4.86,18.43.98,4.47,2.07,8.84,2.35,9.52.1.21.49.5.88.59.88.21,5.12.21,6.02,0,1.34-.35,1.6-1.32,3.46-12.48,1.24-7.54,2.3-12.05,4.42-18.79,3.59-11.48,7.42-19.9,9.75-21.27.34-.19,1.99-.57,3.72-.83,6.72-1.02,12.13-3.73,15.95-8.06,2.56-2.88,3.23-5.01,3.88-12.1.34-3.76.54-4.82,1.32-7.07.49-1.47.83-2.79.78-2.95-.18-.43-.59-.38-4.81.64Z"/>
  <g>
    <path class="cls-1" d="M11.3,153.99c1.05-7.12,2.71-14.01,4.93-20.59,1.3,1.12,2.64,2.2,3.99,3.22-.92,3.03-1.72,6.12-2.41,9.25-.62,2.85-1.14,5.25-1.7,7.23.02.01.04.03.06.04,1.43-1.22,3.54-2.68,5.93-4.43,2.62-1.92,5.14-3.93,7.55-6.02,1.39.76,2.79,1.46,4.21,2.13-5.05,4.74-10.65,9.09-16.75,12.94-1.97-1.18-3.91-2.44-5.82-3.77Z"/>
    <path class="cls-1" d="M48.73,161.19c-3.75-.76-7.46-1.77-11.1-3.03-.53,1.55-1.07,3.09-1.6,4.64,4.24,1.46,8.57,2.61,12.95,3.44-.43,1.08-.86,2.16-1.3,3.23-6.12-1.2-12.14-3-17.98-5.4,2.45-5.95,4.9-11.9,7.35-17.85,4.64,1.91,9.43,3.35,14.3,4.3-.22,1.12-.44,2.24-.66,3.36-3.58-.7-7.12-1.66-10.59-2.85-.45,1.3-.9,2.61-1.35,3.91,3.5,1.21,7.06,2.18,10.67,2.91-.23,1.12-.46,2.24-.68,3.35Z"/>
    <path class="cls-1" d="M76.58,170.7c-1.38.15-2.76.27-4.14.36-.26-.58-.44-1.23-.55-1.87-1.32,1.52-3.87,2.45-7.53,2.38-7.74-.19-11.34-5.21-10.46-10.59.94-5.77,5.18-9.38,11.62-9.3,5.3.03,8.71,2.37,9.67,5.6-1.61.18-3.23.31-4.85.39-.53-1.28-1.75-2.71-4.91-2.72-4.41-.07-5.97,3.02-6.27,6.44-.3,3.28,1.11,6.79,6.18,6.87,4.72,0,5.43-2.62,5.34-4.31,0-.06,0-.12,0-.17-1.76.09-3.53.13-5.29.11.01-1.14.02-2.28.03-3.42,3.34.03,6.68-.14,10-.5.39,3.58.78,7.16,1.17,10.74Z"/>
    <path class="cls-1" d="M87.55,164.28c-.29,1.6-.61,3.2-.96,4.79-1.82.4-3.65.74-5.49,1.03,1.93-6.82,3.25-13.68,3.97-20.5,1.84-.47,3.68-1.01,5.49-1.62,4.42,5.3,9.4,10.29,14.92,14.86-1.84.83-3.71,1.6-5.59,2.31-1.2-1.14-2.38-2.29-3.52-3.47-2.9,1.02-5.84,1.88-8.82,2.59ZM94.16,158.82c-2.92-3.32-4.61-5.54-5.62-7.05-.01,0-.02,0-.03,0,.02,1.98-.22,5.2-.7,8.91,2.13-.54,4.25-1.16,6.35-1.87Z"/>
    <path class="cls-1" d="M109.59,160.87c-2.92-5.74-5.84-11.47-8.76-17.21,1.7-.87,3.38-1.8,5.03-2.81,4.44,2.46,13.63,5.49,15.95,6.28.02-.01.04-.03.06-.04-1.47-1.41-3.51-4.07-5.45-6.57-1.17-1.51-2.33-3.02-3.5-4.53,1.14-.88,2.25-1.8,3.35-2.75,4.22,4.86,8.44,9.72,12.66,14.58-1.78,1.55-3.61,3.02-5.47,4.42-4.78-1.05-14.92-5.25-16.87-6.78-.02.01-.04.02-.05.03.99,1.38,3.03,4.78,4.77,7.77.98,1.69,1.97,3.39,2.95,5.08-1.53.89-3.09,1.74-4.66,2.54Z"/>
  </g>
</svg>