<svg width="52" height="45" viewBox="0 0 52 45" fill="none" xmlns="http://www.w3.org/2000/svg">
<g clip-path="url(#clip0_3052_1152)">
<path d="M3.06171 24.6028C2.36451 24.802 1.67289 25.0012 0.992421 25.1949C0.585256 27.27 0.841826 29.3452 0.780472 31.4037C0.696808 34.2867 0.663342 37.1753 0.557368 40.0584C0.496014 41.6908 1.20437 42.4434 2.85534 42.3272C7.78037 41.9841 12.4823 43.2126 17.1954 44.3691C17.7197 44.4964 18.2997 44.3857 18.8519 44.3857C25.8462 44.3857 32.8405 44.2585 39.8293 44.4411C43.0978 44.5241 44.6149 43.0078 43.3599 39.6434" stroke="#FFFDF6" stroke-width="2" stroke-linecap="round" stroke-linejoin="round"/>
<path d="M26.7441 22.9537C32.1433 23.0201 37.548 23.0312 42.9471 23.1806C46.3104 23.2747 47.1972 24.7245 46.065 27.9009" stroke="#FFFDF6" stroke-width="2" stroke-linecap="round" stroke-linejoin="round"/>
<path d="M33.3936 39.0291C36.5728 39.2505 39.7576 38.8742 42.9703 39.2837C44.2755 39.4497 46.3838 39.6489 47.516 37.9943C48.2969 36.8599 47.7559 35.814 47.3487 34.6852C46.9527 33.6061 46.1607 33.8883 45.4468 33.8828C41.5703 33.8662 37.6939 33.8717 33.8119 33.8717" stroke="#FFFDF6" stroke-width="2" stroke-linecap="round" stroke-linejoin="round"/>
<path d="M28.4064 22.749C28.6741 21.4873 29.6446 20.7237 30.4812 19.866C33.1641 17.1323 33.2087 15.4501 30.7044 12.4674C29.7227 12.2571 29.204 12.9101 28.6016 13.469C26.1976 15.6936 23.8104 17.9126 20.726 19.2794C18.8631 20.1039 17.5802 21.7972 16.1914 23.2083C14.2002 25.2281 11.2385 25.2502 8.88477 24.6028" stroke="#FFFDF6" stroke-width="2" stroke-linecap="round" stroke-linejoin="round"/>
<path d="M47.5216 33.8772C48.0236 33.0804 49.1391 32.8148 49.2116 31.614C49.312 29.9539 47.6555 27.8732 45.8707 28.172C41.8492 28.8361 37.8277 28.3159 33.8119 28.5317C33.6724 28.5372 33.533 28.659 33.3936 28.7309" stroke="#FFFDF6" stroke-width="2" stroke-linecap="round" stroke-linejoin="round"/>
<path d="M8.89645 24.6028L6.45346 15.0295L3.26865 24.3981C3.26865 24.3981 3.21287 27.8954 5.81761 27.9009C9.01916 27.9064 8.89087 24.6028 8.89087 24.6028H8.89645Z" stroke="#FFFDF6" stroke-width="2" stroke-linecap="round" stroke-linejoin="round"/>
<path d="M12.4328 4.10602L9.71094 11.1725C9.71094 11.1725 9.86711 14.3766 12.4328 14.3766C14.9985 14.3766 15.283 11.3607 15.283 11.3607L12.4328 4.10602Z" stroke="#FFFDF6" stroke-width="2" stroke-linecap="round" stroke-linejoin="round"/>
<path d="M17.0955 28.1443C17.3111 28.1443 17.4859 27.9709 17.4859 27.757C17.4859 27.5431 17.3111 27.3696 17.0955 27.3696C16.8799 27.3696 16.7051 27.5431 16.7051 27.757C16.7051 27.9709 16.8799 28.1443 17.0955 28.1443Z" stroke="#FFFDF6" stroke-width="2" stroke-linecap="round" stroke-linejoin="round"/>
<path d="M12.2428 31.3262C12.6094 31.3262 12.9066 31.0314 12.9066 30.6677C12.9066 30.304 12.6094 30.0092 12.2428 30.0092C11.8763 30.0092 11.5791 30.304 11.5791 30.6677C11.5791 31.0314 11.8763 31.3262 12.2428 31.3262Z" stroke="#FFFDF6" stroke-width="2" stroke-linecap="round" stroke-linejoin="round"/>
<path d="M16.3757 32.931C16.5605 32.931 16.7103 32.7824 16.7103 32.599C16.7103 32.4156 16.5605 32.267 16.3757 32.267C16.1908 32.267 16.041 32.4156 16.041 32.599C16.041 32.7824 16.1908 32.931 16.3757 32.931Z" stroke="#FFFDF6" stroke-width="2" stroke-linecap="round" stroke-linejoin="round"/>
<path d="M43.7227 15.6271C47.9182 15.6271 51.3194 12.2527 51.3194 8.09024C51.3194 3.92773 47.9182 0.553345 43.7227 0.553345C39.5271 0.553345 36.126 3.92773 36.126 8.09024C36.126 12.2527 39.5271 15.6271 43.7227 15.6271Z" stroke="#FFFDF6" stroke-width="2" stroke-linecap="round" stroke-linejoin="round"/>
<path d="M36.4551 0.553345L51.074 15.8319" stroke="#FFFDF6" stroke-width="2" stroke-linecap="round" stroke-linejoin="round"/>
<path d="M51.4423 0.553345L35.9756 15.5054" stroke="#FFFDF6" stroke-width="2" stroke-linecap="round" stroke-linejoin="round"/>
</g>
<defs>
<clipPath id="clip0_3052_1152">
<rect width="52" height="45" fill="white"/>
</clipPath>
</defs>
</svg>
