<svg id="visual" viewBox="0 0 960 150" width="960" height="150" xmlns="http://www.w3.org/2000/svg" xmlns:xlink="http://www.w3.org/1999/xlink" version="1.1"><rect x="0" y="0" width="960" height="150" fill="#FFDE68"></rect><path d="M0 115L22.8 101.8C45.7 88.7 91.3 62.3 137 60.5C182.7 58.7 228.3 81.3 274 96.5C319.7 111.7 365.3 119.3 411.2 120C457 120.7 503 114.3 548.8 94.8C594.7 75.3 640.3 42.7 686 28.3C731.7 14 777.3 18 823 22.5C868.7 27 914.3 32 937.2 34.5L960 37L960 151L937.2 151C914.3 151 868.7 151 823 151C777.3 151 731.7 151 686 151C640.3 151 594.7 151 548.8 151C503 151 457 151 411.2 151C365.3 151 319.7 151 274 151C228.3 151 182.7 151 137 151C91.3 151 45.7 151 22.8 151L0 151Z" fill="#97a65D" stroke-linecap="round" stroke-linejoin="miter"></path></svg>