<?xml version="1.0" encoding="UTF-8"?>
<svg id="Lager_1" data-name="Lager 1" xmlns="http://www.w3.org/2000/svg" viewBox="0 0 272.31 710.9">
  <defs>
    <style>
      .cls-1 {
        fill: blue;
      }

      .cls-1, .cls-2, .cls-3 {
        stroke-width: 0px;
      }

      .cls-2 {
        fill: #fa8d5e;
      }

      .cls-3 {
        fill: #fcfcfc;
      }
    </style>
  </defs>
  <path class="cls-2" d="M91.44,384.29c-7.53,7.31-16.23,15.23-43.13,13.43-20.22-1.35-38.68-13.26-45.41-35.05-6.24-20.18-2.71-39.18,13.54-53.86,17.43-15.75,38.03-16,59.06-9.18,7.85,2.54,14.34,13.28,22.44-1.17,2.42-4.32,12.43-2.1,12.3,7.3-.46,33.56,2.92,67.25-1.82,100.63-2.63,18.52-15.66,32.16-33.7,35.9-19.53,4.04-39.34,2.06-57.7-6.59-5.09-2.4-12.12-5.66-7.17-14.83,3.9-7.22,8.51-4.25,14.03-2.15,8.43,3.21,10.08,6.76,26.01,7.6,31.55,1.67,42.42-10.64,41.55-42.03Z"/>
  <path class="cls-3" d="M53.91,381.4c-21.17-.81-36-15.74-35.6-35.83.41-20.64,17.42-35.67,39.17-34.63,21.17,1.01,36,16.06,35.57,36.09-.45,20.76-16.92,35.21-39.14,34.36Z"/>
  <path class="cls-1" d="M129.19,416.01c-3.73,0-6.97-1.37-9.7-4.1-2.73-2.73-4.1-5.97-4.1-9.7s1.37-7.17,4.1-9.9,5.97-4.1,9.7-4.1,7.13,1.37,9.8,4.1c2.67,2.73,4,6.03,4,9.9s-1.33,6.97-4,9.7c-2.67,2.73-5.93,4.1-9.8,4.1Z"/>
</svg>