<?xml version="1.0" encoding="UTF-8"?>
<svg id="Lager_1" data-name="Lager 1" xmlns="http://www.w3.org/2000/svg" viewBox="0 0 715.49 866.99">
  <defs>
    <style>
      .cls-1 {
        fill: #fa8d5e;
        stroke-width: 0px;
      }
    </style>
  </defs>
  <path class="cls-1" d="M63.6,398.64c-10,0-18.83-2.37-26.5-7.1-7.67-4.73-13.7-11.27-18.1-19.6-4.4-8.33-6.6-17.9-6.6-28.7s2.37-20.57,7.1-28.9c4.73-8.33,11.23-14.87,19.5-19.6,8.27-4.73,17.8-7.1,28.6-7.1s20.13,2.37,28.4,7.1c8.27,4.73,14.77,11.27,19.5,19.6,4.73,8.33,7.1,17.97,7.1,28.9h-11.8c0,10.8-2.03,20.37-6.1,28.7-4.07,8.33-9.63,14.87-16.7,19.6-7.07,4.73-15.2,7.1-24.4,7.1ZM67.2,443.24c-9.47,0-18.33-1.87-26.6-5.6-8.27-3.73-15.27-9.2-21-16.4-1.73-2.27-2.37-4.6-1.9-7,.47-2.4,1.77-4.33,3.9-5.8,2.4-1.6,4.9-2.13,7.5-1.6,2.6.53,4.7,1.87,6.3,4,3.6,4.53,8.13,8.07,13.6,10.6,5.47,2.53,11.67,3.8,18.6,3.8,6.4,0,12.3-1.53,17.7-4.6,5.4-3.07,9.7-7.6,12.9-13.6,3.2-6,4.8-13.33,4.8-22v-28.4l6.6-17.6,13,4.2v43.2c0,10.53-2.33,20.1-7,28.7-4.67,8.6-11.17,15.43-19.5,20.5-8.33,5.07-17.97,7.6-28.9,7.6ZM67.6,380.64c6.93,0,13.07-1.6,18.4-4.8,5.33-3.2,9.5-7.6,12.5-13.2,3-5.6,4.5-12.07,4.5-19.4s-1.5-13.83-4.5-19.5c-3-5.67-7.17-10.1-12.5-13.3-5.33-3.2-11.47-4.8-18.4-4.8s-13.07,1.6-18.4,4.8c-5.33,3.2-9.53,7.63-12.6,13.3-3.07,5.67-4.6,12.17-4.6,19.5s1.53,13.8,4.6,19.4c3.07,5.6,7.27,10,12.6,13.2,5.33,3.2,11.47,4.8,18.4,4.8Z"/>
  <path class="cls-1" d="M179,397.84c-5.87,0-11.07-1.6-15.6-4.8-4.53-3.2-8.07-7.57-10.6-13.1-2.53-5.53-3.8-11.9-3.8-19.1v-109.2c0-2.93.93-5.33,2.8-7.2s4.27-2.8,7.2-2.8,5.33.93,7.2,2.8c1.87,1.87,2.8,4.27,2.8,7.2v109.2c0,4.93.93,9,2.8,12.2,1.87,3.2,4.27,4.8,7.2,4.8h5c2.67,0,4.83.93,6.5,2.8,1.67,1.87,2.5,4.27,2.5,7.2s-1.27,5.33-3.8,7.2c-2.53,1.87-5.8,2.8-9.8,2.8h-.4Z"/>
  <path class="cls-1" d="M225.2,270.64c-3.6,0-6.7-1.3-9.3-3.9s-3.9-5.7-3.9-9.3,1.3-6.7,3.9-9.3c2.6-2.6,5.7-3.9,9.3-3.9s6.7,1.3,9.3,3.9c2.6,2.6,3.9,5.7,3.9,9.3s-1.3,6.7-3.9,9.3-5.7,3.9-9.3,3.9ZM225.2,397.84c-2.93,0-5.37-.97-7.3-2.9-1.93-1.93-2.9-4.37-2.9-7.3v-89c0-3.07.97-5.53,2.9-7.4,1.93-1.87,4.37-2.8,7.3-2.8s5.53.93,7.4,2.8c1.87,1.87,2.8,4.33,2.8,7.4v89c0,2.93-.93,5.37-2.8,7.3-1.87,1.93-4.33,2.9-7.4,2.9Z"/>
  <path class="cls-1" d="M283.59,398.04c-2.93,0-5.37-.97-7.3-2.9-1.93-1.93-2.9-4.37-2.9-7.3v-89c0-3.07.97-5.53,2.9-7.4,1.93-1.87,4.37-2.8,7.3-2.8s5.53.93,7.4,2.8c1.87,1.87,2.8,4.33,2.8,7.4v89c0,2.93-.93,5.37-2.8,7.3-1.87,1.93-4.33,2.9-7.4,2.9ZM350.39,398.04c-2.93,0-5.37-.97-7.3-2.9-1.94-1.93-2.9-4.37-2.9-7.3v-57.2c0-8.4-2.07-14.63-6.2-18.7-4.13-4.07-9.53-6.1-16.2-6.1s-12.67,2.4-17.2,7.2c-4.54,4.8-6.8,10.93-6.8,18.4h-12.6c0-8.67,1.73-16.3,5.2-22.9,3.47-6.6,8.27-11.77,14.4-15.5,6.13-3.73,13.13-5.6,21-5.6s14.33,1.67,20.2,5c5.87,3.33,10.43,8.23,13.7,14.7,3.27,6.47,4.9,14.3,4.9,23.5v57.2c0,2.93-.94,5.37-2.8,7.3-1.87,1.93-4.33,2.9-7.4,2.9ZM416.99,398.04c-2.93,0-5.37-.97-7.3-2.9-1.94-1.93-2.9-4.37-2.9-7.3v-57.2c0-8.4-2.07-14.63-6.2-18.7-4.13-4.07-9.54-6.1-16.2-6.1s-12.63,2.4-17.1,7.2c-4.47,4.8-6.7,10.93-6.7,18.4h-16.6c0-8.67,1.87-16.3,5.6-22.9,3.73-6.6,8.96-11.77,15.7-15.5,6.73-3.73,14.43-5.6,23.1-5.6,7.6,0,14.33,1.67,20.2,5,5.87,3.33,10.43,8.23,13.7,14.7,3.27,6.47,4.9,14.3,4.9,23.5v57.2c0,2.93-.94,5.37-2.8,7.3-1.87,1.93-4.33,2.9-7.4,2.9Z"/>
  <path class="cls-1" d="M466.79,401.04c-3.73,0-6.97-1.37-9.7-4.1-2.73-2.73-4.1-5.97-4.1-9.7s1.37-7.17,4.1-9.9,5.97-4.1,9.7-4.1,7.13,1.37,9.8,4.1c2.67,2.73,4,6.03,4,9.9s-1.33,6.97-4,9.7c-2.67,2.73-5.93,4.1-9.8,4.1Z"/>
</svg>