<?xml version="1.0" encoding="UTF-8"?>
<svg id="Lager_1" data-name="Lager 1" xmlns="http://www.w3.org/2000/svg" viewBox="0 0 476.82 710.9">
  <defs>
    <style>
      .cls-1 {
        fill: #fa8d5e;
      }

      .cls-1, .cls-2 {
        stroke-width: 0px;
      }

      .cls-2 {
        fill: #fcfcfc;
      }
    </style>
  </defs>
  <g>
    <path class="cls-1" d="M175.23,397.84c-5.87,0-11.07-1.6-15.6-4.8-4.53-3.2-8.07-7.57-10.6-13.1-2.53-5.53-3.8-11.9-3.8-19.1v-109.2c0-2.93.93-5.33,2.8-7.2s4.27-2.8,7.2-2.8,5.33.93,7.2,2.8c1.87,1.87,2.8,4.27,2.8,7.2v109.2c0,4.93.93,9,2.8,12.2,1.87,3.2,4.27,4.8,7.2,4.8h5c2.67,0,4.83.93,6.5,2.8,1.67,1.87,2.5,4.27,2.5,7.2s-1.27,5.33-3.8,7.2c-2.53,1.87-5.8,2.8-9.8,2.8h-.4Z"/>
    <path class="cls-1" d="M221.43,270.64c-3.6,0-6.7-1.3-9.3-3.9s-3.9-5.7-3.9-9.3,1.3-6.7,3.9-9.3c2.6-2.6,5.7-3.9,9.3-3.9s6.7,1.3,9.3,3.9c2.6,2.6,3.9,5.7,3.9,9.3s-1.3,6.7-3.9,9.3-5.7,3.9-9.3,3.9ZM221.43,397.84c-2.93,0-5.37-.97-7.3-2.9-1.93-1.93-2.9-4.37-2.9-7.3v-89c0-3.07.97-5.53,2.9-7.4,1.93-1.87,4.37-2.8,7.3-2.8s5.53.93,7.4,2.8c1.87,1.87,2.8,4.33,2.8,7.4v89c0,2.93-.93,5.37-2.8,7.3-1.87,1.93-4.33,2.9-7.4,2.9Z"/>
    <path class="cls-1" d="M279.83,398.04c-2.93,0-5.37-.97-7.3-2.9-1.93-1.93-2.9-4.37-2.9-7.3v-89c0-3.07.97-5.53,2.9-7.4,1.93-1.87,4.37-2.8,7.3-2.8s5.53.93,7.4,2.8c1.87,1.87,2.8,4.33,2.8,7.4v89c0,2.93-.93,5.37-2.8,7.3-1.87,1.93-4.33,2.9-7.4,2.9ZM346.62,398.04c-2.93,0-5.37-.97-7.3-2.9-1.94-1.93-2.9-4.37-2.9-7.3v-57.2c0-8.4-2.07-14.63-6.2-18.7-4.13-4.07-9.53-6.1-16.2-6.1s-12.67,2.4-17.2,7.2c-4.54,4.8-6.8,10.93-6.8,18.4h-12.6c0-8.67,1.73-16.3,5.2-22.9,3.47-6.6,8.27-11.77,14.4-15.5,6.13-3.73,13.13-5.6,21-5.6s14.33,1.67,20.2,5c5.87,3.33,10.43,8.23,13.7,14.7,3.27,6.47,4.9,14.3,4.9,23.5v57.2c0,2.93-.94,5.37-2.8,7.3-1.87,1.93-4.33,2.9-7.4,2.9ZM413.22,398.04c-2.93,0-5.37-.97-7.3-2.9-1.94-1.93-2.9-4.37-2.9-7.3v-57.2c0-8.4-2.07-14.63-6.2-18.7-4.13-4.07-9.54-6.1-16.2-6.1s-12.63,2.4-17.1,7.2c-4.47,4.8-6.7,10.93-6.7,18.4h-16.6c0-8.67,1.87-16.3,5.6-22.9,3.73-6.6,8.96-11.77,15.7-15.5,6.73-3.73,14.43-5.6,23.1-5.6,7.6,0,14.33,1.67,20.2,5,5.87,3.33,10.43,8.23,13.7,14.7,3.27,6.47,4.9,14.3,4.9,23.5v57.2c0,2.93-.94,5.37-2.8,7.3-1.87,1.93-4.33,2.9-7.4,2.9Z"/>
    <path class="cls-1" d="M463.02,401.04c-3.73,0-6.97-1.37-9.7-4.1-2.73-2.73-4.1-5.97-4.1-9.7s1.37-7.17,4.1-9.9,5.97-4.1,9.7-4.1,7.13,1.37,9.8,4.1c2.67,2.73,4,6.03,4,9.9s-1.33,6.97-4,9.7c-2.67,2.73-5.93,4.1-9.8,4.1Z"/>
  </g>
  <path class="cls-1" d="M91.44,377.56c-7.53,7.31-16.23,15.23-43.13,13.43-20.22-1.35-38.68-13.26-45.41-35.05-6.24-20.18-2.71-39.18,13.54-53.86,17.43-15.75,38.03-16,59.06-9.18,7.85,2.54,14.34,13.28,22.44-1.17,2.42-4.32,12.43-2.1,12.3,7.3-.46,33.56,2.92,67.25-1.82,100.63-2.63,18.52-15.66,32.16-33.7,35.9-19.53,4.04-39.34,2.06-57.7-6.59-5.09-2.4-12.12-5.66-7.17-14.83,3.9-7.22,8.51-4.25,14.03-2.15,8.43,3.21,10.08,6.76,26.01,7.6,31.55,1.67,42.42-10.64,41.55-42.03Z"/>
  <path class="cls-2" d="M53.91,374.67c-21.17-.81-36-15.74-35.6-35.83.41-20.64,17.42-35.67,39.17-34.63,21.17,1.01,36,16.06,35.57,36.09-.45,20.76-16.92,35.21-39.14,34.36Z"/>
</svg>