<svg id="visual" viewBox="0 0 900 600" width="900" height="600" xmlns="http://www.w3.org/2000/svg" xmlns:xlink="http://www.w3.org/1999/xlink" version="1.1"><path d="M0 571L30 566.5C60 562 120 553 180 552.3C240 551.7 300 559.3 360 553.2C420 547 480 527 540 518.8C600 510.7 660 514.3 720 524.7C780 535 840 552 870 560.5L900 569L900 601L870 601C840 601 780 601 720 601C660 601 600 601 540 601C480 601 420 601 360 601C300 601 240 601 180 601C120 601 60 601 30 601L0 601Z" fill="#E48D6A" stroke-linecap="round" stroke-linejoin="miter"></path></svg>