<?xml version="1.0" encoding="UTF-8" standalone="no"?>
<svg
   id="visual"
   viewBox="0 0 900 86.634979"
   width="900"
   height="86.634979"
   version="1.1"
   sodipodi:docname="hero-swoop.svg"
   inkscape:version="1.3.2 (091e20e, 2023-11-25)"
   xmlns:inkscape="http://www.inkscape.org/namespaces/inkscape"
   xmlns:sodipodi="http://sodipodi.sourceforge.net/DTD/sodipodi-0.dtd"
   xmlns="http://www.w3.org/2000/svg"
   xmlns:svg="http://www.w3.org/2000/svg">
  <defs
     id="defs1" />
  <sodipodi:namedview
     id="namedview1"
     pagecolor="#ffffff"
     bordercolor="#666666"
     borderopacity="1.0"
     inkscape:showpageshadow="2"
     inkscape:pageopacity="0.0"
     inkscape:pagecheckerboard="0"
     inkscape:deskcolor="#d1d1d1"
     inkscape:zoom="0.96111111"
     inkscape:cx="450"
     inkscape:cy="-213.81503"
     inkscape:window-width="1392"
     inkscape:window-height="1212"
     inkscape:window-x="0"
     inkscape:window-y="25"
     inkscape:window-maximized="0"
     inkscape:current-layer="visual" />
  <path
     d="m 0,56.634976 30,-4.5 c 30,-4.5 90,-13.5 150,-14.2 60,-0.6 120,7 180,0.9 60,-6.2 120,-26.2 180,-34.4 60,-8.1 120,-4.50000002 180,5.9 60,10.3 120,27.3 150,35.8 l 30,8.5 v 32 h -30 c -30,0 -90,0 -150,0 -60,0 -120,0 -180,0 -60,0 -120,0 -180,0 -60,0 -120,0 -180,0 -60,0 -120,0 -150,0 H 0 Z"
     fill="#e48d6a"
     stroke-linecap="round"
     stroke-linejoin="miter"
     id="path1" />
</svg>
