<?xml version="1.0" encoding="UTF-8" standalone="no"?>
<svg
   id="visual"
   viewBox="0 0 900 43"
   width="900"
   height="43"
   version="1.1"
   sodipodi:docname="nav-swoop.svg"
   inkscape:version="1.3.2 (091e20e, 2023-11-25)"
   xmlns:inkscape="http://www.inkscape.org/namespaces/inkscape"
   xmlns:sodipodi="http://sodipodi.sourceforge.net/DTD/sodipodi-0.dtd"
   xmlns="http://www.w3.org/2000/svg"
   xmlns:svg="http://www.w3.org/2000/svg">
  <defs
     id="defs1" />
  <sodipodi:namedview
     id="namedview1"
     pagecolor="#ffffff"
     bordercolor="#666666"
     borderopacity="1.0"
     inkscape:showpageshadow="2"
     inkscape:pageopacity="0.0"
     inkscape:pagecheckerboard="0"
     inkscape:deskcolor="#d1d1d1"
     inkscape:zoom="0.96111111"
     inkscape:cx="450"
     inkscape:cy="300.17341"
     inkscape:window-width="1392"
     inkscape:window-height="1212"
     inkscape:window-x="0"
     inkscape:window-y="25"
     inkscape:window-maximized="0"
     inkscape:current-layer="visual" />
  <path
     d="M 0,40 21.5,34.7 C 43,29.3 86,18.7 128.8,13.8 171.7,9 214.3,10 257.2,14 300,18 343,25 385.8,27.8 c 42.9,2.9 85.5,1.5 128.4,1.4 42.8,-0.2 85.8,0.8 128.6,2.6 42.9,1.9 85.5,4.5 128.4,6.5 42.8,2 85.8,3.4 107.3,4 L 900,43 V 0 H 878.5 C 857,0 814,0 771.2,0 728.3,0 685.7,0 642.8,0 600,0 557,0 514.2,0 471.3,0 428.7,0 385.8,0 343,0 300,0 257.2,0 214.3,0 171.7,0 128.8,0 86,0 43,0 21.5,0 H 0 Z"
     fill="#9f2409"
     stroke-linecap="round"
     stroke-linejoin="miter"
     id="path1"
     style="opacity:0.41" />
</svg>
