<?xml version="1.0" encoding="UTF-8" standalone="no"?>
<svg
   id="visual"
   viewBox="0 0 900 244"
   width="900"
   height="244"
   version="1.1"
   sodipodi:docname="nav-swoop2.svg"
   inkscape:version="1.3.2 (091e20e, 2023-11-25)"
   xmlns:inkscape="http://www.inkscape.org/namespaces/inkscape"
   xmlns:sodipodi="http://sodipodi.sourceforge.net/DTD/sodipodi-0.dtd"
   xmlns="http://www.w3.org/2000/svg"
   xmlns:svg="http://www.w3.org/2000/svg">
  <defs
     id="defs1" />
  <sodipodi:namedview
     id="namedview1"
     pagecolor="#ffffff"
     bordercolor="#666666"
     borderopacity="1.0"
     inkscape:showpageshadow="2"
     inkscape:pageopacity="0.0"
     inkscape:pagecheckerboard="0"
     inkscape:deskcolor="#d1d1d1"
     inkscape:zoom="0.96111111"
     inkscape:cx="450"
     inkscape:cy="300.17341"
     inkscape:window-width="1392"
     inkscape:window-height="1212"
     inkscape:window-x="0"
     inkscape:window-y="25"
     inkscape:window-maximized="0"
     inkscape:current-layer="visual" />
  <path
     d="m 0,244 25,-8.2 c 25,-8.1 75,-24.5 125,-37.3 50,-12.8 100,-22.2 150,-20 50,2.2 100,15.8 150,22 50,6.2 100,4.8 150,-1.7 50,-6.5 100,-18.1 150,-19.1 50,-1 100,8.6 125,13.5 l 25,4.8 V 0 H 875 C 850,0 800,0 750,0 700,0 650,0 600,0 550,0 500,0 450,0 400,0 350,0 300,0 250,0 200,0 150,0 100,0 50,0 25,0 H 0 Z"
     fill="#9f2409"
     stroke-linecap="round"
     stroke-linejoin="miter"
     id="path1"
     style="opacity:0.41" />
</svg>
