<svg width="53" height="45" viewBox="0 0 53 45" fill="none" xmlns="http://www.w3.org/2000/svg">
<g clip-path="url(#clip0_3052_1172)">
<path d="M13.2313 0.760925C9.26581 1.27834 5.91445 2.86103 3.35923 6.07205C-0.287841 10.6603 -0.060373 18.0259 3.79142 22.0283C10.8657 29.3862 18.1598 36.5235 25.3781 43.7369C25.6435 44.0032 26.0833 44.0869 26.4017 44.2315C28.1684 43.9195 28.8811 42.4434 29.8896 41.439C36.0009 35.3974 48.1856 23.2914 48.1856 23.2914C53.3491 17.7976 53.4476 10.4929 49.2167 5.72203C44.2428 0.121764 38.3969 -0.760887 31.4591 3.46975C29.6469 4.57307 28.1987 6.2775 26.3714 7.89823C22.9366 3.9339 20.571 1.35443 13.6104 0.760925" stroke="#FFFDF6" stroke-width="2" stroke-linecap="round" stroke-linejoin="round"/>
</g>
<defs>
<clipPath id="clip0_3052_1172">
<rect width="53" height="45" fill="white"/>
</clipPath>
</defs>
</svg>
