<svg width="52" height="55" viewBox="0 0 52 55" fill="none" xmlns="http://www.w3.org/2000/svg">
<g clip-path="url(#clip0_3052_1097)">
<path d="M43.1576 23.3929C43.3149 19.2961 43.1781 15.1651 41.3181 11.478C38.8015 6.473 34.3838 3.43452 29.1455 1.84358C21.5274 -0.471133 14.2991 0.669153 7.78887 5.36686C3.41222 8.52825 1.21022 12.8504 0.847784 18.306C0.560567 22.6555 0.628952 26.9777 1.20339 31.2657C1.68892 34.8982 3.24126 38.2303 4.99192 41.4326C7.82306 46.6015 12.3912 50.0838 17.2465 53.0403C20.3512 54.9317 23.9619 54.6586 27.1008 52.5897C29.8225 50.8007 32.6263 49.0732 34.7531 46.5196" stroke="#671E01" stroke-width="2" stroke-linecap="round" stroke-linejoin="round"/>
<path d="M42.6453 26.4451C39.9714 29.5382 37.2907 32.5698 35.4717 36.3321C33.0509 41.3439 36.8736 45.6934 40.8809 46.4171C46.085 47.3594 50.2634 45.4544 51.2413 39.6505C51.6379 37.288 50.2223 35.2123 48.9641 33.3346C47.2613 30.7877 45.4833 28.2408 42.8983 26.4451" stroke="#671E01" stroke-width="2" stroke-linecap="round" stroke-linejoin="round"/>
<path d="M28.3934 41.1868C26.5675 40.2855 24.8784 38.6673 22.7242 39.432C22.1293 39.6437 21.4865 39.6778 20.8984 39.4525C19.0314 38.7356 17.4723 39.8144 15.9199 40.9274" stroke="#671E01" stroke-width="2" stroke-linecap="round" stroke-linejoin="round"/>
<path d="M17.7046 18.3128C13.9297 16.4829 10.7293 16.8858 5.99707 17.2955" stroke="#671E01" stroke-width="2" stroke-linecap="round" stroke-linejoin="round"/>
<path d="M37.5568 17.2955C33.4264 17.036 30.1507 16.2098 26.6152 18.0602" stroke="#671E01" stroke-width="2" stroke-linecap="round" stroke-linejoin="round"/>
<path d="M7.52246 23.3929C10.5724 26.1105 12.9522 26.3699 16.6861 24.4103" stroke="#671E01" stroke-width="2" stroke-linecap="round" stroke-linejoin="round"/>
<path d="M35.7727 24.1577C32.1346 26.1173 30.1446 26.1788 27.375 24.4103" stroke="#671E01" stroke-width="2" stroke-linecap="round" stroke-linejoin="round"/>
<path d="M17.7051 43.7269C20.5909 45.311 23.4768 44.6896 26.3558 43.7269" stroke="#671E01" stroke-width="2" stroke-linecap="round" stroke-linejoin="round"/>
<path d="M25.3433 34.5773C23.1345 35.2942 20.9325 35.8678 18.7236 34.5773" stroke="#671E01" stroke-width="2" stroke-linecap="round" stroke-linejoin="round"/>
<path d="M39.5949 36.0999C38.6238 37.5953 37.6049 39.0838 38.829 40.9274" stroke="#671E01" stroke-width="2" stroke-linecap="round" stroke-linejoin="round"/>
</g>
<defs>
<clipPath id="clip0_3052_1097">
<rect width="52" height="55" fill="white"/>
</clipPath>
</defs>
</svg>
