<svg id="visual" viewBox="0 0 960 150" width="960" height="150" xmlns="http://www.w3.org/2000/svg" xmlns:xlink="http://www.w3.org/1999/xlink" version="1.1"><rect x="0" y="0" width="960" height="150" fill="#FFFDF6"></rect><path d="M0 56L22.8 53C45.7 50 91.3 44 137 49.7C182.7 55.3 228.3 72.7 274 88.3C319.7 104 365.3 118 411.2 111.5C457 105 503 78 548.8 76.8C594.7 75.7 640.3 100.3 686 111.7C731.7 123 777.3 121 823 110C868.7 99 914.3 79 937.2 69L960 59L960 151L937.2 151C914.3 151 868.7 151 823 151C777.3 151 731.7 151 686 151C640.3 151 594.7 151 548.8 151C503 151 457 151 411.2 151C365.3 151 319.7 151 274 151C228.3 151 182.7 151 137 151C91.3 151 45.7 151 22.8 151L0 151Z" fill="#FFDE68" stroke-linecap="round" stroke-linejoin="miter"></path></svg>