<?xml version="1.0" encoding="UTF-8" standalone="no"?>
<svg
   id="visual"
   viewBox="0 0 960 150"
   width="960"
   height="150"
   version="1.1"
   sodipodi:docname="statement-swoop.svg"
   inkscape:version="1.3.2 (091e20e, 2023-11-25)"
   xmlns:inkscape="http://www.inkscape.org/namespaces/inkscape"
   xmlns:sodipodi="http://sodipodi.sourceforge.net/DTD/sodipodi-0.dtd"
   xmlns="http://www.w3.org/2000/svg"
   xmlns:svg="http://www.w3.org/2000/svg">
  <defs
     id="defs1" />
  <sodipodi:namedview
     id="namedview1"
     pagecolor="#ffffff"
     bordercolor="#666666"
     borderopacity="1.0"
     inkscape:showpageshadow="2"
     inkscape:pageopacity="0.0"
     inkscape:pagecheckerboard="0"
     inkscape:deskcolor="#d1d1d1"
     inkscape:zoom="0.90104167"
     inkscape:cx="480"
     inkscape:cy="74.913295"
     inkscape:window-width="1392"
     inkscape:window-height="1212"
     inkscape:window-x="0"
     inkscape:window-y="25"
     inkscape:window-maximized="0"
     inkscape:current-layer="visual" />
  <rect
     x="0"
     y="-6.6589594"
     width="960"
     height="156.65897"
     fill="#e48d6a"
     id="rect1"
     style="stroke-width:1.02196" />
  <path
     d="M0 56L22.8 60.5C45.7 65 91.3 74 137 78C182.7 82 228.3 81 274 75.2C319.7 69.3 365.3 58.7 411.2 68.2C457 77.7 503 107.3 548.8 119.8C594.7 132.3 640.3 127.7 686 109.2C731.7 90.7 777.3 58.3 823 44.3C868.7 30.3 914.3 34.7 937.2 36.8L960 39L960 151L937.2 151C914.3 151 868.7 151 823 151C777.3 151 731.7 151 686 151C640.3 151 594.7 151 548.8 151C503 151 457 151 411.2 151C365.3 151 319.7 151 274 151C228.3 151 182.7 151 137 151C91.3 151 45.7 151 22.8 151L0 151Z"
     fill="#FFFDF6"
     stroke-linecap="round"
     stroke-linejoin="miter"
     id="path1" />
</svg>
