<svg width="349" height="218" viewBox="0 0 349 218" fill="none" xmlns="http://www.w3.org/2000/svg">
<path d="M181.094 217.169C171.058 217.169 160.591 215.598 149.955 212.448C130.389 206.66 112.693 196.577 94.7862 185.873C93.8066 185.287 93.2155 184.218 93.2451 183.078C93.2704 181.938 93.9122 180.9 94.9171 180.363L170.241 140.107C190.36 129.353 211.167 118.236 234.043 114.542C267.69 109.108 303.973 120.761 338.252 133.162V133.166C339.54 133.609 340.815 134.196 342.039 134.977C347.013 138.157 349.795 144.123 348.799 149.485C347.262 157.782 338.636 162.029 330.77 162.561C316.115 163.549 303.389 161.181 287.268 154.404C280.846 158.989 274.787 164.119 269.121 169.203C266.549 171.508 263.94 173.902 261.415 176.216C246.139 190.213 230.339 204.691 211.121 211.911C201.794 215.415 191.682 217.168 181.092 217.168L181.094 217.169ZM102.852 183.302C118.765 192.697 134.62 201.31 151.748 206.377C166.065 210.612 187.603 213.981 208.888 205.988C226.959 199.199 242.298 185.143 257.132 171.552C259.669 169.225 262.291 166.823 264.888 164.497C280.067 150.875 298.032 136.921 318.594 132.986C290.469 123.558 261.649 116.498 235.051 120.796C213.218 124.322 192.882 135.19 173.224 145.695L102.852 183.302ZM293.612 150.145C307.047 155.364 317.755 157.095 330.341 156.242C335.589 155.887 341.656 153.261 342.568 148.334C343.168 145.108 341.036 141.857 338.625 140.316C336.214 138.775 332.98 138.116 328.441 138.247C316.019 138.606 304.357 143.411 293.612 150.145Z" fill="black"/>
<path d="M19.486 207.823C18.3459 207.823 17.2777 207.206 16.7162 206.189C-2.25031 171.849 -4.61027 126.912 10.5687 88.9153C24.5361 53.9425 54.3774 26.3783 92.443 13.303C130.591 0.197169 168.466 3.11488 199.091 21.5153C214.262 30.6312 226.671 42.7236 238.144 59.57C248.949 75.4372 258.39 94.6314 268.384 114.951L262.701 117.747C242.181 76.0277 227.356 45.8851 195.83 26.9442C166.831 9.52306 130.846 6.80425 94.4992 19.2936C58.1811 31.7704 29.7283 58.0041 16.4477 91.2669C2.24405 126.831 4.10175 168.724 21.2105 201.183C45.0788 197.366 70.9893 189.893 96.3039 179.519L98.7064 185.379C72.1528 196.264 44.9246 204.012 19.9632 207.791C19.8027 207.808 19.6465 207.821 19.4903 207.821L19.486 207.823Z" fill="black"/>
<path d="M188.999 103.916C186.711 103.916 184.359 103.481 181.99 102.603C174.686 99.9047 168.31 93.4742 164.502 84.9621C161.394 78.0167 160.411 70.5304 161.728 63.8847C163.121 56.8672 166.892 51.5812 172.351 48.9928C176.721 46.9239 181.682 46.8099 186.702 48.6635C194.007 51.3615 200.382 57.792 204.191 66.3041C207.298 73.2495 208.282 80.7358 206.965 87.3815C205.571 94.3991 201.801 99.685 196.342 102.273C194.032 103.367 191.558 103.916 188.999 103.916ZM170.278 82.374C173.351 89.2394 178.545 94.5805 184.177 96.658C187.564 97.9078 190.832 97.8698 193.622 96.5482C197.224 94.8424 199.753 91.148 200.746 86.1489C201.814 80.7783 200.982 74.6475 198.406 68.8924C195.333 62.0269 190.139 56.6859 184.507 54.6084C181.121 53.3586 177.853 53.3966 175.062 54.7182C171.46 56.424 168.931 60.1183 167.939 65.1175C166.87 70.4881 167.702 76.6189 170.278 82.374Z" fill="black"/>
<path d="M112.756 172.578C108.327 149.765 100.748 115.359 94.5671 93.7232C88.1917 71.3876 81.7146 42.2293 88.3098 14.7998L94.4659 16.2818C88.2169 42.2741 94.4912 70.395 100.656 91.9877C106.888 113.8 114.518 148.432 118.972 171.376L112.756 172.578Z" fill="black"/>
<path d="M91.8879 19.0695C91.0645 19.0695 90.2074 18.9935 89.3503 18.7993C85.829 18.0055 83.2195 14.7038 83.2746 11.1105C83.3042 9.07962 84.1739 7.02328 85.6644 5.46968C86.9057 4.17343 88.3371 3.41767 89.5743 2.85189C93.4969 1.05321 97.6094 0.132751 101.802 0.107422C103.255 0.107422 104.931 0.204538 106.594 1.04053C108.659 2.0792 110.116 4.03832 110.483 6.28035C110.977 9.26971 109.55 12.7614 107.165 14.3997C105.387 15.6241 103.858 16.1688 101.663 16.7472C100.223 17.1272 98.9774 17.5115 97.0733 18.1701C96.157 18.491 94.1596 19.0695 91.8879 19.0695ZM101.941 6.445H101.835C98.5505 6.46189 95.3122 7.19233 92.2129 8.61101C91.4867 8.94456 90.7436 9.32458 90.2411 9.85235C89.8569 10.2535 89.6162 10.7728 89.612 11.2119C89.5993 11.9255 90.2664 12.5166 90.7477 12.6221C91.8497 12.8713 93.526 12.6981 95.0122 12.1873C96.718 11.6004 98.2254 11.1106 100.054 10.6293C101.873 10.1522 102.633 9.8397 103.579 9.18947C103.892 8.9488 104.339 7.93124 104.238 7.31902C104.191 7.04457 103.955 6.80811 103.752 6.70679C103.3 6.48302 102.595 6.445 101.941 6.445Z" fill="black"/>
</svg>
