<svg width="345" height="314" viewBox="0 0 345 314" fill="none" xmlns="http://www.w3.org/2000/svg">
<path d="M197.093 168.201C191.519 114.074 182.712 59.7012 170.902 6.56799C125.706 7.99088 80.5105 8.13446 36.7343 8.25689C18.777 61.1559 8.74915 114.156 6.92928 165.823L0.600281 165.599C2.47073 112.613 12.8576 58.2659 31.4735 4.06983C31.9127 2.7947 33.1118 1.93759 34.4587 1.93337C79.7482 1.80671 126.562 1.68004 173.314 0.1558C174.855 0.109354 176.177 1.14381 176.506 2.63004C188.658 56.8225 197.702 112.312 203.385 167.557L197.093 168.201Z" fill="black"/>
<path d="M216.451 241.076C216.088 241.076 215.729 241.012 215.383 240.89C183.983 229.625 153.895 214.885 125.954 197.074C124.936 196.428 124.379 195.258 124.51 194.059C124.64 192.86 125.438 191.843 126.57 191.429C199.585 164.761 241.927 143.999 312.073 109.605C313.53 108.892 315.291 109.394 316.152 110.766C321.654 119.544 326.678 128.74 331.538 137.632C335.751 145.342 339.729 152.625 343.989 159.647C344.863 161.091 344.454 162.97 343.052 163.912C337.267 167.817 331.871 171.474 326.779 174.927C284.974 203.263 263.994 217.482 217.879 240.732C217.432 240.96 216.946 241.074 216.452 241.074L216.451 241.076ZM134.811 195.152C160.424 210.948 187.783 224.155 216.246 234.464C261.154 211.761 282.019 197.617 323.23 169.686C327.591 166.731 332.172 163.627 337.028 160.347C333.24 153.954 329.559 147.215 325.983 140.671C321.617 132.682 317.116 124.445 312.29 116.558C245.426 149.339 203.584 169.749 134.81 195.15L134.811 195.152Z" fill="black"/>
<path d="M87.4358 200.477L81.5035 198.261C84.2733 190.851 87.2838 183.158 90.1885 175.718C95.745 161.506 100.993 148.084 104.603 136.781L110.637 138.706C106.964 150.199 101.682 163.714 96.0869 178.022C93.1905 185.436 90.1885 193.108 87.4354 200.476L87.4358 200.477Z" fill="black"/>
<path d="M222.389 313.621C222.132 313.621 221.87 313.587 221.608 313.524C169.642 300.334 117.676 287.148 66.0024 274.046C65.2382 273.852 64.5753 273.383 64.1404 272.725C41.5893 238.698 20.3389 203.198 0.980042 167.211C0.338278 166.016 0.528263 164.547 1.44872 163.555C2.36917 162.563 3.82586 162.267 5.06287 162.82C78.5241 195.733 158.053 226.427 241.429 254.059C242.236 254.325 242.899 254.903 243.275 255.663C243.65 256.423 243.705 257.306 243.422 258.104C237.427 275.309 231.224 293.102 225.406 311.413C224.98 312.756 223.738 313.622 222.391 313.622L222.389 313.621ZM68.7399 268.209C119.07 280.965 169.667 293.809 220.271 306.653C225.506 290.334 231.008 274.463 236.379 259.054C157.124 232.69 81.3601 203.561 10.9902 172.395C28.8589 205.05 48.2559 237.234 68.7388 268.206L68.7399 268.209Z" fill="black"/>
<path d="M124.622 195.306C122.076 186.769 118.724 178.257 115.481 170.032C109.046 153.696 102.388 136.807 101.096 117.814C101.096 117.789 101.092 117.763 101.092 117.738C99.8587 90.015 97.4648 61.4379 93.7743 30.3765C93.5927 28.8608 94.5216 27.4336 95.9783 26.9776C119.327 19.7155 146.683 10.8781 172.549 0.390137L174.93 6.25904C149.774 16.4598 123.285 25.0944 100.374 32.2427C103.908 62.44 106.213 90.3264 107.416 117.421C108.649 135.42 115.118 151.837 121.371 167.708C124.664 176.059 128.067 184.698 130.689 193.497L124.622 195.306Z" fill="black"/>
<path d="M99.8841 49.5046L98.3261 43.3654C109.046 40.6505 119.826 37.4922 130.365 33.9793L139.877 30.6986C151.953 26.3794 163.986 21.4897 175.61 16.1782L178.241 21.9372C166.452 27.3248 154.254 32.2818 141.977 36.6727L132.396 39.9787C121.685 43.5465 110.753 46.7513 99.8851 49.5043L99.8841 49.5046Z" fill="black"/>
<path d="M103.919 106.378L102.796 100.146C105.718 99.6181 108.741 99.0777 111.321 97.9039C113.601 96.8652 114.787 95.6788 115.695 93.5169C116.561 91.4607 116.751 88.3953 116.274 84.1477C115.771 79.6933 115.32 75.3654 114.885 71.1852C113.863 61.4359 112.9 52.2231 111.473 42.6849L117.735 41.7476C119.183 51.4248 120.154 60.7054 121.184 70.5264C121.619 74.6979 122.071 79.0089 122.569 83.4424C123.177 88.8681 122.852 92.8454 121.539 95.9699C120.015 99.601 117.672 101.974 113.948 103.667C110.646 105.166 107.226 105.782 103.92 106.378L103.919 106.378Z" fill="black"/>
<path d="M130.596 47.3C129.929 44.1333 129.156 40.9414 128.312 37.8126C126.766 32.0788 124.917 26.3789 122.814 20.8645L128.734 18.6099C130.913 24.3184 132.825 30.2252 134.426 36.1618C135.304 39.4003 136.098 42.7106 136.794 45.9911L130.596 47.3Z" fill="black"/>
<path d="M157.395 57.9611C156.504 57.9611 155.584 57.8936 154.638 57.75C147.929 56.7198 143.06 52.6453 140.164 45.6408C140.151 45.607 140.139 45.5732 140.122 45.5394L136.372 35.4864L142.305 33.2739L146.033 43.2722C148.106 48.2587 151.058 50.7963 155.592 51.4928C159.346 52.067 162.496 50.775 166.485 49.1325C166.984 48.9256 167.49 48.7188 168.005 48.5118C172.899 46.54 177.092 44.3868 180.829 41.9252L184.312 47.2159C180.221 49.9097 175.66 52.2572 170.374 54.3851C169.872 54.5877 169.382 54.7904 168.896 54.9889C165.333 56.454 161.664 57.9611 157.395 57.9611Z" fill="black"/>
<path d="M96.0506 33.6945C74.6225 26.3437 53.2075 18.068 32.4038 9.09978L34.9118 3.28564C55.567 12.1904 76.829 20.4027 98.1046 27.7031L96.0506 33.6945Z" fill="black"/>
<path d="M98.7816 50.2038C90.1557 47.7296 81.5125 44.9892 73.0934 42.0549L63.7455 38.6898C51.5854 34.172 39.5014 29.1181 27.7974 23.6585L30.4743 17.9204C42.0262 23.308 53.9499 28.2945 65.9201 32.7449L75.209 36.0847C83.4847 38.9643 92.0137 41.6707 100.53 44.1154L98.7816 50.2038Z" fill="black"/>
<path d="M75.6901 47.0763L69.4875 45.7886C69.9689 43.4663 70.4924 40.9667 71.0371 38.4082C71.7338 35.1149 72.4558 31.7117 73.1482 28.4438L74.4487 22.2964L80.6469 23.6053L79.3465 29.7527C78.654 33.0207 77.932 36.4197 77.2395 39.7171C76.6949 42.2715 76.1714 44.7625 75.6901 47.0763Z" fill="black"/>
<path d="M48.1957 60.944C47.5793 60.944 46.9502 60.9229 46.3041 60.8849C40.9292 60.5472 33.4981 57.7098 26.3159 54.9696C24.0654 54.1124 21.9415 53.3018 19.9739 52.6009L22.0892 46.6307C24.1328 47.3527 26.2903 48.1761 28.5789 49.0501C35.0052 51.5032 42.2926 54.2856 46.7052 54.5601C52.916 54.9485 57.8604 53.2977 61.7786 43.9706L64.9115 35.6909L70.8352 37.933L67.6812 46.2634C67.6685 46.2972 67.6559 46.331 67.639 46.3647C63.4462 56.38 57.4046 60.944 48.1957 60.944Z" fill="black"/>
</svg>
