<svg width="128" height="126" viewBox="0 0 128 126" fill="none" xmlns="http://www.w3.org/2000/svg">
<path d="M93.5624 48.104C93.1828 48.104 92.8033 48.0214 92.4402 47.8399L33.1747 17.7537C31.9534 17.143 31.4748 15.6412 32.0854 14.4199C32.7126 13.1986 34.1979 12.72 35.4192 13.3306L94.7016 43.4168C95.9229 44.0275 96.4015 45.5293 95.7909 46.7506C95.3453 47.6088 94.4706 48.104 93.5629 48.104H93.5624Z" fill="black"/>
<path d="M63.7396 125.423C63.294 125.423 62.8484 125.307 62.4523 125.06C61.7261 124.614 61.264 123.805 61.264 122.947V60.7764C61.264 59.8522 61.7921 58.994 62.6173 58.5649L123.88 27.4717C124.655 27.0756 125.563 27.1251 126.289 27.5707C127.015 28.0163 127.478 28.825 127.478 29.6832V91.8696C127.478 92.7938 126.949 93.652 126.124 94.0811L64.8618 125.157C64.4987 125.339 64.1191 125.421 63.7395 125.421L63.7396 125.423ZM66.2151 62.2957V118.921L122.526 90.3525V33.7108L66.2151 62.2957Z" fill="black"/>
<path d="M63.7396 125.423C63.36 125.423 62.9804 125.34 62.6173 125.159L1.35479 94.0656C0.529591 93.6365 0.00146484 92.7948 0.00146484 91.8541V29.6832C0.00146484 28.825 0.447076 28.0163 1.18975 27.5707C1.91591 27.1251 2.84017 27.0756 3.59926 27.4717L64.8618 58.5649C65.687 58.994 66.2151 59.8357 66.2151 60.7764V122.947C66.2151 123.805 65.7695 124.614 65.0268 125.06C64.6307 125.307 64.1852 125.423 63.7396 125.423ZM4.95291 90.3356L61.2637 118.921V62.2957L4.95291 33.7108V90.3356Z" fill="black"/>
<path d="M63.7396 63.2549C63.36 63.2549 62.9639 63.1724 62.6173 62.9908L1.35479 31.8976C0.496577 31.4685 -0.0315489 30.5773 0.00146246 29.6201C0.0179667 28.6629 0.595611 27.8046 1.47036 27.4251L62.7329 0.210426C63.3765 -0.070142 64.1027 -0.070142 64.7464 0.210426L126.009 27.4251C126.884 27.8046 127.461 28.6629 127.478 29.6201C127.494 30.5773 126.983 31.452 126.124 31.8976L64.8619 62.9739C64.5153 63.1555 64.1192 63.2545 63.7396 63.2545L63.7396 63.2549ZM8.23714 29.8351L63.7396 57.9905L119.242 29.8351L63.7396 5.17804L8.23714 29.8351Z" fill="black"/>
<path d="M93.5793 60.2015C92.2095 60.2015 91.1038 59.0957 91.1038 57.7259V45.6286C91.1038 44.2588 92.2095 43.1531 93.5793 43.1531C94.9491 43.1531 96.0549 44.2588 96.0549 45.6286V57.7259C96.0549 59.0958 94.9326 60.2015 93.5793 60.2015Z" fill="black"/>
</svg>
