<svg width="195" height="238" viewBox="0 0 195 238" fill="none" xmlns="http://www.w3.org/2000/svg">
<path d="M33.1704 237.251C24.2935 237.251 15.9787 233.789 9.70559 227.545C3.43248 221.272 0 212.958 0 204.081V47.6391C0 45.1832 1.98253 43.2007 4.43845 43.2007H189.612C192.068 43.2007 194.05 45.1832 194.05 47.6391V204.05C194.05 222.337 179.167 237.249 160.852 237.249L33.1704 237.251ZM8.87714 52.0776V204.052C8.87714 210.532 11.3923 216.658 16.0082 221.244C20.5947 225.83 26.6903 228.375 33.2 228.375H160.879C174.283 228.375 185.202 217.456 185.202 204.052V52.0776H8.87714Z" fill="black"/>
<path d="M126.792 70.5126C124.336 70.5126 122.354 68.5301 122.354 66.0742V20.0914C122.354 13.9072 117.324 8.87689 111.139 8.87689H82.8821C76.6979 8.87689 71.6676 13.9072 71.6676 20.0914V66.0742C71.6676 68.5302 69.6851 70.5126 67.2291 70.5126C64.7732 70.5126 62.7907 68.5301 62.7907 66.0742V20.0914C62.7907 9.02485 71.786 0 82.8821 0H111.139C122.206 0 131.231 8.99531 131.231 20.0914V66.0742C131.231 68.5302 129.248 70.5126 126.792 70.5126Z" fill="black"/>
<path d="M67.2579 84.7157C61.0441 84.7157 56.0138 79.6854 56.0138 73.4716C56.0138 67.2578 61.0441 62.2275 67.2579 62.2275C73.4717 62.2275 78.502 67.2578 78.502 73.4716C78.502 79.6854 73.4422 84.7157 67.2579 84.7157ZM67.2579 71.1044C65.956 71.1044 64.8907 72.1697 64.8907 73.4716C64.8907 74.7736 65.956 75.8388 67.2579 75.8388C68.5599 75.8388 69.6251 74.7736 69.6251 73.4716C69.6251 72.1697 68.5599 71.1044 67.2579 71.1044Z" fill="black"/>
<path d="M126.792 84.7157C120.579 84.7157 115.548 79.6854 115.548 73.4716C115.548 67.2578 120.579 62.2275 126.792 62.2275C133.006 62.2275 138.036 67.2578 138.036 73.4716C138.036 79.6854 133.006 84.7157 126.792 84.7157ZM126.792 71.1044C125.49 71.1044 124.425 72.1697 124.425 73.4716C124.425 74.7736 125.49 75.8388 126.792 75.8388C128.094 75.8388 129.16 74.7736 129.16 73.4716C129.16 72.1697 128.094 71.1044 126.792 71.1044Z" fill="black"/>
</svg>
