<svg width="90" height="90" viewBox="0 0 90 90" fill="none" xmlns="http://www.w3.org/2000/svg">
<path d="M88.7052 6.04776L88.5708 6.18213C87.5294 7.27393 86.4208 8.33213 85.3458 9.40713L49.7533 44.9997L88.7056 83.9519C90.0325 85.2789 89.9317 87.3617 88.7056 88.7054C87.4794 90.0492 85.195 89.9484 83.952 88.7054L83.8177 88.5711C82.7259 87.5297 81.6677 86.4211 80.5927 85.3461L45.0001 49.7535L6.04787 88.7058C4.72092 90.0327 2.63811 89.932 1.29436 88.7058C-0.0493867 87.4796 0.051391 85.1953 1.29436 83.9523L1.42874 83.8179C2.47014 82.7261 3.57874 81.6679 4.65374 80.5929L40.2463 45.0004L1.294 6.04811C-0.0329467 4.72116 0.067831 2.63836 1.294 1.29461C2.52018 -0.0491426 4.80452 0.0516351 6.04751 1.29461L6.18189 1.42898C7.27368 2.47039 8.33189 3.57898 9.40689 4.65398L44.9994 40.2465L83.9517 1.29425C85.2786 -0.0327026 87.3614 0.0680751 88.7052 1.29425C90.0489 2.52042 89.9482 4.788 88.7052 6.04776Z" fill="black"/>
</svg>
