<svg width="155" height="123" viewBox="0 0 155 123" fill="none" xmlns="http://www.w3.org/2000/svg">
<path d="M33 64.4895C30.6743 64.4895 28.3673 64.2311 26.1155 63.7512C20.8921 62.6068 15.9826 60.1336 11.922 56.6082C9.65184 54.6334 7.67695 52.3631 6.03422 49.8345C2.65663 44.6296 0.866333 38.5942 0.866333 32.3551C0.866333 26.7258 2.3429 21.1887 5.12986 16.3342C7.84311 11.6277 11.719 7.65944 16.3702 4.8539C21.372 1.8269 27.1306 0.221191 33.0006 0.221191C36.8581 0.221191 40.6233 0.904095 44.204 2.23294C50.2764 4.50314 55.4814 8.50837 59.2465 13.824C63.0856 19.2688 65.1344 25.6733 65.1344 32.3554V32.8353C65.0052 41.3071 61.609 49.2626 55.5736 55.224C49.5012 61.2041 41.4909 64.4894 33.0007 64.4894L33 64.4895ZM33 5.75928C28.1458 5.75928 23.3838 7.08819 19.2494 9.59835C11.2205 14.4711 6.42183 22.9797 6.42183 32.3555C6.42183 37.5234 7.89839 42.5253 10.7039 46.8258C12.0698 48.9114 13.6939 50.7941 15.5767 52.4368C18.9358 55.3531 22.9963 57.4017 27.3153 58.343C29.1795 58.7491 31.0989 58.9521 33.0185 58.9521C47.4704 58.9521 59.3935 47.195 59.6156 32.7425V32.7056V32.3549C59.6156 21.2992 52.6572 11.2767 42.3032 7.41953C39.3132 6.31211 36.1939 5.75837 33.0009 5.75837L33 5.75928Z" fill="black"/>
<path d="M97.0269 109.305H61.4965C59.9645 109.305 58.7279 108.068 58.7279 106.536C58.7279 100.63 53.9291 95.831 48.0228 95.831C42.1166 95.831 37.3177 100.63 37.3177 106.536C37.3177 108.068 36.0811 109.305 34.5492 109.305H13.7292C12.1973 109.305 10.9607 108.068 10.9607 106.536V54.5248C10.9607 53.4359 11.5882 52.4577 12.5848 51.9962C13.5815 51.5348 14.7259 51.7193 15.5564 52.4207C18.9155 55.337 22.9761 57.3856 27.295 58.3269C29.1592 58.733 31.0786 58.936 32.9983 58.936C47.4501 58.936 59.3732 47.179 59.5953 32.7265V32.6895V32.3388C59.5953 30.8069 60.8319 29.5703 62.3638 29.5703H97.0453C98.5772 29.5703 99.8138 30.8069 99.8138 32.3388V106.536C99.7954 108.049 98.5588 109.304 97.0269 109.304V109.305ZM64.0259 103.768H94.258V35.1259H65.004C64.358 42.7486 61.0542 49.7992 55.554 55.226C49.5 61.1877 41.4897 64.4915 33 64.4915C30.6743 64.4915 28.3673 64.2331 26.1155 63.7532C22.7379 63.0149 19.4895 61.7228 16.5178 59.9325V103.768H32.0217C33.3322 96.1267 40.0136 90.2943 48.0238 90.2943C56.034 90.2758 62.7155 96.1082 64.0257 103.768L64.0259 103.768Z" fill="black"/>
<path d="M151.368 109.304H137.672C136.14 109.304 134.904 108.068 134.904 106.536C134.904 100.63 130.105 95.8308 124.199 95.8308C118.293 95.8308 113.494 100.63 113.494 106.536C113.494 108.068 112.257 109.304 110.725 109.304H97.03C95.4981 109.304 94.2615 108.068 94.2615 106.536V47.99C94.2615 46.458 95.4981 45.2214 97.03 45.2214H126.284C127.096 45.2214 127.853 45.5721 128.388 46.1812L153.472 75.3439C153.896 75.8423 154.136 76.4882 154.136 77.1526V106.536C154.136 108.049 152.899 109.304 151.368 109.304ZM140.22 103.767H148.599V78.1862L125.01 50.7591H99.7976V103.767H108.196C109.506 96.1261 116.187 90.2937 124.198 90.2937C132.208 90.2752 138.889 96.1076 140.218 103.767H140.22Z" fill="black"/>
<path d="M48.0239 122.777C39.0722 122.777 31.7825 115.486 31.7825 106.536C31.7825 97.5847 39.073 90.2942 48.0239 90.2942C56.9755 90.2942 64.2653 97.5847 64.2653 106.536C64.2653 115.486 56.9748 122.777 48.0239 122.777ZM48.0239 95.8114C42.1176 95.8114 37.3188 100.61 37.3188 106.517C37.3188 112.423 42.1176 117.222 48.0239 117.222C53.9301 117.222 58.729 112.423 58.729 106.517C58.729 100.61 53.9301 95.8114 48.0239 95.8114Z" fill="black"/>
<path d="M124.196 122.777C115.244 122.777 107.954 115.486 107.954 106.536C107.954 97.5847 115.245 90.2942 124.196 90.2942C128.533 90.2942 132.612 91.9922 135.676 95.056C138.74 98.1199 140.438 102.199 140.438 106.536C140.438 115.488 133.147 122.778 124.196 122.778L124.196 122.777ZM124.196 95.8114C118.289 95.8114 113.491 100.61 113.491 106.517C113.491 112.423 118.289 117.222 124.196 117.222C130.102 117.222 134.901 112.423 134.901 106.517C134.901 103.656 133.793 100.961 131.763 98.9491C129.751 96.9374 127.056 95.8114 124.196 95.8114Z" fill="black"/>
<path d="M151.367 79.9196H111.906C110.374 79.9196 109.137 78.683 109.137 77.1511C109.137 75.6192 110.374 74.3826 111.906 74.3826H151.367C152.899 74.3826 154.136 75.6192 154.136 77.1511C154.136 78.683 152.899 79.9196 151.367 79.9196Z" fill="black"/>
<path d="M43.7793 48.5804C42.9672 48.5804 42.1735 48.2297 41.6198 47.5468L30.6748 33.9256C30.2872 33.4272 30.0657 32.8182 30.0657 32.1906V16.8159C30.0657 15.284 31.3023 14.0474 32.8342 14.0474C34.3661 14.0474 35.6028 15.284 35.6028 16.8159V31.2123L45.9387 44.0769C46.8985 45.2767 46.7139 47.0116 45.5142 47.9715C44.9974 48.3775 44.3884 48.5804 43.7793 48.5804Z" fill="black"/>
</svg>
