<svg width="129" height="7" viewBox="0 0 129 7" fill="none" xmlns="http://www.w3.org/2000/svg">
<path d="M124.65 0.0427087H121.435H112.672H99.7771H83.9784H66.659H49.1831H32.8829H19.1757H9.25401C7.68107 0.0427087 6.10813 0.00813761 4.55245 0.0427087H4.34503C2.53005 0.0427087 0.80164 1.6329 0.887927 3.49981C0.974215 5.36672 2.40895 6.95692 4.34503 6.95692H7.56009H16.3237H29.2184H45.0171H62.3366H79.8124H96.1126H109.82H119.742C121.314 6.95692 122.887 6.99149 124.443 6.95692H124.65C126.465 6.95692 128.194 5.36672 128.108 3.49981C128.021 1.6329 126.587 0.0427087 124.65 0.0427087Z" fill="black"/>
</svg>
