<svg width="134" height="134" viewBox="0 0 134 134" fill="none" xmlns="http://www.w3.org/2000/svg">
<path d="M23.8364 57.9907C22.36 57.9907 21.1682 56.7988 21.1682 55.3224C21.1682 36.4844 36.5027 21.1499 55.3224 21.1499C56.7989 21.1499 57.9907 22.3418 57.9907 23.8182C57.9907 25.2947 56.7989 26.4865 55.3224 26.4865C39.4187 26.4865 26.5053 39.4188 26.5053 55.3218C26.5053 56.7983 25.2957 57.9901 23.837 57.9901L23.8364 57.9907Z" fill="black"/>
<path d="M55.3221 110.591C40.5575 110.591 26.6826 104.846 16.2405 94.4038C5.79858 83.9619 0.0529175 70.086 0.0529175 55.3222C0.0529175 40.5584 5.79873 26.6827 16.2405 16.2406C26.6825 5.79864 40.5584 0.0529785 55.3221 0.0529785C70.0859 0.0529785 83.9616 5.79879 94.4037 16.2406C104.846 26.6825 110.591 40.5584 110.591 55.3222C110.591 67.3652 106.785 78.8036 99.5979 88.4094C96.4316 92.6609 92.6604 96.4142 88.4088 99.5984C78.803 106.803 67.3652 110.592 55.3217 110.592L55.3221 110.591ZM55.3221 5.38864C27.7847 5.38864 5.38858 27.7847 5.38858 55.3222C5.38858 82.8597 27.7847 105.256 55.3221 105.256C66.1911 105.256 76.5266 101.823 85.2079 95.3296C89.0502 92.4479 92.4479 89.0502 95.3297 85.2078C101.823 76.5268 105.256 66.1922 105.256 55.322C105.256 27.7846 82.8598 5.38848 55.3223 5.38848L55.3221 5.38864Z" fill="black"/>
<path d="M123.808 134C121.087 134 118.525 132.933 116.586 131.011L84.9228 99.348C84.3714 98.7965 84.0867 98.0494 84.1401 97.2667C84.1935 96.484 84.5848 95.7902 85.2074 95.3278C89.0497 92.4639 92.4474 89.0484 95.3292 85.206C95.7918 84.5834 96.5033 84.192 97.2681 84.1387C98.033 84.0853 98.798 84.3699 99.3494 84.9214L131.013 116.585C132.934 118.506 134.001 121.067 134.001 123.789C134.001 126.511 132.934 129.072 131.013 130.994C129.092 132.932 126.53 134 123.808 134ZM90.8107 97.6931L120.358 127.24C121.283 128.165 122.493 128.663 123.791 128.663C125.09 128.663 126.317 128.165 127.224 127.24C128.149 126.315 128.647 125.106 128.647 123.807C128.647 122.509 128.149 121.281 127.224 120.374L97.6953 90.8085C95.614 93.2989 93.3015 95.6115 90.811 97.6928L90.8107 97.6931Z" fill="black"/>
</svg>
