<svg width="133" height="117" viewBox="0 0 133 117" fill="none" xmlns="http://www.w3.org/2000/svg">
<path d="M117.119 49.7112C113.113 49.7112 109.355 48.1584 106.529 45.317C105.737 44.5251 105.054 43.671 104.464 42.7394C101.809 46.9162 97.1197 49.6957 91.8093 49.6957C86.499 49.6957 81.8097 46.9162 79.1545 42.7239C76.4994 46.9164 71.8101 49.6957 66.4997 49.6957C62.4937 49.6957 58.736 48.1429 55.9101 45.3015C55.1182 44.5096 54.4349 43.6555 53.8449 42.7239C51.1898 46.9007 46.5004 49.6802 41.1901 49.6802C37.1841 49.6802 33.4264 48.1274 30.6004 45.286C29.8085 44.4941 29.1253 43.64 28.5353 42.7084C25.8801 46.8852 21.1908 49.6647 15.8805 49.6647C14.2501 49.6647 12.6508 49.4007 11.1292 48.8883C8.93988 48.1585 6.92124 46.9008 5.29096 45.2704C2.465 42.4444 0.896729 38.6712 0.896729 34.6807V24.945C0.896729 24.5103 1.02095 24.0755 1.25386 23.7029L15.3373 1.35937C15.7565 0.676174 16.5018 0.272461 17.3093 0.272461H115.691C116.498 0.272461 117.243 0.676174 117.663 1.35937L131.746 23.7492C131.979 24.1219 132.103 24.5567 132.103 24.9914V34.7271C132.103 41.1865 127.988 46.9006 121.87 48.9351C120.349 49.4475 118.749 49.7115 117.119 49.7115L117.119 49.7112ZM106.793 34.7268C106.793 37.4906 107.865 40.0837 109.821 42.0246C111.778 43.9811 114.371 45.0525 117.119 45.0525C118.237 45.0525 119.339 44.8817 120.395 44.5246C124.619 43.1116 127.445 39.1832 127.445 34.7268V25.6588L114.402 4.91461H18.5975L5.5545 25.6588V34.7268C5.5545 37.4907 6.62588 40.0838 8.58239 42.0247C9.71589 43.1582 11.0978 44.0122 12.604 44.5246C13.6599 44.8817 14.7623 45.0525 15.8804 45.0525C21.5789 45.0525 26.2061 40.4253 26.2061 34.7268C26.2061 33.438 27.2464 32.3977 28.5352 32.3977C29.8239 32.3977 30.8643 33.438 30.8643 34.7268C30.8643 37.4906 31.9356 40.0837 33.8921 42.0246C35.8486 43.9811 38.4417 45.0525 41.19 45.0525C46.8885 45.0525 51.5157 40.4253 51.5157 34.7268C51.5157 33.438 52.556 32.3977 53.8448 32.3977C55.1336 32.3977 56.1739 33.438 56.1739 34.7268C56.1739 37.4906 57.2453 40.0837 59.2018 42.0246C61.1583 43.9811 63.7513 45.0525 66.4996 45.0525C72.1982 45.0525 76.8253 40.4253 76.8253 34.7268C76.8253 33.438 77.8657 32.3977 79.1544 32.3977C80.4432 32.3977 81.4835 33.438 81.4835 34.7268C81.4835 40.4253 86.1107 45.0525 91.8092 45.0525C97.5078 45.0525 102.135 40.4253 102.135 34.7268C102.135 33.438 103.175 32.3977 104.464 32.3977C105.753 32.3977 106.793 33.438 106.793 34.7268Z" fill="black"/>
<path d="M121.143 116.734H11.861C10.5722 116.734 9.53189 115.693 9.53189 114.405V46.7369C9.53189 45.9916 9.88902 45.2773 10.4946 44.8426C11.1001 44.4078 11.8766 44.2836 12.5907 44.5165C13.6466 44.8737 14.749 45.0445 15.8671 45.0445C21.5656 45.0445 26.1928 40.4173 26.1928 34.7187C26.1928 33.43 27.2331 32.3896 28.5219 32.3896C29.8106 32.3896 30.851 33.43 30.851 34.7187C30.851 37.4826 31.9223 40.0757 33.8788 42.0166C35.8353 43.9731 38.4284 45.0445 41.1767 45.0445C46.8752 45.0445 51.5024 40.4173 51.5024 34.7187C51.5024 33.43 52.5427 32.3896 53.8315 32.3896C55.1202 32.3896 56.1606 33.43 56.1606 34.7187C56.1606 37.4826 57.232 40.0757 59.1885 42.0166C61.145 43.9731 63.738 45.0445 66.4863 45.0445C72.1849 45.0445 76.812 40.4173 76.812 34.7187C76.812 33.43 77.8524 32.3896 79.1411 32.3896C80.4299 32.3896 81.4702 33.43 81.4702 34.7187C81.4702 40.4173 86.0974 45.0445 91.7959 45.0445C97.4945 45.0445 102.122 40.4173 102.122 34.7187C102.122 33.43 103.162 32.3896 104.451 32.3896C105.739 32.3896 106.78 33.43 106.78 34.7187C106.78 37.4826 107.851 40.0757 109.808 42.0166C111.764 43.9731 114.357 45.0445 117.106 45.0445C118.239 45.0445 119.341 44.8581 120.382 44.5165C121.096 44.2836 121.872 44.3923 122.478 44.8271C123.084 45.2618 123.456 45.9761 123.456 46.7214V114.405C123.472 115.694 122.431 116.734 121.143 116.734L121.143 116.734ZM14.1903 112.076H118.814V49.6244C118.255 49.6865 117.696 49.7176 117.137 49.7176C113.131 49.7176 109.373 48.1648 106.532 45.3233C105.74 44.5314 105.056 43.6774 104.466 42.7458C101.811 46.9226 97.1219 49.702 91.8116 49.702C86.5013 49.702 81.812 46.9226 79.1568 42.7303C76.5016 46.9227 71.8123 49.702 66.502 49.702C62.496 49.702 58.7383 48.1493 55.9123 45.3078C55.1204 44.5159 54.4372 43.6619 53.8472 42.7303C51.192 46.9071 46.5027 49.6865 41.1924 49.6865C37.1864 49.6865 33.4287 48.1338 30.6027 45.2923C29.8108 44.5004 29.1276 43.6464 28.5376 42.7148C25.8824 46.8916 21.1931 49.671 15.8827 49.671C15.3082 49.671 14.7493 49.64 14.1903 49.5779V112.076Z" fill="black"/>
<path d="M57.3548 116.734H28.3029C27.0141 116.734 25.9738 115.693 25.9738 114.405V62.9006C25.9738 61.6118 27.0142 60.5715 28.3029 60.5715H57.3548C58.6436 60.5715 59.6839 61.6119 59.6839 62.9006V114.405C59.6839 115.693 58.6436 116.734 57.3548 116.734ZM30.6322 112.076H55.0255V65.2302H30.6322V112.076Z" fill="black"/>
<path d="M104.697 97.0548H72.8666C71.5778 97.0548 70.5375 96.0145 70.5375 94.7257V62.8952C70.5375 61.6065 71.5779 60.5662 72.8666 60.5662H104.697C105.986 60.5662 107.026 61.6065 107.026 62.8952V94.7257C107.026 96.0145 105.986 97.0548 104.697 97.0548ZM75.1946 92.3966H102.368V65.2235H75.1946V92.3966Z" fill="black"/>
<path d="M36.6875 93.1261C35.3987 93.1261 34.3584 92.0858 34.3584 90.797V86.5115C34.3584 85.2227 35.3987 84.1824 36.6875 84.1824C37.9762 84.1824 39.0166 85.2227 39.0166 86.5115V90.797C39.0166 92.0858 37.9762 93.1261 36.6875 93.1261Z" fill="black"/>
<path d="M90.7078 27.3213H3.22728C1.9385 27.3213 0.898193 26.2809 0.898193 24.9922C0.898193 23.7034 1.93853 22.6631 3.22728 22.6631H90.7078C91.9965 22.6631 93.0368 23.7034 93.0368 24.9922C93.0368 26.2809 91.9965 27.3213 90.7078 27.3213Z" fill="black"/>
</svg>
