<svg width="111" height="127" viewBox="0 0 111 127" fill="none" xmlns="http://www.w3.org/2000/svg">
<path d="M55.5 71.8105C45.9481 71.8105 36.9635 68.0848 30.2178 61.3387C23.472 54.5927 19.746 45.6086 19.746 36.0565C19.746 26.5043 23.4717 17.52 30.2178 10.7743C36.9638 4.02849 45.9479 0.30249 55.5 0.30249C65.0521 0.30249 74.0365 4.02823 80.7822 10.7743C87.528 17.5203 91.254 26.5043 91.254 36.0565C91.254 45.6086 87.5437 54.593 80.7822 61.3387C74.0208 68.0848 65.0521 71.8105 55.5 71.8105ZM55.5 4.90102C38.3124 4.90102 24.346 18.8845 24.346 36.0551C24.346 53.2256 38.3137 67.2091 55.5 67.2091C72.6863 67.2091 86.654 53.2413 86.654 36.0551C86.654 18.8688 72.6863 4.90102 55.5 4.90102Z" fill="black"/>
<path d="M108.409 126.692H2.58708C1.31452 126.692 0.287292 125.665 0.287292 124.393V107.144C0.287292 96.4726 4.4423 86.4458 11.9856 78.9019C19.529 71.3581 29.5565 67.2036 40.2273 67.2036H70.769C81.4401 67.2036 91.4669 71.3586 99.0107 78.9019C106.555 86.4453 110.709 96.4729 110.709 107.144V124.393C110.709 125.665 109.682 126.692 108.409 126.692H108.409ZM4.88713 122.093H106.093V107.144C106.093 87.6563 90.2402 71.8032 70.7526 71.8032H40.2265C20.7389 71.8032 4.88582 87.6563 4.88582 107.144L4.88713 122.093Z" fill="black"/>
</svg>
